<?xml version="1.0" encoding="UTF-8"?>
<svg version="1.1" xmlns="http://www.w3.org/2000/svg" width="1200" height="675">
<path d="M0 0 C396 0 792 0 1200 0 C1200 222.75 1200 445.5 1200 675 C804 675 408 675 0 675 C0 452.25 0 229.5 0 0 Z " fill="#F4F2FE" transform="translate(0,0)"/>
<path d="M0 0 C11.00633099 7.97187525 18.818515 19.81956216 22 33 C23.97991057 48.91235058 20.68095759 61.70476212 11.1875 74.5625 C3.35778509 83.51717394 -8.32027961 90.5077731 -20 93 C-37.62957566 93.92506351 -52.83951238 91.89775006 -66.8125 80.1875 C-71.02253668 76.25612407 -74.05742521 71.92333712 -77 67 C-77.8353125 65.7625 -77.8353125 65.7625 -78.6875 64.5 C-82.53429074 57.17277954 -83.50010972 50.26437337 -83.4375 42.0625 C-83.45748047 41.13759766 -83.47746094 40.21269531 -83.49804688 39.25976562 C-83.48951738 27.08818037 -77.64709328 15.72407739 -69.4375 6.875 C-49.77282909 -11.6971892 -22.94036254 -14.0120497 0 0 Z " fill="#5C2BE4" transform="translate(774,295)"/>
<path d="M0 0 C6.27 0 12.54 0 19 0 C20.31097656 3.07634766 20.31097656 3.07634766 21.6484375 6.21484375 C28.80069692 22.97488941 36.03603271 39.69582601 43.375 56.375 C46.25099311 62.91623016 49.12605605 69.45786927 52 76 C52.28544678 76.64952637 52.57089355 77.29905273 52.86499023 77.96826172 C54.46028403 81.60013167 56.04624479 85.23591339 57.625 88.875 C57.98513184 89.69403809 58.34526367 90.51307617 58.71630859 91.35693359 C61 96.65260336 61 96.65260336 61 100 C53.74 100 46.48 100 39 100 C35.25906067 92.68816403 32.06975444 85.67438611 29 78 C9.2 77.505 9.2 77.505 -11 77 C-11.33 78.65 -11.66 80.3 -12 82 C-12.57040548 83.49343421 -13.18770564 84.96969975 -13.84765625 86.42578125 C-14.33117554 87.50339722 -14.33117554 87.50339722 -14.82446289 88.6027832 C-15.43729126 89.94409302 -15.43729126 89.94409302 -16.0625 91.3125 C-17.361875 94.179375 -18.66125 97.04625 -20 100 C-27.59 100 -35.18 100 -43 100 C-41.02025857 94.06077572 -39.00984121 88.44717916 -36.47265625 82.76953125 C-36.13133163 81.99632538 -35.79000702 81.22311951 -35.43833923 80.42648315 C-34.70111597 78.75745787 -33.96209415 77.08922605 -33.22143555 75.42172241 C-31.2138555 70.9018655 -29.21920157 66.37630177 -27.22265625 61.8515625 C-26.80311676 60.9017601 -26.38357727 59.9519577 -25.95132446 58.97337341 C-20.46765939 46.5482268 -15.07179342 34.08478859 -9.67214966 21.62295532 C-8.42812918 18.75216812 -7.18286679 15.88192211 -5.9375 13.01171875 C-5.38243019 11.72852249 -5.38243019 11.72852249 -4.81614685 10.41940308 C-4.47334183 9.62962067 -4.1305368 8.83983826 -3.77734375 8.02612305 C-3.48077881 7.34148483 -3.18421387 6.65684662 -2.87866211 5.95146179 C-1.97391018 3.9420559 -0.98552403 1.97104807 0 0 Z " fill="#5B2BE4" transform="translate(291,287)"/>
<path d="M0 0 C-1.34849837 4.35970831 -3.04907846 8.31341438 -5.125 12.375 C-5.66382813 13.43460937 -6.20265625 14.49421875 -6.7578125 15.5859375 C-7.16773438 16.38257813 -7.57765625 17.17921875 -8 18 C-12.77968626 16.10399899 -17.51747205 14.11298244 -22.2578125 12.12109375 C-27.5232419 9.9684182 -31.70281101 9.81673373 -37.3125 9.8125 C-38.57610352 9.79413086 -38.57610352 9.79413086 -39.86523438 9.77539062 C-44.6521811 9.76416245 -48.50278001 10.143888 -53 12 C-53.16281338 13.5798928 -53.27877979 15.16465741 -53.375 16.75 C-53.44460938 17.63171875 -53.51421875 18.5134375 -53.5859375 19.421875 C-53.20638013 22.19630075 -53.20638013 22.19630075 -50.76953125 24.11328125 C-45.75493245 27.03895667 -39.89771892 28.07671461 -34.3125 29.4375 C-21.28043859 32.62244888 -5.87493946 36.56322446 2.08984375 48.25390625 C5.51914044 54.83285742 5.18356452 65.63238961 3.28125 72.65234375 C-0.85636835 81.34467907 -9.13830568 86.84651419 -18 90 C-30.29084316 92.85260257 -41.68138615 92.33935215 -54 90 C-55.485 89.72542969 -55.485 89.72542969 -57 89.4453125 C-65.2201361 87.67448531 -72.87253193 84.47373174 -80 80 C-81 77 -81 77 -80.28735352 75.09887695 C-79.90506592 74.40238037 -79.52277832 73.70588379 -79.12890625 72.98828125 C-78.51499023 71.85229492 -78.51499023 71.85229492 -77.88867188 70.69335938 C-77.45103516 69.90767578 -77.01339844 69.12199219 -76.5625 68.3125 C-75.9118457 67.11657227 -75.9118457 67.11657227 -75.24804688 65.89648438 C-74.17425237 63.92589446 -73.09135818 61.96090073 -72 60 C-71.28714844 60.39832031 -70.57429687 60.79664063 -69.83984375 61.20703125 C-58.19838174 67.64665559 -48.54708271 71.12555883 -35.25 71.3125 C-34.52893066 71.33014404 -33.80786133 71.34778809 -33.06494141 71.3659668 C-28.3031872 71.35991139 -25.02974041 70.5402198 -21 68 C-19.56264754 65.12529507 -19.61827351 63.18105412 -20 60 C-24.26671739 55.48334937 -29.72458423 54.22026413 -35.5 52.5 C-36.48452148 52.19521729 -37.46904297 51.89043457 -38.48339844 51.57641602 C-42.63753556 50.29472606 -46.79867123 49.04569858 -50.984375 47.87109375 C-61.75565668 44.79174408 -69.97840126 40.89416927 -75.75 31 C-78.30471442 24.58514017 -78.01925334 16.29290531 -76 9.75 C-71.5572062 0.04546422 -63.65578487 -5.19698727 -54 -9 C-35.68133506 -15.71144008 -16.16960174 -8.86961205 0 0 Z " fill="#5C2CE4" transform="translate(948,297)"/>
<path d="M0 0 C19.97671572 -2.5201097 19.97671572 -2.5201097 26.12109375 1.32861328 C29.75601738 4.92953678 32.18709285 9.2924351 34.65820312 13.73681641 C36.90674919 17.52939683 39.70069084 20.85513824 42.5 24.25 C42.99338867 24.86883057 43.48677734 25.48766113 43.99511719 26.12524414 C46.50871631 29.26985232 49.07920288 32.21697633 52 35 C52.24234375 34.45601563 52.4846875 33.91203125 52.734375 33.3515625 C54.62400335 29.84058636 57.08552898 26.81629068 59.5871582 23.7199707 C62.31172946 20.31460876 64.71714349 16.88532049 66.96484375 13.14453125 C74.70401375 0.91141769 74.70401375 0.91141769 80.87646484 -0.79541016 C87.63543292 -1.54804404 94.29372147 -1.01400179 101 0 C99.74349699 2.64185966 98.38803366 4.98660698 96.63671875 7.328125 C96.16862793 7.95485107 95.70053711 8.58157715 95.21826172 9.22729492 C94.71311035 9.8947876 94.20795898 10.56228027 93.6875 11.25 C92.89496826 12.30247925 92.89496826 12.30247925 92.08642578 13.3762207 C88.28083556 18.39532536 84.3619178 23.31169949 80.375 28.1875 C79.83818604 28.8462915 79.30137207 29.50508301 78.74829102 30.18383789 C74.46230661 35.44222332 74.46230661 35.44222332 72.43945312 37.8828125 C70.98700747 39.63995396 69.55429627 41.41151355 68.125 43.1875 C66.89136719 44.69376953 66.89136719 44.69376953 65.6328125 46.23046875 C63.79535894 48.82544495 63.79535894 48.82544495 63.9609375 51.515625 C65.31624612 54.75613735 67.17685189 56.92744775 69.5 59.5625 C70.42427907 60.63204174 71.34610267 61.70370973 72.265625 62.77734375 C72.72904297 63.3172998 73.19246094 63.85725586 73.66992188 64.41357422 C76.40941321 67.68105122 78.89332635 71.14217787 81.42578125 74.5703125 C83.4450683 77.28519579 85.51776006 79.9545868 87.60546875 82.6171875 C88.23743164 83.42333496 88.86939453 84.22948242 89.52050781 85.06005859 C90.77876032 86.66155828 92.03974238 88.26091796 93.30371094 89.85791016 C93.88282227 90.5957373 94.46193359 91.33356445 95.05859375 92.09375 C95.57736084 92.75052734 96.09612793 93.40730469 96.63061523 94.08398438 C97.98958596 95.98542889 99.01631935 97.88374776 100 100 C78.96151959 101.94454494 78.96151959 101.94454494 72.89453125 97.9609375 C71.06983391 95.39859656 69.57486195 92.82491101 68.15527344 90.02148438 C65.75039928 85.81346281 62.52881752 82.1442454 59.5 78.375 C58.27761932 76.82316552 57.05861019 75.26866646 55.84375 73.7109375 C55.31974609 73.04368652 54.79574219 72.37643555 54.25585938 71.68896484 C53 70 53 70 52 68 C48.9679677 69.31899461 47.27195921 70.56627286 45.3359375 73.23828125 C44.85809814 73.88788818 44.38025879 74.53749512 43.88793945 75.20678711 C43.38866943 75.90167236 42.88939941 76.59655762 42.375 77.3125 C41.31453479 78.75835019 40.25332445 80.20365413 39.19140625 81.6484375 C38.66047363 82.37514648 38.12954102 83.10185547 37.58251953 83.85058594 C35.2040943 87.08101725 32.76370834 90.26213262 30.3125 93.4375 C29.89081543 93.98639893 29.46913086 94.53529785 29.03466797 95.10083008 C26.1320225 98.8679775 26.1320225 98.8679775 25 100 C23.29227642 100.08713831 21.58101351 100.10700007 19.87109375 100.09765625 C18.31938477 100.09282227 18.31938477 100.09282227 16.73632812 100.08789062 C15.64771484 100.07951172 14.55910156 100.07113281 13.4375 100.0625 C11.7987793 100.05573242 11.7987793 100.05573242 10.12695312 100.04882812 C7.41791505 100.03699826 4.70898401 100.02051543 2 100 C3.57075726 95.81000283 5.41736268 93.07107538 8.375 89.6875 C12.40725681 84.9906099 16.19344877 80.16356326 19.875 75.1875 C25.72165611 67.29804784 31.81824864 59.62854423 38 52 C36.44221201 46.93718904 33.34822776 43.47906713 30 39.5 C28.81375222 38.06622164 27.62887096 36.63131165 26.4453125 35.1953125 C25.85911133 34.48536133 25.27291016 33.77541016 24.66894531 33.04394531 C22.34543469 30.19835858 20.10015885 27.29779341 17.875 24.375 C15.27997613 20.96743587 12.67330908 17.57539108 10.0078125 14.22265625 C9.50652832 13.59117676 9.00524414 12.95969727 8.48876953 12.30908203 C7.52132539 11.0928756 6.55109772 9.87887633 5.57763672 8.66748047 C3.36220654 5.87843394 1.52316621 3.21292872 0 0 Z " fill="#5B2BE4" transform="translate(415,287)"/>
<path d="M0 0 C6.69048777 4.53592391 11.37000921 11.10471132 13.88671875 18.78125 C14.87714818 28.59550521 13.91871387 37.85297348 8.13671875 46.03125 C2.01953123 53.47107266 -4.02757853 58.04400925 -13.81640625 59.0625 C-22.63802265 59.35819664 -30.15145526 57.35071079 -37.11328125 51.78125 C-43.90673342 45.26021696 -47.20828515 38.63684534 -47.63720703 29.23120117 C-47.810718 18.49219012 -45.7121433 11.4606028 -38.36328125 3.40625 C-27.65255794 -6.42850337 -12.54012275 -7.23201164 0 0 Z " fill="#F3F1FE" transform="translate(760.11328125,310.21875)"/>
<path d="M0 0 C0 22.11 0 44.22 0 67 C5.28 67 10.56 67 16 67 C13.02852501 70.71434374 10.98501329 73.01973728 7.375 75.8125 C6.50746094 76.48925781 5.63992188 77.16601562 4.74609375 77.86328125 C3.83988281 78.56839844 2.93367187 79.27351563 2 80 C-0.6917888 82.17342507 -3.37962205 84.35164347 -6.06640625 86.53125 C-8 88 -8 88 -9 88 C-9.16221221 77.26472558 -9.28658003 66.52974279 -9.3626852 55.79349232 C-9.39921307 50.80809549 -9.44875448 45.82353722 -9.52807617 40.83862305 C-9.60415312 36.02749589 -9.64599365 31.21717501 -9.6641407 26.40549278 C-9.67707193 24.57017 -9.70232487 22.73489122 -9.7401104 20.89991188 C-9.79096488 18.32789539 -9.79792294 15.75920619 -9.79467773 13.18676758 C-9.81984467 12.42863266 -9.8450116 11.67049774 -9.87094116 10.88938904 C-9.82943973 7.84773144 -9.60311657 5.63230289 -7.45851326 3.38391685 C-2.89232447 0 -2.89232447 0 0 0 Z " fill="#5B2BE4" transform="translate(614,287)"/>
<path d="M0 0 C0.18559753 10.57027399 0.32762624 21.14015863 0.41449738 31.71173191 C0.45619828 36.62098928 0.51273084 41.52912965 0.60351562 46.43774414 C0.69062741 51.17758544 0.73831248 55.91635456 0.75901794 60.65693474 C0.77376706 62.46273616 0.80257088 64.26848074 0.84584045 66.07382393 C1.1717193 80.23759122 1.1717193 80.23759122 -1.79907227 84.70602417 C-6.59632003 89 -6.59632003 89 -9 89 C-9 66.23 -9 43.46 -9 20 C-14.28 20 -19.56 20 -25 20 C-19.37252862 14.37252862 -19.37252862 14.37252862 -16.84375 12.24609375 C-16.29589844 11.78396484 -15.74804688 11.32183594 -15.18359375 10.84570312 C-14.62800781 10.38099609 -14.07242188 9.91628906 -13.5 9.4375 C-12.66662109 8.73463867 -12.66662109 8.73463867 -11.81640625 8.01757812 C-10.2163968 6.67168782 -8.60877695 5.33538669 -7 4 C-6.0821875 3.22785156 -5.164375 2.45570313 -4.21875 1.66015625 C-2 0 -2 0 0 0 Z " fill="#5F30E4" transform="translate(597,300)"/>
<path d="M0 0 C3.89784981 4.84282641 6.12818458 10.43861077 8.6875 16.0625 C9.19861328 17.16400391 9.70972656 18.26550781 10.23632812 19.40039062 C10.71908203 20.45548828 11.20183594 21.51058594 11.69921875 22.59765625 C12.14096436 23.56195557 12.58270996 24.52625488 13.0378418 25.51977539 C14 28 14 28 14 31 C4.76 31 -4.48 31 -14 31 C-10.6227333 20.86819991 -10.6227333 20.86819991 -8.5546875 16.5625 C-8.11769531 15.64855469 -7.68070312 14.73460937 -7.23046875 13.79296875 C-6.55951172 12.41044922 -6.55951172 12.41044922 -5.875 11 C-5.41996094 10.04738281 -4.96492188 9.09476562 -4.49609375 8.11328125 C-1.14721411 1.14721411 -1.14721411 1.14721411 0 0 Z " fill="#F1EEFE" transform="translate(300,314)"/>
</svg>
