<?xml version="1.0" encoding="UTF-8"?>
<svg class="" version="1.1" xmlns="http://www.w3.org/2000/svg" width="770" height="331">
<path d="M0 0 C6.17081464 3.8098073 10.33421326 9.54339347 12.4375 16.4375 C12.85706094 19.8302459 13.1816821 23.08575071 12.4375 26.4375 C10.60546875 28.2421875 10.60546875 28.2421875 8.4375 29.4375 C5.3125 29.3125 5.3125 29.3125 2.4375 28.4375 C0.4375 25.4375 0.4375 25.4375 -0.375 21.5625 C-1.34693634 17.34040854 -3.19282813 15.21747929 -6.5625 12.4375 C-9.62679776 10.90535112 -12.1790642 11.20811452 -15.5625 11.4375 C-19.272018 13.12364455 -21.44029323 14.97867478 -23.5625 18.4375 C-24.01093474 21.18826875 -24.01093474 21.18826875 -23.94104004 24.25314331 C-23.94924271 25.44163376 -23.95744537 26.63012421 -23.96589661 27.85462952 C-23.95974838 29.15540939 -23.95360016 30.45618927 -23.94726562 31.79638672 C-23.9513719 33.18311509 -23.9568331 34.56984002 -23.96354675 35.95655823 C-23.97527341 38.94293524 -23.97775524 41.92912743 -23.97319031 44.91552353 C-23.96637093 49.64967991 -23.98226925 54.38359438 -24.00158691 59.1177063 C-24.03945744 69.18262443 -24.05222255 79.2475216 -24.0625 89.3125 C-24.07358939 100.14547264 -24.08918335 110.97833318 -24.13321257 121.81122983 C-24.15143905 126.50402126 -24.15550719 131.19653537 -24.14827728 135.88935351 C-24.14673981 138.83021274 -24.15763773 141.77093733 -24.17165565 144.71175957 C-24.17747494 146.6961972 -24.16863117 148.68066154 -24.15910339 150.66508484 C-24.2455334 163.48511136 -25.95042765 174.89018124 -33.5625 185.4375 C-34.284375 186.489375 -35.00625 187.54125 -35.75 188.625 C-44.01053549 196.88553549 -54.2230964 201.74134678 -65.90698242 201.90600586 C-66.74205322 201.89577393 -67.57712402 201.88554199 -68.4375 201.875 C-69.31446533 201.86670166 -70.19143066 201.85840332 -71.0949707 201.84985352 C-83.45308276 201.52816482 -91.81069872 197.10908186 -100.53515625 188.48828125 C-108.79186637 179.56542467 -111.72665825 170.17929196 -111.92578125 158.109375 C-111.5625 155.4375 -111.5625 155.4375 -110.46842957 153.79179382 C-107.58890576 151.74569444 -105.20572937 152.07833241 -101.7043457 152.09692383 C-101.01140411 152.09648575 -100.31846252 152.09604767 -99.60452271 152.09559631 C-97.31548832 152.09768535 -95.02718758 152.12102074 -92.73828125 152.14453125 C-91.15073548 152.15012682 -89.56318452 152.1543971 -87.97563171 152.15739441 C-83.79814337 152.16884632 -79.62096817 152.19831627 -75.44360352 152.23150635 C-71.18054439 152.26219989 -66.91743465 152.2758982 -62.65429688 152.29101562 C-54.29022092 152.32318583 -45.92639942 152.37438613 -37.5625 152.4375 C-37.56526538 151.76034974 -37.56803076 151.08319948 -37.57087994 150.38552952 C-37.63722795 133.88392954 -37.68682339 117.38237199 -37.71793652 100.88066959 C-37.73338378 92.90045941 -37.75443218 84.92033845 -37.78881836 76.94018555 C-37.81878647 69.98201623 -37.83809056 63.02391155 -37.84476548 56.06567949 C-37.84866524 52.38374764 -37.85778511 48.70200066 -37.87969017 45.02012825 C-37.90398599 40.90274087 -37.90446525 36.78567179 -37.90307617 32.66821289 C-37.913862 31.45692215 -37.92464783 30.24563141 -37.9357605 28.99763489 C-37.90223987 19.80095084 -36.6474612 11.67367008 -30.5625 4.4375 C-22.0443339 -1.9252597 -10.09214379 -4.59447791 0 0 Z M-98.5625 164.4375 C-94.84902145 175.57793564 -91.05634052 181.94572346 -80.5625 187.4375 C-73.26215765 190.29073353 -65.79244104 190.8592864 -58.296875 188.33984375 C-49.49779455 184.19454831 -43.45657612 179.09436767 -39.19140625 170.33203125 C-38.35246439 168.13748226 -38.35246439 168.13748226 -38.5625 164.4375 C-58.3625 164.4375 -78.1625 164.4375 -98.5625 164.4375 Z " fill="#000000" transform="translate(542.5625,65.5625)"/>
<path d="M0 0 C1.15807915 -0.00574036 1.15807915 -0.00574036 2.33955383 -0.01159668 C3.97272037 -0.014315 5.60593051 -0.00695921 7.23901367 0.00976562 C9.71309234 0.03103347 12.18421891 0.01004027 14.65820312 -0.015625 C31.98871002 -0.04709813 31.98871002 -0.04709813 38.61181641 5.94311523 C42.83738885 10.62662041 44.54608837 15.10091898 44.3671875 21.41015625 C43.58498618 26.65380216 41.17326433 30.51081084 37.30078125 34.03125 C36.55828125 34.52625 35.81578125 35.02125 35.05078125 35.53125 C35.59347656 35.89476562 36.13617188 36.25828125 36.6953125 36.6328125 C42.66140569 40.82520231 45.23642608 44.04115642 46.92578125 51.28125 C47.44170088 57.27738258 46.1780404 62.98697309 42.27734375 67.65234375 C35.85357185 73.57156651 29.80117312 74.84314719 21.29296875 74.8671875 C20.46749542 74.8738443 19.64202209 74.8805011 18.79153442 74.88735962 C17.05521867 74.89744147 15.31886452 74.90217803 13.58251953 74.90185547 C10.92676592 74.90624837 8.27264975 74.94266683 5.6171875 74.98046875 C3.92578691 74.98633395 2.23437846 74.99030533 0.54296875 74.9921875 C-0.2487674 75.00655853 -1.04050354 75.02092957 -1.85623169 75.03573608 C-5.20486166 75.0079336 -7.41838291 74.92245668 -10.15731812 72.90396118 C-12.50055653 69.80120656 -12.45610956 67.94921566 -12.46679688 64.08203125 C-12.47940552 62.77387451 -12.49201416 61.46571777 -12.50500488 60.11791992 C-12.49784508 58.69319113 -12.48964109 57.26846726 -12.48046875 55.84375 C-12.48316424 54.37931053 -12.48704713 52.91487281 -12.49206543 51.45043945 C-12.49795794 48.3837782 -12.48940621 45.31758351 -12.47070312 42.25097656 C-12.44791285 38.32311364 -12.46103738 34.39634394 -12.48499298 30.46852112 C-12.49945816 27.44526963 -12.49484186 24.42227667 -12.48448181 21.39901733 C-12.48181647 19.95095693 -12.48507757 18.50287294 -12.49440002 17.05484009 C-12.50457534 15.0300543 -12.48631207 13.00518606 -12.46679688 10.98046875 C-12.4636145 9.82893311 -12.46043213 8.67739746 -12.45715332 7.4909668 C-11.23632381 0.3772364 -6.27597354 -0.06880264 0 0 Z M3.05078125 11.53125 C3.05078125 18.13125 3.05078125 24.73125 3.05078125 31.53125 C5.73203125 31.61375 8.41328125 31.69625 11.17578125 31.78125 C12.00867676 31.81766602 12.84157227 31.85408203 13.69970703 31.89160156 C18.95488877 31.96934465 21.90429456 31.03496824 26.05078125 27.53125 C28.55109779 23.78077518 28.58681679 21.97268734 28.05078125 17.53125 C25.50940966 14.37170695 23.90455466 12.81584114 20.05078125 11.53125 C18.71552408 11.45151524 17.37666042 11.42353662 16.0390625 11.43359375 C15.35626221 11.43609131 14.67346191 11.43858887 13.9699707 11.44116211 C13.10976318 11.45026611 12.24955566 11.45937012 11.36328125 11.46875 C8.62015625 11.489375 5.87703125 11.51 3.05078125 11.53125 Z M3.05078125 41.53125 C3.05078125 48.79125 3.05078125 56.05125 3.05078125 63.53125 C5.87640625 63.593125 8.70203125 63.655 11.61328125 63.71875 C12.48927979 63.74606201 13.36527832 63.77337402 14.26782227 63.80151367 C19.63662377 63.85789973 23.30563372 63.08727019 28.05078125 60.53125 C30.30899138 57.83596694 30.96287969 56.04767167 31.55078125 52.59375 C30.90347156 48.62897815 29.26925993 45.8796784 26.05078125 43.53125 C20.78431186 41.58891352 16.1285274 41.2761001 10.61328125 41.40625 C6.86984375 41.468125 6.86984375 41.468125 3.05078125 41.53125 Z " fill="#000000" transform="translate(83.94921875,124.46875)"/>
<path d="M0 0 C6.34635239 5.54410468 9.54713877 12.83666915 10.16015625 21.1796875 C10.47608735 29.998286 8.64059236 38.03220944 3 45 C-2.51135688 50.08740636 -7.12670457 51.4044938 -14.49609375 51.26171875 C-19.36253118 50.75305836 -22.94638209 48.70241194 -27 46 C-27.03738281 47.15757812 -27.07476563 48.31515625 -27.11328125 49.5078125 C-27.17897425 51.04690561 -27.24542042 52.5859667 -27.3125 54.125 C-27.34633789 55.26582031 -27.34633789 55.26582031 -27.38085938 56.4296875 C-27.61222999 61.30950413 -28.44316328 64.70890138 -31 69 C-32.43583001 69.10836453 -33.8740202 69.18576167 -35.3125 69.25 C-36.11300781 69.29640625 -36.91351562 69.3428125 -37.73828125 69.390625 C-40 69 -40 69 -41.61709595 67.3614502 C-43.38653129 64.33995826 -43.3805914 62.31960487 -43.38818359 58.82617188 C-43.39764008 57.57807739 -43.40709656 56.32998291 -43.4168396 55.04406738 C-43.41146972 53.68562502 -43.40531673 52.32718556 -43.3984375 50.96875 C-43.40045927 49.57157235 -43.40337157 48.17439573 -43.40713501 46.77722168 C-43.41155357 43.851867 -43.40514271 40.92678749 -43.39111328 38.00146484 C-43.37402125 34.25535935 -43.383865 30.50989868 -43.40183067 26.76381683 C-43.41268139 23.87956908 -43.40921635 20.99547371 -43.4014473 18.11122131 C-43.39944883 16.73014754 -43.40189217 15.34905983 -43.40888596 13.96800232 C-43.41652067 12.03661368 -43.40281691 10.10517642 -43.38818359 8.17382812 C-43.38579681 7.07558716 -43.38341003 5.97734619 -43.38095093 4.8458252 C-42.95519555 1.66529645 -42.21675524 0.28381923 -40 -2 C-37.29375396 -2.69292993 -34.74101787 -2.48640192 -32 -2 C-29.82523599 -0.45661909 -29.18167363 0.63665273 -28 3 C-27.319375 2.38125 -26.63875 1.7625 -25.9375 1.125 C-18.30941527 -4.39318896 -8.09835712 -4.74500013 0 0 Z M-25 10 C-27.85737406 14.57990452 -28.40765904 18.14391795 -28.375 23.5 C-28.38273438 24.7684375 -28.39046875 26.036875 -28.3984375 27.34375 C-27.88769131 32.03059742 -26.54069353 35.45930647 -23.1875 38.8125 C-20.33497128 40.36101559 -18.25369696 40.86985212 -15 41 C-10.854175 39.45547696 -8.22280553 37.86066223 -6 34 C-4.06328652 27.87836018 -3.87423641 20.02494076 -6.1875 14 C-8.1724839 10.71450941 -9.67982618 8.93033361 -13 7 C-17.78641473 6.28712972 -20.9973055 7.331537 -25 10 Z " fill="#000000" transform="translate(693,149)"/>
<path d="M0 0 C7.62324198 7.97781137 8.99622762 14.54098035 8.90625 25.39453125 C8.628767 29.7302032 7.86518068 32.07933312 5.6875 35.8125 C4.82125 37.359375 4.82125 37.359375 3.9375 38.9375 C-0.38918701 44.46604451 -5.34643771 47.57658572 -12.3125 48.8125 C-22.70418451 49.55761438 -29.84211441 48.82475352 -38.0625 42.3125 C-44.03566529 36.67977418 -46.38727472 29.9304372 -46.8125 21.8125 C-46.44265085 14.3081415 -44.15813115 7.31094744 -38.9375 1.8125 C-28.24407536 -7.73846474 -11.7585267 -7.7650648 0 0 Z M-27.3125 8.8125 C-31.18446354 14.15313937 -31.9631848 19.28199074 -31.3125 25.8125 C-30.33903078 30.04364182 -29.02117141 33.04477264 -26.0625 36.25 C-22.64478077 38.19188593 -20.24590992 38.74349281 -16.3125 38.8125 C-12.30689329 37.55583907 -10.61207199 36.17513978 -7.9375 32.9375 C-4.94996366 27.02519068 -5.22736933 19.54372469 -7.04296875 13.30078125 C-8.9245347 9.14597644 -10.92212353 6.48502437 -15.3125 4.8125 C-20.55655915 4.03146991 -23.27483447 5.49264168 -27.3125 8.8125 Z " fill="#000000" transform="translate(573.3125,151.1875)"/>
<path d="M0 0 C5.37801361 5.82618142 7.69990507 12.5201697 8.5 20.30859375 C8.25 22.4375 8.25 22.4375 7.23120117 24.05224609 C4.14993911 26.20666149 0.92146072 25.80520838 -2.69921875 25.73046875 C-3.47183548 25.72622391 -4.24445221 25.72197906 -5.04048157 25.71760559 C-7.50650992 25.70082183 -9.97171896 25.66317147 -12.4375 25.625 C-14.11001423 25.60995271 -15.78254128 25.59626438 -17.45507812 25.58398438 C-21.55370078 25.55091946 -25.65171151 25.49914028 -29.75 25.4375 C-29.12209105 26.73222157 -28.4897263 28.02478287 -27.85546875 29.31640625 C-27.50379639 30.03642822 -27.15212402 30.7564502 -26.78979492 31.49829102 C-25.40236978 34.0858275 -24.44083217 35.20117171 -21.75 36.4375 C-14.75183717 38.26248292 -9.42984492 36.69435762 -2.75 34.4375 C0.75 33.625 0.75 33.625 3.25 33.4375 C5.25 35.4375 5.25 35.4375 5.3125 38.75 C4.07415684 43.04777919 2.94903921 44.16597587 -0.7421875 46.4375 C-8.26869278 50.18610963 -17.45957825 50.79495912 -25.56640625 48.71484375 C-34.13379832 45.56112416 -39.08784325 40.02802917 -43 31.8125 C-44.93723058 23.09496241 -44.54800502 15.08298575 -39.75 7.4375 C-30.39013759 -6.49057112 -14.04261651 -7.97875938 0 0 Z M-27.0625 10.9375 C-29.02973643 13.34921898 -29.02973643 13.34921898 -28.75 16.4375 C-20.83 16.4375 -12.91 16.4375 -4.75 16.4375 C-6.70023444 10.58679667 -7.04414731 9.61395056 -11.75 6.4375 C-17.92076425 3.35211787 -22.81522739 6.34585393 -27.0625 10.9375 Z " fill="#000000" transform="translate(182.75,150.5625)"/>
<path d="M0 0 C4.87989453 5.43637374 5.64586184 11.53437951 5.63671875 18.55859375 C5.64100388 19.2952829 5.645289 20.03197205 5.64970398 20.79098511 C5.65541746 22.33899919 5.65596967 23.8870401 5.65161133 25.43505859 C5.64843732 27.80091849 5.67199412 30.16554308 5.69726562 32.53125 C5.69953757 34.04036301 5.7002426 35.54947937 5.69921875 37.05859375 C5.7084285 37.76283478 5.71763824 38.46707581 5.72712708 39.19265747 C5.69776869 42.3083488 5.50020832 44.38973085 3.93432617 47.11645508 C1.97966079 49.02335103 1.03938205 49.24340141 -1.6640625 49.23828125 C-3.7890625 49.1484375 -3.7890625 49.1484375 -5.6640625 48.67578125 C-7.6640625 46.17578125 -7.6640625 46.17578125 -8.6640625 43.67578125 C-9.5715625 44.48015625 -10.4790625 45.28453125 -11.4140625 46.11328125 C-15.82814059 50.02575956 -20.43577571 49.9704987 -26.1328125 49.88671875 C-31.38594326 49.44895785 -35.11405866 47.59843522 -38.5390625 43.67578125 C-41.75615932 39.1339975 -42.2236254 35.12633835 -41.6640625 29.67578125 C-39.9273027 24.75496182 -37.23719022 21.21941442 -32.6640625 18.67578125 C-24.74212484 15.74173027 -17.03706782 15.27494589 -8.6640625 15.67578125 C-9.26267992 13.32406994 -9.93330602 10.98984345 -10.6640625 8.67578125 C-14.94114209 6.53724146 -20.65043119 7.10271951 -25.1484375 8.3828125 C-26.66244135 8.93913271 -28.17430518 9.50132407 -29.68359375 10.0703125 C-32.29328852 10.86814818 -34.12619324 10.62748222 -36.6640625 9.67578125 C-37.6640625 8.67578125 -37.6640625 8.67578125 -38.1015625 5.92578125 C-37.6640625 2.67578125 -37.6640625 2.67578125 -35.2265625 -0.07421875 C-26.3446066 -6.52816334 -8.71001635 -6.93121019 0 0 Z M-27.6640625 29.55078125 C-28.85551146 31.67102274 -28.85551146 31.67102274 -28.6015625 34.23828125 C-27.41148684 37.33247797 -26.65458793 38.2188586 -23.6640625 39.67578125 C-18.98093574 40.19612867 -16.8186868 40.37859604 -12.7890625 37.92578125 C-9.48299086 34.42523481 -8.70211769 32.81743704 -8.5390625 27.92578125 C-8.5803125 26.85328125 -8.6215625 25.78078125 -8.6640625 24.67578125 C-16.02114446 24.27610074 -22.0048269 24.24524787 -27.6640625 29.55078125 Z " fill="#000000" transform="translate(237.6640625,150.32421875)"/>
<path d="M0 0 C2.81180948 -0.00541774 3.88461235 0.42944616 6.16259766 2.13330078 C8.6896189 5.36432897 8.5789506 8.06719008 8.49609375 11.99609375 C8.50569945 13.46419376 8.51547017 14.9322927 8.52539062 16.40039062 C8.5167948 18.70235355 8.4999611 21.00403703 8.4777832 23.3059082 C8.46322587 25.53652149 8.47853797 27.7655366 8.49609375 29.99609375 C8.47961288 30.67957382 8.46313202 31.36305389 8.44615173 32.06724548 C8.48644404 35.94184672 8.98302473 37.46507662 11.46679688 40.50976562 C13.80061792 42.67762717 13.80061792 42.67762717 16.16015625 42.97265625 C20.63509196 42.18086842 23.19149243 41.35222999 26.0625 37.5625 C27.55665719 34.57418562 27.22882524 31.80281795 27.2734375 28.47265625 C27.30150153 27.03449374 27.33016596 25.59634284 27.359375 24.15820312 C27.40067198 21.88908151 27.43755591 19.62017781 27.46386719 17.35083008 C27.49145281 15.16181619 27.53731551 12.97379034 27.5859375 10.78515625 C27.60575684 9.47297119 27.62557617 8.16078613 27.64599609 6.80883789 C28.0625 3.5625 28.0625 3.5625 29.47119141 1.63818359 C31.44980188 0.30069391 32.68411534 0.12950452 35.0625 0.125 C35.743125 0.10566406 36.42375 0.08632812 37.125 0.06640625 C39.0625 0.5625 39.0625 0.5625 40.65869141 1.97631836 C42.84293014 6.0002559 42.49039498 9.9298708 42.4609375 14.4375 C42.46380768 15.39897949 42.46667786 16.36045898 42.46963501 17.35107422 C42.47167451 19.38184194 42.46615262 21.41262935 42.45361328 23.44335938 C42.43755823 26.55122823 42.45346605 29.65779658 42.47265625 32.765625 C42.4706738 34.7395862 42.46683008 36.7135466 42.4609375 38.6875 C42.47004654 40.08137939 42.47004654 40.08137939 42.4793396 41.50341797 C42.41005526 47.86075421 42.41005526 47.86075421 40.78369141 51.14453125 C38.36658059 53.13581914 36.06145197 53.16466555 33.00390625 53.03515625 C31.0625 52.5625 31.0625 52.5625 28.5625 50.0625 C28.0675 49.2375 27.5725 48.4125 27.0625 47.5625 C26.340625 48.18125 25.61875 48.8 24.875 49.4375 C19.17745242 53.74231373 14.06366328 54.28287693 7.0625 53.5625 C1.72536761 51.64918839 -2.10626168 48.40091939 -5.1875 43.625 C-7.627691 36.91447474 -7.15761607 29.59932509 -7.17773438 22.56713867 C-7.18749037 20.5020392 -7.21859142 18.43791568 -7.25 16.37304688 C-7.25515625 15.06271484 -7.2603125 13.75238281 -7.265625 12.40234375 C-7.2749707 11.20988037 -7.28431641 10.01741699 -7.29394531 8.78881836 C-6.685631 3.28274055 -5.63112519 0.80444646 0 0 Z " fill="#000000" transform="translate(419.9375,146.4375)"/>
<path d="M0 0 C0.680625 -0.0103125 1.36125 -0.020625 2.0625 -0.03125 C4.9075466 0.74884342 5.52585435 1.96368135 7 4.5 C7.40063477 7.828125 7.40063477 7.828125 7.44140625 11.75 C7.45461411 12.44512695 7.46782196 13.14025391 7.48143005 13.85644531 C7.52221655 16.07100456 7.54396268 18.28515094 7.5625 20.5 C7.58633234 22.71472241 7.61452174 24.92905853 7.65428162 27.14355469 C7.6896938 29.15283611 7.70962046 31.16237269 7.72875977 33.171875 C7.98057644 36.26167234 8.30316276 37.95531624 10 40.5 C12.61314161 42.53244348 14.08411666 42.49847061 17.4375 42.4375 C21.66623237 41.32467569 23.27557559 39.86546545 26 36.5 C27.14049257 33.0785223 27.15909371 30.35718652 27.2109375 26.75 C27.23899458 25.40623758 27.26765896 24.06248772 27.296875 22.71875 C27.3381961 20.6054708 27.37509411 18.49242928 27.40136719 16.37890625 C27.42895576 14.33544927 27.47480693 12.29304998 27.5234375 10.25 C27.54325684 9.02796875 27.56307617 7.8059375 27.58349609 6.546875 C28 3.5 28 3.5 29.40869141 1.60742188 C31.37879126 0.23639197 32.60972047 0.03621636 35 0 C35.680625 -0.0309375 36.36125 -0.061875 37.0625 -0.09375 C39 0.5 39 0.5 40.59838867 2.44116211 C42.54672808 6.69316427 42.41164894 10.41177067 42.36328125 15.03515625 C42.36402901 16.40866493 42.36402901 16.40866493 42.36479187 17.80992126 C42.36245685 19.74057187 42.35276213 21.67122583 42.33618164 23.60180664 C42.31255377 26.55577812 42.31562954 29.50884841 42.32226562 32.46289062 C42.3166896 34.34115121 42.30958019 36.219408 42.30078125 38.09765625 C42.30214836 39.42120872 42.30214836 39.42120872 42.30354309 40.77149963 C42.29401108 41.59593063 42.28447906 42.42036163 42.2746582 43.26977539 C42.27005081 43.99193741 42.26544342 44.71409943 42.26069641 45.45814514 C41.95533742 47.84981109 41.26144854 49.45255901 40 51.5 C36.95016004 53.02491998 34.3576631 52.73562548 31 52.5 C28.89641619 50.95737187 28.15945841 49.81891683 27 47.5 C26.278125 48.11875 25.55625 48.7375 24.8125 49.375 C19.14367499 53.65811223 13.97671374 54.34018351 7 53.5 C1.43335838 51.8860605 -1.89623179 49.04460343 -5.08984375 44.28125 C-7.28897064 39.97737935 -7.1747695 35.55310927 -7.203125 30.8125 C-7.21167511 29.70322144 -7.21167511 29.70322144 -7.22039795 28.5715332 C-7.22982159 27.01157044 -7.23637143 25.45158801 -7.24023438 23.89160156 C-7.24996688 21.5081121 -7.28102446 19.1254758 -7.3125 16.7421875 C-7.31902819 15.22396343 -7.32427938 13.70573323 -7.328125 12.1875 C-7.3404718 11.47698486 -7.3528186 10.76646973 -7.36553955 10.03442383 C-7.35144002 6.89846195 -7.17198276 4.80075979 -5.60058594 2.05273438 C-3.63541684 0.14631652 -2.70800443 -0.04103037 0 0 Z " fill="#000000" transform="translate(261,146.5)"/>
<path d="M0 0 C0.680625 -0.01933594 1.36125 -0.03867188 2.0625 -0.05859375 C4 0.4375 4 0.4375 5.59570312 2.01757812 C7.51486124 5.32472263 7.38526928 7.84124313 7.40625 11.65234375 C7.41708618 12.34509903 7.42792236 13.03785431 7.43908691 13.75160217 C7.47326894 15.95949683 7.48892205 18.16687589 7.5 20.375 C7.51461138 23.28044061 7.54837058 26.1847386 7.59375 29.08984375 C7.60083984 30.37882568 7.60792969 31.66780762 7.61523438 32.99584961 C8.0253176 36.66396082 8.70639525 38.56882914 11 41.4375 C15.08251935 42.66995867 17.28999173 42.69203126 21.3125 41.25 C24.20892883 39.29659451 24.83152768 38.63027439 26 35.4375 C26.31873946 32.11211702 26.31873946 32.11211702 26.30859375 28.40625 C26.33374509 27.02473521 26.35914324 25.64322489 26.38476562 24.26171875 C26.41352879 22.09587684 26.4375639 19.93011231 26.45629883 17.76416016 C26.47797836 15.66529511 26.51740457 13.56730966 26.55859375 11.46875 C26.57204834 10.21642578 26.58550293 8.96410156 26.59936523 7.67382812 C27.02220777 4.2581056 27.59024064 2.84430577 30 0.4375 C31.9375 -0.05859375 31.9375 -0.05859375 34 0 C35.0209375 0.00193359 35.0209375 0.00193359 36.0625 0.00390625 C38.58641298 0.56873355 39.39306792 1.42749809 41 3.4375 C41.38095093 5.52441406 41.38095093 5.52441406 41.38818359 7.953125 C41.39764008 8.86416992 41.40709656 9.77521484 41.4168396 10.71386719 C41.41076691 11.69516602 41.40469421 12.67646484 41.3984375 13.6875 C41.40130768 14.6971582 41.40417786 15.70681641 41.40713501 16.74707031 C41.40917688 18.88216716 41.40363846 21.01728266 41.39111328 23.15234375 C41.37506178 26.42490371 41.39095825 29.69622856 41.41015625 32.96875 C41.40817384 35.0416694 41.40433021 37.11458803 41.3984375 39.1875 C41.40754654 40.65944824 41.40754654 40.65944824 41.4168396 42.16113281 C41.40738312 43.07217773 41.39792664 43.98322266 41.38818359 44.921875 C41.38579681 45.72334961 41.38341003 46.52482422 41.38095093 47.35058594 C40.89814095 49.99550123 40.16563688 50.87145217 38 52.4375 C30.97560976 53.2179878 30.97560976 53.2179878 27.5 50.4375 C26.7575 49.4475 26.7575 49.4475 26 48.4375 C25.0925 49.076875 24.185 49.71625 23.25 50.375 C17.99259726 53.71142866 13.12082911 53.98733719 7 53.4375 C0.94774501 51.69362992 -2.53614126 48.5519223 -6 43.4375 C-7.25996724 39.65759827 -7.18178062 36.09595675 -7.203125 32.15625 C-7.20882507 31.3463562 -7.21452515 30.5364624 -7.22039795 29.70202637 C-7.22983733 27.99065453 -7.23637771 26.27926461 -7.24023438 24.56787109 C-7.24996372 21.94727118 -7.28100579 19.32744792 -7.3125 16.70703125 C-7.31902799 15.04427549 -7.32427926 13.38151413 -7.328125 11.71875 C-7.3404718 10.93431519 -7.3528186 10.14988037 -7.36553955 9.3416748 C-7.34330052 3.92579887 -7.34330052 3.92579887 -5.60058594 1.44702148 C-3.61692733 0.19588843 -2.33879045 0.00442953 0 0 Z " fill="#000000" transform="translate(598,146.5625)"/>
<path d="M0 0 C1.23492187 -0.01417969 2.46984375 -0.02835937 3.7421875 -0.04296875 C6.88011351 0.17081605 8.60503225 0.35701495 11.125 2.1875 C12.0625 5.125 12.0625 5.125 12.125 8.1875 C10.953125 9.8671875 10.953125 9.8671875 9.125 11.1875 C6.64453125 11.48046875 6.64453125 11.48046875 3.9375 11.375 C2.349375 11.313125 0.76125 11.25125 -0.875 11.1875 C-1.535 15.1475 -2.195 19.1075 -2.875 23.1875 C-0.3359375 23.12239583 2.203125 23.05729167 4.7421875 22.9921875 C7.125 23.1875 7.125 23.1875 9.125 25.1875 C9.375 27.6875 9.375 27.6875 9.125 30.1875 C7.125 32.1875 7.125 32.1875 4.7421875 32.3828125 C3.38480469 32.34800781 3.38480469 32.34800781 2 32.3125 C1.08992188 32.29445312 0.17984375 32.27640625 -0.7578125 32.2578125 C-1.45648438 32.23460937 -2.15515625 32.21140625 -2.875 32.1875 C-2.85928955 33.3835083 -2.8435791 34.5795166 -2.82739258 35.81176758 C-2.77312939 40.24529293 -2.7386631 44.67878888 -2.71020508 49.11254883 C-2.6951102 51.03219538 -2.67463227 52.9518074 -2.64868164 54.87133789 C-2.61232891 57.62915564 -2.59528088 60.3865178 -2.58203125 63.14453125 C-2.56654739 64.00399857 -2.55106354 64.86346588 -2.53511047 65.74897766 C-2.53488388 66.54958115 -2.53465729 67.35018463 -2.53442383 68.17504883 C-2.52776199 68.8789827 -2.52110016 69.58291656 -2.51423645 70.30818176 C-2.99282332 72.80127464 -3.86568815 73.67292614 -5.875 75.1875 C-9.61745878 75.66381294 -11.88592971 75.84878422 -15.07324219 73.71777344 C-17.73359994 69.98173715 -17.37664434 66.74203314 -17.265625 62.265625 C-17.25996521 61.40563904 -17.25430542 60.54565308 -17.24847412 59.65960693 C-17.22611951 56.91833351 -17.17592602 54.17837696 -17.125 51.4375 C-17.10493376 49.57684182 -17.08668321 47.71616311 -17.0703125 45.85546875 C-17.02625784 41.29897334 -16.95723754 36.74345978 -16.875 32.1875 C-17.98875 32.22875 -19.1025 32.27 -20.25 32.3125 C-23.875 32.1875 -23.875 32.1875 -25.875 30.1875 C-26.125 27.6875 -26.125 27.6875 -25.875 25.1875 C-23.875 23.1875 -23.875 23.1875 -20.25 23.0625 C-18.579375 23.124375 -18.579375 23.124375 -16.875 23.1875 C-16.936875 21.888125 -16.99875 20.58875 -17.0625 19.25 C-17.0464918 14.17539983 -16.18819383 9.7319241 -13.875 5.1875 C-9.26561599 0.69053999 -6.33405179 0.03292127 0 0 Z " fill="#000000" transform="translate(397.875,123.8125)"/>
<path d="M0 0 C1 1 1 1 1.09765625 4.59765625 C1.0909822 6.08596867 1.07902183 7.57426432 1.0625 9.0625 C1.05798828 9.82111328 1.05347656 10.57972656 1.04882812 11.36132812 C1.0370068 13.24091871 1.01907078 15.12046899 1 17 C1.69867188 16.96519531 2.39734375 16.93039063 3.1171875 16.89453125 C4.02726562 16.86746094 4.93734375 16.84039062 5.875 16.8125 C6.77992188 16.77769531 7.68484375 16.74289063 8.6171875 16.70703125 C9.79667969 16.85205078 9.79667969 16.85205078 11 17 C13 20 13 20 12.75 23.125 C12.5025 24.07375 12.255 25.0225 12 26 C9.59454362 27.20272819 8.05003047 27.10071472 5.375 27.0625 C4.14910156 27.04896484 4.14910156 27.04896484 2.8984375 27.03515625 C2.27195312 27.02355469 1.64546875 27.01195312 1 27 C1.13861026 31.43775675 1.28711864 35.87512777 1.4375 40.3125 C1.47681641 41.57513672 1.51613281 42.83777344 1.55664062 44.13867188 C1.59853516 45.34716797 1.64042969 46.55566406 1.68359375 47.80078125 C1.72025146 48.91622314 1.75690918 50.03166504 1.79467773 51.1809082 C1.88931209 54.07873571 1.88931209 54.07873571 3 57 C3.61488281 57.03738281 4.22976563 57.07476562 4.86328125 57.11328125 C5.67152344 57.17902344 6.47976563 57.24476563 7.3125 57.3125 C8.51326172 57.39951172 8.51326172 57.39951172 9.73828125 57.48828125 C12.41109031 58.09301007 13.38866591 58.80462248 15 61 C15 64 15 64 14 67 C10.8567481 70.1432519 7.75186434 70.21508532 3.5 70.3125 C-0.46890352 70.29577709 -3.43184696 69.77808969 -7 68 C-12.59317824 62.15258639 -13.13000908 58.7222152 -13.09765625 50.828125 C-13.0962413 50.1457074 -13.09482635 49.46328979 -13.09336853 48.76019287 C-13.08779084 46.59008316 -13.07524254 44.4200783 -13.0625 42.25 C-13.05748211 40.77474108 -13.05291971 39.29948053 -13.04882812 37.82421875 C-13.03782875 34.21611202 -13.02057953 30.60806625 -13 27 C-13.95132812 27.02449219 -14.90265625 27.04898438 -15.8828125 27.07421875 C-19 27 -19 27 -20.875 25.8125 C-22.38332602 23.38241919 -22.36023622 21.80984248 -22 19 C-20 17 -20 17 -18.0546875 16.8046875 C-16.03645833 16.86979167 -14.01822917 16.93489583 -12 17 C-12.05220703 15.55367187 -12.05220703 15.55367187 -12.10546875 14.078125 C-12.13253906 12.81484375 -12.15960938 11.5515625 -12.1875 10.25 C-12.23970703 8.37054688 -12.23970703 8.37054688 -12.29296875 6.453125 C-11.98522945 2.82590442 -11.59101831 1.48834393 -9 -1 C-5.21801096 -2.26066301 -3.63636792 -1.42292658 0 0 Z " fill="#000000" transform="translate(331,130)"/>
<path d="M0 0 C3.6875 0.3125 3.6875 0.3125 5.88562012 1.92895508 C8.23693699 5.0393008 8.19436134 6.88387133 8.20507812 10.76171875 C8.21768677 12.06987549 8.23029541 13.37803223 8.24328613 14.72583008 C8.23612633 16.15055887 8.22792234 17.57528274 8.21875 19 C8.22144549 20.46443947 8.22532838 21.92887719 8.23034668 23.39331055 C8.23623919 26.4599718 8.22768746 29.52616649 8.20898438 32.59277344 C8.1861941 36.52063636 8.19931863 40.44740606 8.22327423 44.37522888 C8.23773941 47.39848037 8.23312311 50.42147333 8.22276306 53.44473267 C8.22009772 54.89279307 8.22335882 56.34087706 8.23268127 57.78890991 C8.24285659 59.8136957 8.22459332 61.83856394 8.20507812 63.86328125 C8.20189575 65.01481689 8.19871338 66.16635254 8.19543457 67.3527832 C7.57609961 70.96162615 6.6018258 72.15132187 3.6875 74.3125 C-2.26772388 75.04384328 -2.26772388 75.04384328 -5.1875 73 C-7.49701379 69.53572931 -7.44810105 66.39708227 -7.47363281 62.35986328 C-7.48324036 61.13494171 -7.4928479 59.91002014 -7.50274658 58.64797974 C-7.50759455 57.30959255 -7.51187338 55.97120321 -7.515625 54.6328125 C-7.52137917 53.25902302 -7.52713687 51.88523355 -7.53289795 50.51144409 C-7.54339807 47.63148627 -7.54924723 44.75155629 -7.55273438 41.87158203 C-7.5582179 38.18726244 -7.5822466 34.50331263 -7.61070633 30.81910896 C-7.62936026 27.98118017 -7.63453975 25.14333999 -7.63607025 22.30535507 C-7.63909098 20.94741672 -7.64709997 19.58947971 -7.66025543 18.23160172 C-7.67737194 16.32911786 -7.67358277 14.42648098 -7.66894531 12.52392578 C-7.67259094 11.44265411 -7.67623657 10.36138245 -7.67999268 9.24734497 C-7.03569051 4.10186289 -5.23165134 0.49355201 0 0 Z " fill="#000000" transform="translate(480.3125,124.6875)"/>
<path d="M0 0 C2.61593153 1.83115207 2.96989455 2.90968366 4 6 C4.10945938 8.96368166 4.16405959 11.90312256 4.16796875 14.8671875 C4.17129715 15.73892609 4.17462555 16.61066467 4.17805481 17.50881958 C4.18311699 19.35304232 4.18546335 21.19727422 4.18530273 23.04150391 C4.18748624 25.85725075 4.20564112 28.67260388 4.22460938 31.48828125 C4.22754407 33.28124866 4.22952836 35.07421793 4.23046875 36.8671875 C4.23765427 37.70692108 4.24483978 38.54665466 4.25224304 39.41183472 C4.23564201 43.67870767 4.13362394 47.17364166 2 51 C-1.04983996 52.52491998 -3.6423369 52.23562548 -7 52 C-9.15216574 50.43706664 -9.90011845 49.54716815 -10.38095093 46.91308594 C-10.38333771 46.11161133 -10.38572449 45.31013672 -10.38818359 44.484375 C-10.39764008 43.57333008 -10.40709656 42.66228516 -10.4168396 41.72363281 C-10.41076691 40.74233398 -10.40469421 39.76103516 -10.3984375 38.75 C-10.40130768 37.7403418 -10.40417786 36.73068359 -10.40713501 35.69042969 C-10.40917688 33.55533284 -10.40363846 31.42021734 -10.39111328 29.28515625 C-10.37506178 26.01259629 -10.39095825 22.74127144 -10.41015625 19.46875 C-10.40817384 17.3958306 -10.40433021 15.32291197 -10.3984375 13.25 C-10.40451019 12.26870117 -10.41058289 11.28740234 -10.4168396 10.27636719 C-10.40738312 9.36532227 -10.39792664 8.45427734 -10.38818359 7.515625 C-10.38579681 6.71415039 -10.38341003 5.91267578 -10.38095093 5.08691406 C-9.33330962 -0.65224343 -5.03114635 -0.53905139 0 0 Z " fill="#000000" transform="translate(362,147)"/>
<path d="M0 0 C0.99 0.66 1.98 1.32 3 2 C3.77821012 9.00389105 3.77821012 9.00389105 1.4375 12 C-1.91402596 13.37498501 -4.40965387 13.38467994 -8 13 C-10.93811558 11.53094221 -11.76526505 10.65390451 -12.875 7.5625 C-13.01876202 4.61537855 -12.72397707 3.38073024 -11 1 C-7.43166413 -1.77537235 -4.22120453 -0.92099008 0 0 Z " fill="#000000" transform="translate(363,125)"/>
</svg>
