<?xml version="1.0" encoding="UTF-8"?>
<svg version="1.1" xmlns="http://www.w3.org/2000/svg" width="1200" height="1200">
<path d="M0 0 C2.65527344 1.25244141 2.65527344 1.25244141 5.359375 2.8515625 C6.88884766 3.74584961 6.88884766 3.74584961 8.44921875 4.65820312 C9.53847656 5.30724609 10.62773438 5.95628906 11.75 6.625 C12.90697352 7.30502178 14.06453713 7.98404047 15.22265625 8.66210938 C17.62665148 10.07067324 20.02805773 11.48350641 22.42773438 12.89941406 C27.9283488 16.14016978 33.46603409 19.31666323 39 22.5 C41.16684034 23.74969892 43.3335065 24.99969989 45.5 26.25 C47.10875 27.178125 47.10875 27.178125 48.75 28.125 C95.33333333 55 141.91666667 81.875 188.5 108.75 C189.57266113 109.36883057 190.64532227 109.98766113 191.75048828 110.62524414 C193.91557071 111.87435518 196.08060982 113.12354129 198.24560547 114.37280273 C203.68615706 117.51202309 209.12747216 120.64990563 214.5703125 123.78515625 C225.02206199 129.80747329 235.46299548 135.84669337 245.875 141.9375 C255.14563931 147.35958699 264.45936699 152.70324012 273.79046631 158.02023315 C282.86778636 163.19378787 291.90571533 168.43142154 300.921875 173.7109375 C308.58573974 178.19166265 316.28685835 182.60494224 324 187 C333.72124506 192.53985933 343.40894868 198.13374932 353.06689453 203.78344727 C363.57611088 209.92905044 374.12448664 216.00613649 384.67382812 222.08251953 C388.07053685 224.04066327 391.46522458 226.00226927 394.859375 227.96484375 C395.99262207 228.61976807 397.12586914 229.27469238 398.29345703 229.94946289 C400.41982403 231.17844256 402.54583722 232.40803472 404.67138672 233.63842773 C413.07780992 238.49451214 421.53660133 243.23933825 430 248 C430 413.66 430 579.32 430 750 C421.75 754.62 413.5 759.24 405 764 C396.10874034 769.17277732 396.10874034 769.17277732 387.23046875 774.3671875 C380.51538726 778.29477549 373.75941278 782.14949706 367 786 C357.27857016 791.53953103 347.59104696 797.13375187 337.93310547 802.78344727 C327.40915375 808.93766742 316.84619863 815.02369996 306.28222656 821.10888672 C300.85340058 824.23680148 295.42680719 827.36858448 290 830.5 C287.83334417 831.75001879 285.6666775 833.00001878 283.5 834.25 C281.89125 835.178125 281.89125 835.178125 280.25 836.125 C62.49999993 961.75000004 62.49999993 961.75000004 59.24829102 963.62597656 C57.08731012 964.87270256 54.92634002 966.11944727 52.76538086 967.36621094 C47.26181149 970.54145883 41.75803968 973.71635495 36.25390625 976.890625 C35.14370117 977.53128906 34.03349609 978.17195313 32.88964844 978.83203125 C30.69492339 980.09720296 28.49898433 981.36027135 26.30175781 982.62109375 C21.28635118 985.50284041 16.29493079 988.41152156 11.35546875 991.421875 C10.48784912 991.94426758 9.62022949 992.46666016 8.72631836 993.00488281 C7.12877 993.96942843 5.53901736 994.94706358 3.95922852 995.94042969 C3.25596436 996.36227539 2.5527002 996.78412109 1.828125 997.21875 C1.2290332 997.58935547 0.62994141 997.95996094 0.01269531 998.34179688 C-3.83545543 999.60024112 -7.10404162 998.42260633 -10.65527344 996.74755859 C-11.54762695 996.21984863 -12.43998047 995.69213867 -13.359375 995.1484375 C-14.88884766 994.25415039 -14.88884766 994.25415039 -16.44921875 993.34179688 C-17.53847656 992.69275391 -18.62773438 992.04371094 -19.75 991.375 C-20.90697352 990.69497822 -22.06453713 990.01595953 -23.22265625 989.33789062 C-25.62665148 987.92932676 -28.02805773 986.51649359 -30.42773438 985.10058594 C-35.9283488 981.85983022 -41.46603409 978.68333677 -47 975.5 C-49.16684034 974.25030108 -51.3335065 973.00030011 -53.5 971.75 C-54.5725 971.13125 -55.645 970.5125 -56.75 969.875 C-77.33333333 958 -97.91666667 946.125 -118.5 934.25 C-119.57266113 933.63116943 -120.64532227 933.01233887 -121.75048828 932.37475586 C-123.91557071 931.12564482 -126.08060982 929.87645871 -128.24560547 928.62719727 C-133.68615706 925.48797691 -139.12747216 922.35009437 -144.5703125 919.21484375 C-155.02206199 913.19252671 -165.46299548 907.15330663 -175.875 901.0625 C-185.14563931 895.64041301 -194.45936699 890.29675988 -203.79046631 884.97976685 C-212.86778636 879.80621213 -221.90571533 874.56857846 -230.921875 869.2890625 C-238.58573974 864.80833735 -246.28685835 860.39505776 -254 856 C-263.72124506 850.46014067 -273.40894868 844.86625068 -283.06689453 839.21655273 C-293.59084625 833.06233258 -304.15380137 826.97630004 -314.71777344 820.89111328 C-320.14659942 817.76319852 -325.57319281 814.63141552 -331 811.5 C-333.16665583 810.24998121 -335.3333225 808.99998122 -337.5 807.75 C-350.5 800.25 -363.5 792.75 -376.5 785.25 C-377.57338623 784.6307666 -378.64677246 784.0115332 -379.75268555 783.37353516 C-381.91049803 782.12858718 -384.06821353 780.8834711 -386.22583008 779.63818359 C-391.77716592 776.43447349 -397.33036541 773.2340637 -402.88671875 770.0390625 C-422.4218588 758.8002005 -422.4218588 758.8002005 -431.0625 753.625 C-431.66989014 753.26164551 -432.27728027 752.89829102 -432.90307617 752.52392578 C-436.8696895 750.1303105 -436.8696895 750.1303105 -438 749 C-438.10715668 746.35337917 -438.14836811 743.73248541 -438.14818764 741.08502674 C-438.15203785 740.24148363 -438.15588806 739.39794053 -438.15985495 738.52883551 C-438.17164567 735.66528162 -438.17620174 732.80176048 -438.18081665 729.93818665 C-438.18768911 727.87919817 -438.19497732 725.82021105 -438.20264852 723.7612254 C-438.222459 718.07428841 -438.23579492 712.38735155 -438.24799705 706.7003938 C-438.25924153 701.82974558 -438.27418023 696.95911148 -438.28912015 692.08847342 C-438.34246582 674.6384316 -438.38056059 657.18837024 -438.4140625 639.73828125 C-438.41538651 639.04954931 -438.41671053 638.36081738 -438.41807466 637.65121477 C-438.47025233 610.39879919 -438.51465024 583.14636878 -438.54586862 555.89392087 C-438.55362181 549.13964815 -438.56166906 542.38537577 -438.56982422 535.63110352 C-438.57071816 534.88474961 -438.57161211 534.1383957 -438.57253314 533.36942501 C-438.60174357 509.16703285 -438.66274065 484.9648548 -438.74120806 460.76257604 C-438.82169185 435.89317186 -438.87296926 411.02388326 -438.88632692 386.15434774 C-438.88822005 382.64334108 -438.89043328 379.1323347 -438.89283371 375.62132835 C-438.89329402 374.93030415 -438.89375432 374.23927995 -438.89422858 373.52731562 C-438.90247571 362.39552164 -438.94134966 351.26403461 -438.99144951 340.13235915 C-439.04109711 328.94704122 -439.05714267 317.76204948 -439.04102559 306.57659946 C-439.03325353 300.51386233 -439.04027712 294.45206825 -439.08630753 288.38948059 C-439.12808982 282.8429692 -439.12864198 277.29806396 -439.09587733 271.75150611 C-439.09136474 269.74132192 -439.10219808 267.73103489 -439.12962742 265.72103278 C-439.32295572 250.6579043 -439.32295572 250.6579043 -436.0203321 246.51911581 C-433.70634594 244.94201483 -431.62879841 243.93402504 -429 243 C-428.0917749 242.45472656 -427.1835498 241.90945313 -426.24780273 241.34765625 C-425.10226929 240.71150391 -425.10226929 240.71150391 -423.93359375 240.0625 C-423.04889404 239.56766113 -422.16419434 239.07282227 -421.25268555 238.56298828 C-420.32367432 238.04720215 -419.39466309 237.53141602 -418.4375 237 C-410.31054156 232.44743174 -402.22572089 227.83252148 -394.1875 223.125 C-382.58061953 216.33107444 -370.93606995 209.60410088 -359.28222656 202.89111328 C-353.85340058 199.76319852 -348.42680719 196.63141552 -343 193.5 C-340.83334417 192.24998121 -338.6666775 190.99998122 -336.5 189.75 C-334.89125 188.821875 -334.89125 188.821875 -333.25 187.875 C-63.5 32.25 -63.5 32.25 -60.24658203 30.37304688 C-58.09128689 29.1295949 -55.93601327 27.88610564 -53.78076172 26.64257812 C-48.77662326 23.75537125 -43.7722948 20.8684957 -38.76715088 17.98303223 C-37.01658759 16.97380896 -35.26609589 15.96446164 -33.515625 14.95507812 C-31.33607835 13.6983234 -29.15640168 12.44179414 -26.9765625 11.18554688 C-25.47609375 10.32026367 -25.47609375 10.32026367 -23.9453125 9.4375 C-22.96852539 8.87933594 -21.99173828 8.32117188 -20.98535156 7.74609375 C-18.89766292 6.5250315 -16.8333069 5.26358928 -14.78808594 3.97265625 C-13.21849121 2.99619141 -13.21849121 2.99619141 -11.6171875 2 C-10.68245605 1.401875 -9.74772461 0.80375 -8.78466797 0.1875 C-5.29272615 -1.30161143 -3.61820457 -1.04975891 0 0 Z M-10.65625 61.5 C-12.04457031 62.32371094 -12.04457031 62.32371094 -13.4609375 63.1640625 C-14.46382812 63.76992187 -15.46671875 64.37578125 -16.5 65 C-18.67628969 66.29300341 -20.8534067 67.5846151 -23.03125 68.875 C-23.881427 69.38063477 -23.881427 69.38063477 -24.7487793 69.89648438 C-30.53663076 73.33426506 -36.38131297 76.66954565 -42.23370361 79.99588013 C-52.54951944 85.86030682 -62.82436707 91.7917812 -73.06689453 97.78344727 C-83.59084625 103.93766742 -94.15380137 110.02369996 -104.71777344 116.10888672 C-110.14659942 119.23680148 -115.57319281 122.36858448 -121 125.5 C-123.16665583 126.75001879 -125.3333225 128.00001878 -127.5 129.25 C-128.5725 129.86875 -129.645 130.4875 -130.75 131.125 C-322.5 241.75 -322.5 241.75 -325.75219727 243.6262207 C-327.91159395 244.8720577 -330.07093669 246.11798818 -332.23022461 247.36401367 C-337.75767597 250.55348953 -343.28615121 253.74116885 -348.81640625 256.92578125 C-358.58011894 262.54975836 -368.34303524 268.17477593 -378.0625 273.875 C-378.76511963 274.28596924 -379.46773926 274.69693848 -380.19165039 275.12036133 C-383.27242011 276.81992882 -383.27242011 276.81992882 -386 279 C-386.097926 281.84470832 -386.12992493 284.66513904 -386.12025452 287.51026917 C-386.12110894 288.41358866 -386.12196337 289.31690816 -386.12284368 290.24760097 C-386.12450126 293.29863191 -386.1189726 296.34960883 -386.11352539 299.40063477 C-386.11324355 301.57809447 -386.11340119 303.75555427 -386.1139679 305.93301392 C-386.114256 311.86459197 -386.10835716 317.79614999 -386.10139394 323.72772336 C-386.09516258 329.91906207 -386.09455677 336.11040119 -386.09336853 342.30174255 C-386.09043182 353.36713847 -386.08320169 364.43252607 -386.07372581 375.49791818 C-386.06178151 389.51986384 -386.05559925 403.54180835 -386.05032361 417.56375802 C-386.03985775 445.04251049 -386.02225706 472.52125473 -386 500 C-383.87746695 496.81620042 -382.86695229 494.0145594 -381.63671875 490.39453125 C-381.16426301 489.02011074 -380.69134122 487.64585038 -380.21801758 486.27172852 C-379.9691983 485.54559357 -379.72037903 484.81945862 -379.46401978 484.07131958 C-367.59634289 449.54941586 -354.86727501 412.94271339 -332 384 C-331.59168945 383.47954102 -331.18337891 382.95908203 -330.76269531 382.42285156 C-315.48252893 363.11026173 -295.67454134 350.37008015 -271 347 C-247.95061681 345.16576713 -227.90021976 349.62146066 -209.5 364.0625 C-207.98686728 365.3598379 -206.48634574 366.67205701 -205 368 C-204.22269531 368.65871094 -203.44539062 369.31742187 -202.64453125 369.99609375 C-178.91301898 390.38849877 -160.95723698 421.28237312 -148.015625 449.3515625 C-147.54640625 450.35550049 -147.0771875 451.35943848 -146.59375 452.39379883 C-145.72488985 454.28101233 -144.88417867 456.18155429 -144.078125 458.09643555 C-141.83903326 462.95992326 -140.14456316 465.39195823 -135.078125 467.40234375 C-133.38845673 467.94446398 -131.69591552 468.47775123 -130 469 C-127.81810657 470.05232913 -125.64827382 471.13063627 -123.5 472.25 C-119.92192747 474.30412947 -119.92192747 474.30412947 -116 475 C-115.63874023 474.2064209 -115.27748047 473.4128418 -114.90527344 472.59521484 C-94.80028407 428.58141784 -94.80028407 428.58141784 -82 411 C-81.24460937 409.94941406 -80.48921875 408.89882813 -79.7109375 407.81640625 C-71.14714533 396.1529105 -61.75916307 386.08621225 -49 379 C-48.34902344 378.60296875 -47.69804688 378.2059375 -47.02734375 377.796875 C-34.30251527 370.55642058 -18.72041347 370.52290202 -4.92895508 374.09960938 C22.09354304 381.87847076 39.44971428 408.54356413 52.5 431.6875 C54.02161124 434.44690397 55.51137697 437.22270003 57 440 C57.4321582 440.79341797 57.86431641 441.58683594 58.30957031 442.40429688 C66.68567719 457.81066681 73.9486041 473.64515174 81.12487793 489.63067627 C84.55755268 497.26437463 88.08324155 504.85393504 91.625 512.4375 C91.91300476 513.05593781 92.20100952 513.67437561 92.4977417 514.31155396 C95.89103185 521.59704688 99.35788036 528.83539238 103 536 C127.37185698 516.9263728 140.44473859 484.45247225 153.54708862 457.37658691 C174.19070955 414.72868462 174.19070955 414.72868462 189 397 C189.83144531 395.92492187 189.83144531 395.92492187 190.6796875 394.828125 C203.84555473 378.45266825 224.33119862 368.27526929 245 366 C277.4392194 364.18398383 302.18207621 372.92160336 326.43603516 394.57666016 C334.35996814 401.78810713 341.40177655 409.56866657 348 418 C348.5249707 418.66451172 349.04994141 419.32902344 349.59082031 420.01367188 C357.83076301 430.4450392 365.77385129 441.02417521 373.35107422 451.94775391 C374.54297911 453.64919494 375.76877287 455.3267939 377 457 C377.33 457 377.66 457 378 457 C378.30379642 433.93026935 378.53298036 410.86086883 378.67355824 387.78954315 C378.74056921 377.07678837 378.83190912 366.36527694 378.98071289 355.65332031 C379.1103629 346.31572977 379.19417317 336.97903959 379.22315043 327.64057398 C379.24008864 322.69615359 379.2798285 317.75430865 379.37449074 312.81071472 C379.46292929 308.15429347 379.48991811 303.50149973 379.47039986 298.84431839 C379.47396835 297.13816707 379.49973011 295.43189111 379.54967117 293.72646713 C379.6942038 288.5349797 379.63526644 283.96317666 378 279 C374.05940097 275.15338415 370.04664086 273.22167678 365 271 C362.97228774 269.8448065 360.95559997 268.66975539 358.95703125 267.46484375 C356.90995526 266.28714651 354.86174178 265.11142462 352.8125 263.9375 C351.10957218 262.95848887 349.4066462 261.97947453 347.7038269 261.00027466 C345.95604539 259.99552701 344.20779404 258.99160086 342.45947266 257.98779297 C336.96860763 254.8327737 331.48452655 251.66602037 326 248.5 C323.83336859 247.24993888 321.66670186 245.999939 319.5 244.75 C237.16666667 197.25 154.83333333 149.75 72.5 102.25 C71.42733887 101.63116943 70.35467773 101.01233887 69.24951172 100.37475586 C67.08442929 99.12564482 64.91939018 97.87645871 62.75439453 96.62719727 C57.31384294 93.48797691 51.87252784 90.35009437 46.4296875 87.21484375 C35.50112142 80.91798924 24.58252993 74.6047418 13.6875 68.25 C12.68509277 67.66532959 11.68268555 67.08065918 10.64990234 66.47827148 C3.14855404 62.09762407 3.14855404 62.09762407 0.44848633 60.32324219 C-3.96309246 57.93908055 -6.66973469 59.10362948 -10.65625 61.5 Z " fill="#FD777B" transform="translate(604,101)"/>
<path d="M0 0 C2.65527344 1.25244141 2.65527344 1.25244141 5.359375 2.8515625 C6.88884766 3.74584961 6.88884766 3.74584961 8.44921875 4.65820312 C9.53847656 5.30724609 10.62773438 5.95628906 11.75 6.625 C12.90697352 7.30502178 14.06453713 7.98404047 15.22265625 8.66210938 C17.62665148 10.07067324 20.02805773 11.48350641 22.42773438 12.89941406 C27.9283488 16.14016978 33.46603409 19.31666323 39 22.5 C41.16684034 23.74969892 43.3335065 24.99969989 45.5 26.25 C47.10875 27.178125 47.10875 27.178125 48.75 28.125 C95.33333333 55 141.91666667 81.875 188.5 108.75 C189.57266113 109.36883057 190.64532227 109.98766113 191.75048828 110.62524414 C193.91557071 111.87435518 196.08060982 113.12354129 198.24560547 114.37280273 C203.68615706 117.51202309 209.12747216 120.64990563 214.5703125 123.78515625 C225.02206199 129.80747329 235.46299548 135.84669337 245.875 141.9375 C255.14563931 147.35958699 264.45936699 152.70324012 273.79046631 158.02023315 C282.86778636 163.19378787 291.90571533 168.43142154 300.921875 173.7109375 C308.58573974 178.19166265 316.28685835 182.60494224 324 187 C333.72124506 192.53985933 343.40894868 198.13374932 353.06689453 203.78344727 C363.57611088 209.92905044 374.12448664 216.00613649 384.67382812 222.08251953 C388.07053685 224.04066327 391.46522458 226.00226927 394.859375 227.96484375 C395.99262207 228.61976807 397.12586914 229.27469238 398.29345703 229.94946289 C400.41982403 231.17844256 402.54583722 232.40803472 404.67138672 233.63842773 C413.07780992 238.49451214 421.53660133 243.23933825 430 248 C430 413.66 430 579.32 430 750 C421.75 754.62 413.5 759.24 405 764 C396.10874034 769.17277732 396.10874034 769.17277732 387.23046875 774.3671875 C380.51538726 778.29477549 373.75941278 782.14949706 367 786 C357.27857016 791.53953103 347.59104696 797.13375187 337.93310547 802.78344727 C327.40915375 808.93766742 316.84619863 815.02369996 306.28222656 821.10888672 C300.85340058 824.23680148 295.42680719 827.36858448 290 830.5 C287.83334417 831.75001879 285.6666775 833.00001878 283.5 834.25 C281.89125 835.178125 281.89125 835.178125 280.25 836.125 C62.49999993 961.75000004 62.49999993 961.75000004 59.24829102 963.62597656 C57.08731012 964.87270256 54.92634002 966.11944727 52.76538086 967.36621094 C47.26181149 970.54145883 41.75803968 973.71635495 36.25390625 976.890625 C35.14370117 977.53128906 34.03349609 978.17195313 32.88964844 978.83203125 C30.69492339 980.09720296 28.49898433 981.36027135 26.30175781 982.62109375 C21.28635118 985.50284041 16.29493079 988.41152156 11.35546875 991.421875 C10.48784912 991.94426758 9.62022949 992.46666016 8.72631836 993.00488281 C7.12877 993.96942843 5.53901736 994.94706358 3.95922852 995.94042969 C3.25596436 996.36227539 2.5527002 996.78412109 1.828125 997.21875 C1.2290332 997.58935547 0.62994141 997.95996094 0.01269531 998.34179688 C-3.83545543 999.60024112 -7.10404162 998.42260633 -10.65527344 996.74755859 C-11.54762695 996.21984863 -12.43998047 995.69213867 -13.359375 995.1484375 C-14.88884766 994.25415039 -14.88884766 994.25415039 -16.44921875 993.34179688 C-17.53847656 992.69275391 -18.62773438 992.04371094 -19.75 991.375 C-20.90697352 990.69497822 -22.06453713 990.01595953 -23.22265625 989.33789062 C-25.62665148 987.92932676 -28.02805773 986.51649359 -30.42773438 985.10058594 C-35.9283488 981.85983022 -41.46603409 978.68333677 -47 975.5 C-49.16684034 974.25030108 -51.3335065 973.00030011 -53.5 971.75 C-54.5725 971.13125 -55.645 970.5125 -56.75 969.875 C-77.33333333 958 -97.91666667 946.125 -118.5 934.25 C-119.57266113 933.63116943 -120.64532227 933.01233887 -121.75048828 932.37475586 C-123.91557071 931.12564482 -126.08060982 929.87645871 -128.24560547 928.62719727 C-133.68615706 925.48797691 -139.12747216 922.35009437 -144.5703125 919.21484375 C-155.02206199 913.19252671 -165.46299548 907.15330663 -175.875 901.0625 C-185.14563931 895.64041301 -194.45936699 890.29675988 -203.79046631 884.97976685 C-212.86778636 879.80621213 -221.90571533 874.56857846 -230.921875 869.2890625 C-238.58573974 864.80833735 -246.28685835 860.39505776 -254 856 C-263.72124506 850.46014067 -273.40894868 844.86625068 -283.06689453 839.21655273 C-293.59084625 833.06233258 -304.15380137 826.97630004 -314.71777344 820.89111328 C-320.14659942 817.76319852 -325.57319281 814.63141552 -331 811.5 C-333.16665583 810.24998121 -335.3333225 808.99998122 -337.5 807.75 C-350.5 800.25 -363.5 792.75 -376.5 785.25 C-377.57338623 784.6307666 -378.64677246 784.0115332 -379.75268555 783.37353516 C-381.91049803 782.12858718 -384.06821353 780.8834711 -386.22583008 779.63818359 C-391.77716592 776.43447349 -397.33036541 773.2340637 -402.88671875 770.0390625 C-422.4218588 758.8002005 -422.4218588 758.8002005 -431.0625 753.625 C-431.66989014 753.26164551 -432.27728027 752.89829102 -432.90307617 752.52392578 C-436.8696895 750.1303105 -436.8696895 750.1303105 -438 749 C-438.10715668 746.35337917 -438.14836811 743.73248541 -438.14818764 741.08502674 C-438.15203785 740.24148363 -438.15588806 739.39794053 -438.15985495 738.52883551 C-438.17164567 735.66528162 -438.17620174 732.80176048 -438.18081665 729.93818665 C-438.18768911 727.87919817 -438.19497732 725.82021105 -438.20264852 723.7612254 C-438.222459 718.07428841 -438.23579492 712.38735155 -438.24799705 706.7003938 C-438.25924153 701.82974558 -438.27418023 696.95911148 -438.28912015 692.08847342 C-438.34246582 674.6384316 -438.38056059 657.18837024 -438.4140625 639.73828125 C-438.41538651 639.04954931 -438.41671053 638.36081738 -438.41807466 637.65121477 C-438.47025233 610.39879919 -438.51465024 583.14636878 -438.54586862 555.89392087 C-438.55362181 549.13964815 -438.56166906 542.38537577 -438.56982422 535.63110352 C-438.57071816 534.88474961 -438.57161211 534.1383957 -438.57253314 533.36942501 C-438.60174357 509.16703285 -438.66274065 484.9648548 -438.74120806 460.76257604 C-438.82169185 435.89317186 -438.87296926 411.02388326 -438.88632692 386.15434774 C-438.88822005 382.64334108 -438.89043328 379.1323347 -438.89283371 375.62132835 C-438.89329402 374.93030415 -438.89375432 374.23927995 -438.89422858 373.52731562 C-438.90247571 362.39552164 -438.94134966 351.26403461 -438.99144951 340.13235915 C-439.04109711 328.94704122 -439.05714267 317.76204948 -439.04102559 306.57659946 C-439.03325353 300.51386233 -439.04027712 294.45206825 -439.08630753 288.38948059 C-439.12808982 282.8429692 -439.12864198 277.29806396 -439.09587733 271.75150611 C-439.09136474 269.74132192 -439.10219808 267.73103489 -439.12962742 265.72103278 C-439.32295572 250.6579043 -439.32295572 250.6579043 -436.0203321 246.51911581 C-433.70634594 244.94201483 -431.62879841 243.93402504 -429 243 C-428.0917749 242.45472656 -427.1835498 241.90945313 -426.24780273 241.34765625 C-425.10226929 240.71150391 -425.10226929 240.71150391 -423.93359375 240.0625 C-423.04889404 239.56766113 -422.16419434 239.07282227 -421.25268555 238.56298828 C-420.32367432 238.04720215 -419.39466309 237.53141602 -418.4375 237 C-410.31054156 232.44743174 -402.22572089 227.83252148 -394.1875 223.125 C-382.58061953 216.33107444 -370.93606995 209.60410088 -359.28222656 202.89111328 C-353.85340058 199.76319852 -348.42680719 196.63141552 -343 193.5 C-340.83334417 192.24998121 -338.6666775 190.99998122 -336.5 189.75 C-334.89125 188.821875 -334.89125 188.821875 -333.25 187.875 C-63.5 32.25 -63.5 32.25 -60.24658203 30.37304688 C-58.09128689 29.1295949 -55.93601327 27.88610564 -53.78076172 26.64257812 C-48.77662326 23.75537125 -43.7722948 20.8684957 -38.76715088 17.98303223 C-37.01658759 16.97380896 -35.26609589 15.96446164 -33.515625 14.95507812 C-31.33607835 13.6983234 -29.15640168 12.44179414 -26.9765625 11.18554688 C-25.47609375 10.32026367 -25.47609375 10.32026367 -23.9453125 9.4375 C-22.96852539 8.87933594 -21.99173828 8.32117188 -20.98535156 7.74609375 C-18.89766292 6.5250315 -16.8333069 5.26358928 -14.78808594 3.97265625 C-13.21849121 2.99619141 -13.21849121 2.99619141 -11.6171875 2 C-10.68245605 1.401875 -9.74772461 0.80375 -8.78466797 0.1875 C-5.29272615 -1.30161143 -3.61820457 -1.04975891 0 0 Z M-10.65625 61.5 C-12.04457031 62.32371094 -12.04457031 62.32371094 -13.4609375 63.1640625 C-14.46382812 63.76992187 -15.46671875 64.37578125 -16.5 65 C-18.67628969 66.29300341 -20.8534067 67.5846151 -23.03125 68.875 C-23.881427 69.38063477 -23.881427 69.38063477 -24.7487793 69.89648438 C-30.53663076 73.33426506 -36.38131297 76.66954565 -42.23370361 79.99588013 C-52.54951944 85.86030682 -62.82436707 91.7917812 -73.06689453 97.78344727 C-83.59084625 103.93766742 -94.15380137 110.02369996 -104.71777344 116.10888672 C-110.14659942 119.23680148 -115.57319281 122.36858448 -121 125.5 C-123.16665583 126.75001879 -125.3333225 128.00001878 -127.5 129.25 C-128.5725 129.86875 -129.645 130.4875 -130.75 131.125 C-322.5 241.75 -322.5 241.75 -325.75219727 243.6262207 C-327.91159395 244.8720577 -330.07093669 246.11798818 -332.23022461 247.36401367 C-337.75767597 250.55348953 -343.28615121 253.74116885 -348.81640625 256.92578125 C-358.58011894 262.54975836 -368.34303524 268.17477593 -378.0625 273.875 C-378.76511963 274.28596924 -379.46773926 274.69693848 -380.19165039 275.12036133 C-383.27242011 276.81992882 -383.27242011 276.81992882 -386 279 C-386.12062801 281.33270826 -386.17598848 283.63693863 -386.19008732 285.9712019 C-386.19843148 286.71273419 -386.20677564 287.45426647 -386.21537265 288.21826944 C-386.24235138 290.73485976 -386.26206571 293.25145495 -386.28175354 295.76811218 C-386.29935492 297.5780381 -386.31733251 299.38796039 -386.33565658 301.19787914 C-386.38473333 306.19664826 -386.4270141 311.19545525 -386.46788275 316.19429743 C-386.49451629 319.38955857 -386.52301802 322.58479763 -386.55214882 325.78003693 C-386.93164635 367.47078288 -387.15288411 409.16247662 -387.32562351 450.85454082 C-387.3479303 456.14367036 -387.37067706 461.4327978 -387.39379883 466.72192383 C-387.39952878 468.03654709 -387.40525873 469.35117036 -387.41116231 470.7056307 C-387.50646891 491.98803273 -387.68947446 513.26865231 -387.90580261 534.55018129 C-388.12599227 556.3933458 -388.25501997 578.2356598 -388.29879421 600.07989818 C-388.32860035 613.55634576 -388.42877574 627.02846373 -388.6193487 640.50361238 C-388.74318558 649.74671649 -388.77809657 658.98751394 -388.74354625 668.23137184 C-388.72620146 673.56458151 -388.74748887 678.8901316 -388.87438965 684.22202492 C-390.30618764 704.62138385 -390.30618764 704.62138385 -383.6278255 723.05455232 C-377.97685199 727.90404348 -371.80179517 730.70133829 -364.78176582 733.03164923 C-361.12597217 734.30425477 -358.1495483 736.05994592 -354.8828125 738.12109375 C-352.96389348 739.22717308 -351.04463128 740.33265727 -349.125 741.4375 C-346.94009462 742.69659802 -344.75519908 743.95571311 -342.5703125 745.21484375 C-341.48524414 745.83987793 -340.40017578 746.46491211 -339.28222656 747.10888672 C-333.85340058 750.23680148 -328.42680719 753.36858448 -323 756.5 C-320.83334417 757.75001879 -318.6666775 759.00001878 -316.5 760.25 C-251.5 797.75 -186.5 835.25 -121.5 872.75 C-120.42733887 873.36883057 -119.35467773 873.98766113 -118.24951172 874.62524414 C-116.08442929 875.87435518 -113.91939018 877.12354129 -111.75439453 878.37280273 C-106.31384294 881.51202309 -100.87252784 884.64990563 -95.4296875 887.78515625 C-84.97793764 893.8074735 -74.53703298 899.84674164 -64.125 905.9375 C-54.16226895 911.76380391 -44.16089199 917.52124849 -34.11914062 923.21020508 C-28.7716308 926.24370714 -23.45273326 929.30705233 -18.21484375 932.52734375 C-17.34577393 933.05497314 -16.4767041 933.58260254 -15.58129883 934.1262207 C-13.99634904 935.09332206 -12.42103957 936.07648997 -10.8581543 937.07885742 C-9.81848511 937.70884644 -9.81848511 937.70884644 -8.7578125 938.3515625 C-8.1714502 938.72104004 -7.58508789 939.09051758 -6.98095703 939.47119141 C-3.10868848 940.50487808 0.24986106 938.38589807 3.65527344 936.6340332 C4.54762695 936.11156006 5.43998047 935.58908691 6.359375 935.05078125 C7.37902344 934.4578125 8.39867187 933.86484375 9.44921875 933.25390625 C10.53847656 932.61324219 11.62773438 931.97257812 12.75 931.3125 C13.90720972 930.63743361 15.06476857 929.96296538 16.22265625 929.2890625 C18.62570582 927.88984195 21.0272392 926.48807065 23.42773438 925.08447266 C28.93786845 921.86550616 34.47010358 918.68484971 40 915.5 C42.16415464 914.25146179 44.32821684 913.00276332 46.4921875 911.75390625 C50.85065388 909.23930564 55.21012191 906.72645339 59.5703125 904.21484375 C70.02206199 898.19252671 80.46299548 892.15330663 90.875 886.0625 C100.14499777 880.64078822 109.45831752 875.29795085 118.78845215 869.98077393 C127.9128284 864.77954871 137.00132774 859.51972122 146.06689453 854.21655273 C156.59084625 848.06233258 167.15380137 841.97630004 177.71777344 835.89111328 C183.14659942 832.76319852 188.57319281 829.63141552 194 826.5 C196.16665583 825.24998121 198.3333225 823.99998122 200.5 822.75 C202.10875 821.821875 202.10875 821.821875 203.75 820.875 C317.5 755.25 317.5 755.25 320.75268555 753.37353516 C322.91049803 752.12858718 325.06821353 750.8834711 327.22583008 749.63818359 C332.77716592 746.43447349 338.33036541 743.2340637 343.88671875 740.0390625 C345.59504883 739.05583008 345.59504883 739.05583008 347.33789062 738.05273438 C349.47787488 736.8211516 351.61844226 735.59058114 353.75976562 734.36132812 C355.71152579 733.23751046 357.65326966 732.09605066 359.58275104 730.93439859 C362.01213921 729.55919734 364.28604703 728.4080967 366.82396626 727.30122811 C372.55010749 724.63706504 377.09519662 722.4113226 379.39220572 716.28973854 C380.12561937 711.61592833 379.99245593 706.94494236 379.89129639 702.22947693 C379.90715811 700.40830764 379.92956419 698.58718564 379.9579289 696.76616818 C380.01661143 691.77237115 379.9819003 686.7829503 379.93155193 681.78922331 C379.89347719 676.40037476 379.94183128 671.01220161 379.97909546 665.6234436 C380.03808496 655.07161439 380.0162565 644.52142976 379.96585581 633.96961456 C379.92651193 625.39473454 379.91719453 616.82030577 379.92935944 608.24534798 C379.93108049 607.02494286 379.93280154 605.80453775 379.93457474 604.54715066 C379.93822602 602.0679332 379.9419578 599.58871585 379.94576922 597.10949863 C379.97819681 573.86270085 379.92023095 550.6168069 379.83033195 527.37020368 C379.75513253 507.42134376 379.75273326 487.4735792 379.8046875 467.5246582 C379.86495909 444.35964922 379.88358283 421.19526235 379.83320546 398.03020817 C379.82792392 395.56041762 379.82268261 393.09062698 379.81748199 390.62083626 C379.81358866 388.7980482 379.81358866 388.7980482 379.80961667 386.93843613 C379.79408404 378.37288643 379.80799511 369.8076727 379.83296967 361.24215508 C379.86244787 350.80476322 379.84520088 340.36868422 379.76821586 329.93151432 C379.73005677 324.60534975 379.71267413 319.2812838 379.75154495 313.95507622 C379.78651688 309.07885769 379.76148063 304.20676931 379.68849483 299.33100546 C379.67258174 297.56740736 379.67857811 295.8034475 379.70866308 294.04003423 C379.79172464 288.74484746 379.68854303 284.05248037 378 279 C374.05628091 275.13537164 370.06653982 273.2139436 365 271 C362.97198627 269.84533584 360.95525078 268.6703344 358.95703125 267.46484375 C356.90995526 266.28714651 354.86174178 265.11142462 352.8125 263.9375 C351.10957218 262.95848887 349.4066462 261.97947453 347.7038269 261.00027466 C345.95604539 259.99552701 344.20779404 258.99160086 342.45947266 257.98779297 C336.96860763 254.8327737 331.48452655 251.66602037 326 248.5 C323.83336859 247.24993888 321.66670186 245.999939 319.5 244.75 C237.16666667 197.25 154.83333333 149.75 72.5 102.25 C71.42733887 101.63116943 70.35467773 101.01233887 69.24951172 100.37475586 C67.08442929 99.12564482 64.91939018 97.87645871 62.75439453 96.62719727 C57.31384294 93.48797691 51.87252784 90.35009437 46.4296875 87.21484375 C35.50112142 80.91798924 24.58252993 74.6047418 13.6875 68.25 C12.68509277 67.66532959 11.68268555 67.08065918 10.64990234 66.47827148 C3.14855404 62.09762407 3.14855404 62.09762407 0.44848633 60.32324219 C-3.96309246 57.93908055 -6.66973469 59.10362948 -10.65625 61.5 Z " fill="#E7E8EC" transform="translate(604,101)"/>
<path d="M0 0 C11.48917344 9.37710515 21.6692501 19.77909183 30.79296875 31.46875 C31.89825039 32.86863734 33.00373463 34.26836472 34.109375 35.66796875 C41.26423119 44.76289359 48.14841878 53.99521454 54.79296875 63.46875 C55.24679932 64.01362061 55.70062988 64.55849121 56.16821289 65.11987305 C59.87842334 69.72504155 60.45221607 73.07556045 60.10546875 78.90625 C60.08291016 79.63779297 60.06035156 80.36933594 60.03710938 81.12304688 C59.97884772 82.90585355 59.88918995 84.68758871 59.79296875 86.46875 C59.30570313 86.14003906 58.8184375 85.81132813 58.31640625 85.47265625 C55.8152264 83.79459195 53.30377718 82.13237409 50.79296875 80.46875 C49.23255859 79.41880859 49.23255859 79.41880859 47.640625 78.34765625 C26.4902835 64.27312142 5.03180485 56.04462803 -20.64453125 56.15625 C-21.96404785 56.16043945 -23.28356445 56.16462891 -24.64306641 56.16894531 C-35.38293268 56.26345535 -45.70418635 57.25127238 -56.20703125 59.46875 C-56.90924805 59.61328613 -57.61146484 59.75782227 -58.33496094 59.90673828 C-84.75178896 65.49848598 -109.21804895 77.95364335 -128.9765625 96.390625 C-131.02485747 98.29901891 -133.12738722 100.10499726 -135.26953125 101.90625 C-151.12486122 115.87404068 -163.20305063 134.59130341 -174.20703125 152.46875 C-174.88765625 153.57210693 -174.88765625 153.57210693 -175.58203125 154.69775391 C-182.04623711 165.22677811 -188.21429644 175.92361678 -194.33203125 186.65625 C-194.67733887 187.2619986 -195.02264648 187.86774719 -195.37841797 188.49185181 C-196.06678047 189.69953757 -196.75510497 190.907245 -197.44338989 192.11497498 C-225.49550224 241.33694918 -225.49550224 241.33694918 -244.26953125 261.35546875 C-246.27911888 263.49615274 -246.27911888 263.49615274 -248.23828125 266.03515625 C-261.09000849 281.92131909 -285.70990505 297.23548103 -306.20703125 299.46875 C-321.79657776 300.7645563 -335.55544416 295.82758282 -347.49609375 285.76953125 C-382.86174014 254.70490229 -401.69948711 206.32660134 -420.17773438 164.09619141 C-423.21790909 157.1538971 -426.30092874 150.23062624 -429.38217163 143.30648804 C-430.38732038 141.04745615 -431.39164467 138.78805942 -432.39575195 136.52856445 C-436.69457891 126.85685003 -441.00592845 117.19079463 -445.33203125 107.53125 C-445.84016357 106.3956665 -446.3482959 105.26008301 -446.87182617 104.09008789 C-449.85023385 97.44718268 -449.85023385 97.44718268 -452.90527344 90.83935547 C-453.73140137 89.07615967 -453.73140137 89.07615967 -454.57421875 87.27734375 C-455.07808105 86.21185303 -455.58194336 85.1463623 -456.10107422 84.04858398 C-457.20703125 81.46875 -457.20703125 81.46875 -457.20703125 79.46875 C-451.29435328 79.95823582 -446.98156157 81.77025681 -441.76953125 84.53125 C-441.03798828 84.90830078 -440.30644531 85.28535156 -439.55273438 85.67382812 C-437.76609172 86.59634296 -435.98587296 87.5312812 -434.20703125 88.46875 C-433.84351563 87.26605469 -433.48 86.06335938 -433.10546875 84.82421875 C-430.89968919 78.2287577 -427.86584956 72.02752635 -424.83203125 65.78125 C-424.52600983 65.14857208 -424.2199884 64.51589417 -423.9046936 63.86404419 C-413.73683614 42.91499858 -402.24669355 23.48749402 -386.20703125 6.46875 C-385.56121094 5.75847656 -384.91539062 5.04820312 -384.25 4.31640625 C-379.18875713 -1.05407753 -373.57586981 -4.84353254 -367.20703125 -8.53125 C-366.55089844 -8.9334375 -365.89476562 -9.335625 -365.21875 -9.75 C-352.47149495 -16.95615703 -336.93805482 -17.01109962 -323.13598633 -13.43164062 C-295.81197702 -5.56598439 -277.89479426 21.78940761 -264.70703125 45.15625 C-263.18530157 47.91558895 -261.69565425 50.6914501 -260.20703125 53.46875 C-259.77487305 54.26216797 -259.34271484 55.05558594 -258.89746094 55.87304688 C-250.52221389 71.27783532 -243.26004775 87.11007047 -236.08668518 103.09489441 C-232.07995044 112.00450193 -227.92479636 120.84464272 -223.77392578 129.68774414 C-220.85126261 135.92046901 -217.97476344 142.16559347 -215.20703125 148.46875 C-203.04826186 139.28212424 -194.78217396 125.46506257 -187.20703125 112.46875 C-186.79501465 111.76572754 -186.38299805 111.06270508 -185.95849609 110.33837891 C-178.54883154 97.54866594 -172.15858178 84.27608326 -165.72631836 70.97909546 C-144.93375116 28.01275546 -144.93375116 28.01275546 -130.20703125 10.46875 C-129.57925781 9.67855469 -128.95148438 8.88835937 -128.3046875 8.07421875 C-96.00050273 -30.92301064 -37.66654018 -30.03372282 0 0 Z " fill="#FECD56" transform="translate(922.20703125,487.53125)"/>
<path d="M0 0 C2.43662239 1.90659029 4.75528285 3.88808764 7.05859375 5.953125 C7.909375 6.6853125 8.76015625 7.4175 9.63671875 8.171875 C35.49718868 30.78042955 52.66257405 63.11206795 67.93359375 93.328125 C68.35648682 94.15997314 68.77937988 94.99182129 69.21508789 95.84887695 C69.7834436 96.9948938 69.7834436 96.9948938 70.36328125 98.1640625 C70.85803955 99.15865479 70.85803955 99.15865479 71.36279297 100.17333984 C72.05859375 101.953125 72.05859375 101.953125 72.05859375 104.953125 C71.08921875 104.84613281 70.11984375 104.73914063 69.12109375 104.62890625 C54.3556721 103.21931058 41.49856145 105.36490554 28.05859375 111.953125 C27.15882813 112.38367188 26.2590625 112.81421875 25.33203125 113.2578125 C4.98338348 123.63738211 -13.29547226 141.69819873 -27.94140625 158.953125 C-28.85451199 160.00343671 -29.768668 161.05283582 -30.68359375 162.1015625 C-36.93478879 169.29068948 -42.92343859 176.61483087 -48.64648438 184.23291016 C-50.00288736 186.03479844 -51.37002648 187.82819201 -52.73828125 189.62109375 C-94.52167257 244.58748019 -128.46954796 305.1332208 -158.94140625 366.953125 C-161.25512568 365.80969978 -163.56740302 364.66351436 -165.87890625 363.515625 C-166.53826172 363.19013672 -167.19761719 362.86464844 -167.87695312 362.52929688 C-172.828125 360.06640625 -172.828125 360.06640625 -173.94140625 358.953125 C-174.06151366 356.18643711 -174.11596978 353.44395443 -174.12895203 350.67596436 C-174.13686211 349.79718982 -174.14477219 348.91841528 -174.15292197 348.01301122 C-174.17814939 345.04352181 -174.1959534 342.07403555 -174.21362305 339.10449219 C-174.22970104 336.98393533 -174.24608077 334.86338073 -174.26274109 332.74282837 C-174.40816787 313.26899263 -174.48268795 293.79450035 -174.54165936 274.32023239 C-174.58602893 259.94682637 -174.66276787 245.57438863 -174.78324383 231.20141482 C-174.86520435 221.07705222 -174.90788906 210.95295113 -174.92296153 200.82827115 C-174.93304547 194.79559754 -174.95967431 188.76413947 -175.02927208 182.73183441 C-175.55290088 135.30213394 -175.55290088 135.30213394 -165.13720989 112.59036827 C-163.67735062 109.37077276 -162.45198192 106.09379383 -161.25114441 102.77076054 C-160.09305005 99.57476439 -158.82659902 96.42243015 -157.56640625 93.265625 C-157.16619766 92.25665161 -157.16619766 92.25665161 -156.75790405 91.22729492 C-147.23926578 67.28133326 -137.02367271 43.31606867 -120.94140625 22.953125 C-120.53841309 22.4379834 -120.13541992 21.9228418 -119.72021484 21.39208984 C-90.36345927 -15.82551942 -40.02615136 -27.85352366 0 0 Z " fill="#FE6285" transform="translate(391.94140625,462.046875)"/>
<path d="M0 0 C20.16498412 14.95415489 33.29468985 36.1615917 45 58 C45.4321582 58.79341797 45.86431641 59.58683594 46.30957031 60.40429688 C54.68481736 75.80908532 61.9469835 91.64132047 69.12034607 107.62614441 C73.12708081 116.53575193 77.28223489 125.37589272 81.43310547 134.21899414 C82.96078828 137.47685387 84.48243368 140.73741755 86 144 C86.4223291 144.90105469 86.8446582 145.80210937 87.27978516 146.73046875 C87.64765137 147.53097656 88.01551758 148.33148437 88.39453125 149.15625 C88.7088208 149.83494141 89.02311035 150.51363281 89.34692383 151.21289062 C90 153 90 153 90 156 C76.54465105 168.13755705 60.56384816 175.17728011 43 179 C41.87887817 179.25910156 41.87887817 179.25910156 40.73510742 179.5234375 C6.75737785 185.44368459 -27.12179267 174.48117758 -54.75 155.125 C-61.59075699 150.2198813 -68.0627867 144.95483026 -74.38769531 139.40625 C-76.0768842 137.93294171 -77.78201424 136.48013368 -79.4921875 135.03125 C-85.10131028 130.27336788 -90.62470631 125.45844773 -96 120.4375 C-105.70971632 111.46473951 -117.13695299 100.9315235 -129 95 C-128.43643909 90.79743474 -127.46546877 87.34945863 -125.69921875 83.5 C-125.22258789 82.45859863 -124.74595703 81.41719727 -124.25488281 80.34423828 C-123.73764648 79.24063965 -123.22041016 78.13704102 -122.6875 77 C-122.15350586 75.8538623 -121.61951172 74.70772461 -121.06933594 73.52685547 C-113.81139975 58.13722452 -106.03500338 42.79067791 -96 29 C-94.88431641 27.44152344 -94.88431641 27.44152344 -93.74609375 25.8515625 C-84.99371819 13.88992314 -75.10090879 3.19306226 -62 -4 C-61.3503125 -4.39574219 -60.700625 -4.79148437 -60.03125 -5.19921875 C-41.33398536 -15.85507508 -16.88970801 -12.09303093 0 0 Z " fill="#36A2EA" transform="translate(617,483)"/>
</svg>
