<?xml version="1.0" encoding="UTF-8"?>
<svg version="1.1" xmlns="http://www.w3.org/2000/svg" width="512" height="512">
<path d="M0 0 C34.26574463 -0.92083457 66.6255024 10.37713257 91.7421875 33.890625 C92.52207031 34.63828125 93.30195313 35.3859375 94.10546875 36.15625 C95.35263672 37.30867188 95.35263672 37.30867188 96.625 38.484375 C122.38277243 63.01558684 133.06777579 101.2207915 134.22998047 135.86816406 C134.34984793 143.63280181 134.28166001 151.39299208 134.10546875 159.15625 C133.44546875 159.15625 132.78546875 159.15625 132.10546875 159.15625 C132.11900391 160.02636719 132.11900391 160.02636719 132.1328125 160.9140625 C131.99921188 164.43414832 131.86714168 167.15260915 129.69140625 170.01953125 C124.2678419 174.83384057 118.75661968 176.28287558 111.67026234 176.92122746 C110.05458528 177.06927856 108.44015153 177.2324193 106.82823467 177.41696072 C98.24135802 178.34342606 89.68875878 178.24964821 81.06762695 178.17797852 C79.37144738 178.16781637 77.67526494 178.15812485 75.9790802 178.14886475 C71.40545728 178.12257741 66.8319024 178.08976007 62.25833154 178.05571485 C57.46710065 178.02117832 52.6758336 177.99272423 47.88456726 177.96360779 C38.82549771 177.90764055 29.76647344 177.84625238 20.70745295 177.78288645 C10.38819453 177.71097162 0.06890003 177.64514595 -10.25040185 177.57981598 C-31.46515854 177.44537291 -52.67985869 177.30333428 -73.89453125 177.15625 C-73.74428762 178.74612305 -73.59153794 180.33575941 -73.43774414 181.92529297 C-73.35295303 182.81054657 -73.26816193 183.69580017 -73.18080139 184.60787964 C-71.38675481 200.57844196 -63.70041019 215.63280646 -53.89453125 228.15625 C-53.38792969 228.83816406 -52.88132812 229.52007812 -52.359375 230.22265625 C-42.57980868 242.5011781 -27.02312221 250.05730157 -11.89453125 253.15625 C-7.67616441 253.57626347 -3.50653194 253.6341565 0.73046875 253.59375 C2.43952393 253.58021484 2.43952393 253.58021484 4.18310547 253.56640625 C23.08524872 253.1815754 41.29650517 247.91870413 55.07421875 234.34765625 C55.74453125 233.62449219 56.41484375 232.90132812 57.10546875 232.15625 C57.65203125 231.56714844 58.19859375 230.97804688 58.76171875 230.37109375 C65.41062952 222.32520439 69.80310789 211.85626161 73.39331055 202.13818359 C76.42923113 193.9556647 79.75940902 187.01763429 87.7109375 182.76171875 C97.80123179 178.73414007 107.62408576 178.33899966 118.10546875 181.15625 C123.92258085 184.16868305 127.27707153 187.67105834 129.35546875 193.90625 C133.48889966 213.97759471 123.38811453 235.82681365 114.10546875 253.15625 C113.44546875 253.15625 112.78546875 253.15625 112.10546875 253.15625 C111.91984375 254.3009375 111.91984375 254.3009375 111.73046875 255.46875 C111.10546875 258.15625 111.10546875 258.15625 109.10546875 261.15625 C108.44546875 261.15625 107.78546875 261.15625 107.10546875 261.15625 C106.77546875 262.47625 106.44546875 263.79625 106.10546875 265.15625 C105.44546875 265.15625 104.78546875 265.15625 104.10546875 265.15625 C103.87601563 265.87296875 103.6465625 266.5896875 103.41015625 267.328125 C101.84250497 270.7262673 99.88394343 272.77639676 97.23046875 275.40625 C96.36679688 276.27765625 95.503125 277.1490625 94.61328125 278.046875 C92.17836579 280.09493473 91.07169409 280.49117705 88.10546875 281.15625 C87.77546875 282.14625 87.44546875 283.13625 87.10546875 284.15625 C84.52473972 286.47890612 83.65370807 287.15625 80.10546875 287.15625 C79.77546875 287.81625 79.44546875 288.47625 79.10546875 289.15625 C73.96967445 293.25084682 68.50913251 296.01225698 62.37890625 298.28515625 C59.92433561 299.17280175 59.92433561 299.17280175 57.04296875 300.78125 C53.81483119 302.29229311 50.80175124 302.99010386 47.32421875 303.69140625 C45.41798712 304.0907752 43.53806208 304.61222285 41.66796875 305.15625 C16.18503779 312.30935343 -14.75804735 313.26462092 -39.86328125 303.8984375 C-42.15791703 303.06001289 -44.47659636 302.42826761 -46.83203125 301.78125 C-52.2006326 300.19147813 -56.95695025 297.75925811 -61.89453125 295.15625 C-63.24786514 294.50867341 -64.60198367 293.86273301 -65.95703125 293.21875 C-69.86503552 291.27668678 -73.42065904 288.89698088 -77.01171875 286.42578125 C-78.8650128 285.11715901 -78.8650128 285.11715901 -80.89453125 284.15625 C-80.89453125 283.49625 -80.89453125 282.83625 -80.89453125 282.15625 C-82.54453125 281.49625 -84.19453125 280.83625 -85.89453125 280.15625 C-85.89453125 279.49625 -85.89453125 278.83625 -85.89453125 278.15625 C-86.55453125 278.15625 -87.21453125 278.15625 -87.89453125 278.15625 C-87.89453125 277.49625 -87.89453125 276.83625 -87.89453125 276.15625 C-88.55453125 276.15625 -89.21453125 276.15625 -89.89453125 276.15625 C-89.89453125 275.49625 -89.89453125 274.83625 -89.89453125 274.15625 C-90.55453125 274.15625 -91.21453125 274.15625 -91.89453125 274.15625 C-91.89453125 273.49625 -91.89453125 272.83625 -91.89453125 272.15625 C-92.55453125 272.15625 -93.21453125 272.15625 -93.89453125 272.15625 C-93.89453125 271.49625 -93.89453125 270.83625 -93.89453125 270.15625 C-94.55453125 270.15625 -95.21453125 270.15625 -95.89453125 270.15625 C-95.89453125 269.49625 -95.89453125 268.83625 -95.89453125 268.15625 C-96.85359375 267.785 -96.85359375 267.785 -97.83203125 267.40625 C-99.89453125 266.15625 -99.89453125 266.15625 -100.45703125 264.09375 C-100.60140625 263.454375 -100.74578125 262.815 -100.89453125 262.15625 C-101.88453125 261.82625 -102.87453125 261.49625 -103.89453125 261.15625 C-103.89453125 260.16625 -103.89453125 259.17625 -103.89453125 258.15625 C-104.55453125 257.82625 -105.21453125 257.49625 -105.89453125 257.15625 C-108.89453125 253.69471154 -108.89453125 253.69471154 -108.89453125 250.15625 C-109.55453125 249.82625 -110.21453125 249.49625 -110.89453125 249.15625 C-134.2331678 209.88295816 -137.62609334 158.80375125 -127.89453125 115.15625 C-127.66459473 114.08584473 -127.4346582 113.01543945 -127.19775391 111.91259766 C-119.45263657 76.27848031 -101.78867731 43.08426774 -70.6875 22.5 C-49.12678835 8.89848183 -25.53506217 1.02447591 0 0 Z M-20.89453125 60.15625 C-21.95414063 60.53136719 -21.95414063 60.53136719 -23.03515625 60.9140625 C-30.55099235 63.54341876 -30.55099235 63.54341876 -36.89453125 68.15625 C-37.85359375 68.589375 -37.85359375 68.589375 -38.83203125 69.03125 C-41.27421238 70.3633488 -42.2545627 71.94585761 -43.89453125 74.15625 C-44.88453125 74.48625 -45.87453125 74.81625 -46.89453125 75.15625 C-46.89453125 75.81625 -46.89453125 76.47625 -46.89453125 77.15625 C-47.55453125 77.15625 -48.21453125 77.15625 -48.89453125 77.15625 C-48.89453125 77.81625 -48.89453125 78.47625 -48.89453125 79.15625 C-49.55453125 79.15625 -50.21453125 79.15625 -50.89453125 79.15625 C-50.89453125 79.81625 -50.89453125 80.47625 -50.89453125 81.15625 C-51.55453125 81.15625 -52.21453125 81.15625 -52.89453125 81.15625 C-53.22453125 82.14625 -53.55453125 83.13625 -53.89453125 84.15625 C-54.55453125 84.48625 -55.21453125 84.81625 -55.89453125 85.15625 C-55.89453125 85.81625 -55.89453125 86.47625 -55.89453125 87.15625 C-56.55453125 87.48625 -57.21453125 87.81625 -57.89453125 88.15625 C-58.20390625 88.775 -58.51328125 89.39375 -58.83203125 90.03125 C-59.89453125 92.15625 -59.89453125 92.15625 -61.35131836 93.56738281 C-63.89916149 96.19060115 -65.04720127 99.58329589 -66.45703125 102.90625 C-66.76060547 103.5971875 -67.06417969 104.288125 -67.37695312 105 C-69.80563492 110.62988547 -71.89453125 115.94632721 -71.89453125 122.15625 C-23.38453125 122.15625 25.12546875 122.15625 75.10546875 122.15625 C74.36451915 115.06513965 74.36451915 115.06513965 73.10546875 108.15625 C72.44546875 108.15625 71.78546875 108.15625 71.10546875 108.15625 C70.98171875 107.475625 70.85796875 106.795 70.73046875 106.09375 C70.01445998 102.7285088 69.0760175 99.45611575 68.10546875 96.15625 C67.44546875 96.15625 66.78546875 96.15625 66.10546875 96.15625 C65.03021681 93.50396188 64.01090724 90.87256546 63.10546875 88.15625 C62.44546875 87.82625 61.78546875 87.49625 61.10546875 87.15625 C60.77546875 86.16625 60.44546875 85.17625 60.10546875 84.15625 C59.44546875 83.82625 58.78546875 83.49625 58.10546875 83.15625 C57.77546875 82.16625 57.44546875 81.17625 57.10546875 80.15625 C56.44546875 80.15625 55.78546875 80.15625 55.10546875 80.15625 C55.10546875 79.49625 55.10546875 78.83625 55.10546875 78.15625 C54.44546875 78.15625 53.78546875 78.15625 53.10546875 78.15625 C53.10546875 77.49625 53.10546875 76.83625 53.10546875 76.15625 C52.44546875 76.15625 51.78546875 76.15625 51.10546875 76.15625 C51.10546875 75.49625 51.10546875 74.83625 51.10546875 74.15625 C50.44546875 74.15625 49.78546875 74.15625 49.10546875 74.15625 C49.10546875 73.49625 49.10546875 72.83625 49.10546875 72.15625 C48.44546875 72.15625 47.78546875 72.15625 47.10546875 72.15625 C46.61046875 71.16625 46.61046875 71.16625 46.10546875 70.15625 C27.57578305 54.93543675 1.25285424 52.13736905 -20.89453125 60.15625 Z " fill="#060606" transform="translate(135.89453125,100.84375)"/>
<path d="M0 0 C9.95824845 7.89030573 16.74268486 19.90195865 23.94140625 30.2109375 C30.75188841 39.94913885 37.83421402 49.44079211 45.0703125 58.8671875 C49.2212298 64.27497246 53.30833885 69.72912514 57.37109375 75.20336914 C59.15529209 77.59723212 60.88560586 79.88560586 63 82 C65.37674304 82.28189442 65.37674304 82.28189442 68 81 C70.43695274 78.59575268 72.41150436 75.87762458 74.4375 73.125 C75.04658203 72.31925537 75.65566406 71.51351074 76.28320312 70.68334961 C78.20393267 68.13315179 80.10380907 65.56848125 82 63 C83.17831057 61.41530893 84.35669409 59.8306721 85.53515625 58.24609375 C88.45132844 54.31164083 91.3468036 50.36238387 94.23681641 46.40869141 C97.79352925 41.54985329 101.3725133 36.70735974 104.94995117 31.86376953 C107.65520191 28.19745794 110.34922494 24.52454218 113.0078125 20.82421875 C123.05096704 6.86888514 131.8749516 -5.0010946 149.62890625 -8.53515625 C158.41738714 -9.74700935 169.07595389 -10.51740238 177 -5.8125 C181.52215581 -2.34551388 183.92411537 1.40342582 185 7 C185.66435904 15.21047493 184.35437611 21.56203558 181 29 C180.34 29 179.68 29 179 29 C178.67 30.32 178.34 31.64 178 33 C177.34 33 176.68 33 176 33 C175.67 34.32 175.34 35.64 175 37 C174.34 37 173.68 37 173 37 C172.67 38.32 172.34 39.64 172 41 C171.34 41 170.68 41 170 41 C169.67 42.32 169.34 43.64 169 45 C168.34 45 167.68 45 167 45 C166.67 46.32 166.34 47.64 166 49 C165.34 49 164.68 49 164 49 C163.67 50.32 163.34 51.64 163 53 C162.34 53 161.68 53 161 53 C160.67 54.32 160.34 55.64 160 57 C159.34 57 158.68 57 158 57 C157.67 58.32 157.34 59.64 157 61 C156.34 61 155.68 61 155 61 C154.67 62.32 154.34 63.64 154 65 C153.34 65 152.68 65 152 65 C151.67 66.32 151.34 67.64 151 69 C150.34 69 149.68 69 149 69 C148.67 70.32 148.34 71.64 148 73 C147.34 73 146.68 73 146 73 C145.67 74.32 145.34 75.64 145 77 C144.34 77 143.68 77 143 77 C142.67 78.32 142.34 79.64 142 81 C141.34 81 140.68 81 140 81 C139.67 82.32 139.34 83.64 139 85 C138.34 85 137.68 85 137 85 C136.67 86.32 136.34 87.64 136 89 C135.34 89 134.68 89 134 89 C133.67 90.32 133.34 91.64 133 93 C132.34 93 131.68 93 131 93 C130.67 94.32 130.34 95.64 130 97 C129.34 97 128.68 97 128 97 C128 97.66 128 98.32 128 99 C127.34 99 126.68 99 126 99 C125.67 100.32 125.34 101.64 125 103 C124.34 103 123.68 103 123 103 C122.67 104.32 122.34 105.64 122 107 C121.34 107 120.68 107 120 107 C119.67 108.32 119.34 109.64 119 111 C118.34 111 117.68 111 117 111 C116.67 112.32 116.34 113.64 116 115 C115.34 115 114.68 115 114 115 C113.67 116.32 113.34 117.64 113 119 C112.34 119 111.68 119 111 119 C110.67 120.32 110.34 121.64 110 123 C109.34 123 108.68 123 108 123 C107.67 124.32 107.34 125.64 107 127 C106.34 127 105.68 127 105 127 C103.57218132 129.05570224 103.57218132 129.05570224 103 132 C105.24662807 138.20497277 109.05078346 142.64903274 113.26953125 147.65234375 C116.54257106 151.5967142 119.54251228 155.73573092 122.5625 159.875 C127.63081657 166.81128216 132.77627325 173.67997697 138 180.5 C143.65381168 187.88620191 149.21470621 195.33195048 154.7109375 202.8359375 C159.07278722 208.77673735 163.52156887 214.64672972 168 220.5 C170.00309796 223.12579751 172.00480814 225.7526417 174.00537109 228.38037109 C175.34286216 230.1369536 176.68174599 231.89247645 178.02197266 233.64697266 C179.96242949 236.19456339 181.88910276 238.75201535 183.8125 241.3125 C184.39322266 242.07046875 184.97394531 242.8284375 185.57226562 243.609375 C191.11407327 251.03817808 193.52525889 257.3423396 193.375 266.625 C193.39240234 267.71167969 193.39240234 267.71167969 193.41015625 268.8203125 C193.37806996 274.72419065 192.03656058 278.96343942 187.75 283.25 C177.96712681 289.47546476 164.36179404 288.69750706 153.40234375 286.47265625 C147.25179645 284.86609907 141.82927694 282.18770633 137 278 C137 277.34 137 276.68 137 276 C136.34 276 135.68 276 135 276 C135 275.34 135 274.68 135 274 C134.34 274 133.68 274 133 274 C133 273.34 133 272.68 133 272 C132.34 272 131.68 272 131 272 C131 271.34 131 270.68 131 270 C130.34 269.67 129.68 269.34 129 269 C128.67 268.01 128.34 267.02 128 266 C127.34 265.67 126.68 265.34 126 265 C125.67 264.01 125.34 263.02 125 262 C124.34 261.67 123.68 261.34 123 261 C122.34 260.34 121.68 259.68 121 259 C121 258.01 121 257.02 121 256 C120.34 255.67 119.68 255.34 119 255 C118.34 254.34 117.68 253.68 117 253 C117 252.01 117 251.02 117 250 C116.01 249.67 115.02 249.34 114 249 C114 248.01 114 247.02 114 246 C113.34 245.67 112.68 245.34 112 245 C111.67 244.01 111.34 243.02 111 242 C110.34 241.67 109.68 241.34 109 241 C108.34 240.34 107.68 239.68 107 239 C107 238.01 107 237.02 107 236 C106.01 235.67 105.02 235.34 104 235 C104 234.01 104 233.02 104 232 C103.34 231.67 102.68 231.34 102 231 C101.67 230.01 101.34 229.02 101 228 C100.34 227.67 99.68 227.34 99 227 C98.34 226.34 97.68 225.68 97 225 C97 224.01 97 223.02 97 222 C96.01 221.67 95.02 221.34 94 221 C94 220.01 94 219.02 94 218 C93.34 217.67 92.68 217.34 92 217 C91.67 216.01 91.34 215.02 91 214 C90.34 213.67 89.68 213.34 89 213 C88.67 212.01 88.34 211.02 88 210 C87.34 209.67 86.68 209.34 86 209 C85.67 208.01 85.34 207.02 85 206 C84.34 205.67 83.68 205.34 83 205 C82.67 204.01 82.34 203.02 82 202 C81.34 201.67 80.68 201.34 80 201 C79.67 200.01 79.34 199.02 79 198 C78.34 197.67 77.68 197.34 77 197 C76.67 196.01 76.34 195.02 76 194 C75.34 193.67 74.68 193.34 74 193 C73.67 192.01 73.34 191.02 73 190 C72.34 189.67 71.68 189.34 71 189 C70.21625 188.13375 69.4325 187.2675 68.625 186.375 C66.33470113 183.75139734 66.33470113 183.75139734 63.9375 184.0625 C63.298125 184.371875 62.65875 184.68125 62 185 C60.9171875 185.4021875 60.9171875 185.4021875 59.8125 185.8125 C57.80603954 186.86527098 57.80603954 186.86527098 57.25 189.125 C57.1675 189.74375 57.085 190.3625 57 191 C56.34 191 55.68 191 55 191 C54.67 192.32 54.34 193.64 54 195 C53.34 195 52.68 195 52 195 C51.67 196.32 51.34 197.64 51 199 C50.34 199 49.68 199 49 199 C48.67 200.32 48.34 201.64 48 203 C47.34 203 46.68 203 46 203 C45.67 204.32 45.34 205.64 45 207 C44.34 207 43.68 207 43 207 C42.67 208.32 42.34 209.64 42 211 C41.34 211 40.68 211 40 211 C39.67 212.32 39.34 213.64 39 215 C38.34 215 37.68 215 37 215 C36.67 216.32 36.34 217.64 36 219 C35.34 219 34.68 219 34 219 C33.67 220.32 33.34 221.64 33 223 C32.34 223 31.68 223 31 223 C30.67 224.32 30.34 225.64 30 227 C29.34 227 28.68 227 28 227 C27.67 228.32 27.34 229.64 27 231 C26.34 231 25.68 231 25 231 C24.855625 231.61875 24.71125 232.2375 24.5625 232.875 C24 235 24 235 23 237 C22.34 237 21.68 237 21 237 C20.67 238.32 20.34 239.64 20 241 C19.34 241 18.68 241 18 241 C17.67 242.32 17.34 243.64 17 245 C16.34 245 15.68 245 15 245 C14.67 246.32 14.34 247.64 14 249 C13.34 249 12.68 249 12 249 C11.855625 249.61875 11.71125 250.2375 11.5625 250.875 C11 253 11 253 10 255 C9.34 255 8.68 255 8 255 C7.67 256.32 7.34 257.64 7 259 C6.34 259 5.68 259 5 259 C4.67 260.32 4.34 261.64 4 263 C3.34 263 2.68 263 2 263 C1.67 264.32 1.34 265.64 1 267 C0.34 267 -0.32 267 -1 267 C-1.33 268.32 -1.66 269.64 -2 271 C-2.66 271 -3.32 271 -4 271 C-4 271.66 -4 272.32 -4 273 C-4.66 273 -5.32 273 -6 273 C-6 273.66 -6 274.32 -6 275 C-6.66 275 -7.32 275 -8 275 C-8.25910156 275.60714844 -8.51820313 276.21429688 -8.78515625 276.83984375 C-11.70762336 282.03638495 -17.84072753 284.14296081 -23.3125 285.75 C-31.30711561 287.71807644 -40.9563723 289.43746294 -49 287 C-49.94875 286.731875 -50.8975 286.46375 -51.875 286.1875 C-56.71979734 284.34647701 -60.00373213 282.52761074 -62.875 278.125 C-65.758729 270.07818735 -65.00747506 259.89657409 -61.76953125 252.08203125 C-58.38708529 246.1907512 -54.03513519 241.00978948 -49.77734375 235.734375 C-46.22697466 231.33000552 -42.90029128 226.79849601 -39.625 222.1875 C-34.88847397 215.55258132 -30.02091409 209.03321853 -25.0625 202.5625 C-18.17486248 193.57158511 -11.41975951 184.49224736 -4.7265625 175.35595703 C-1.78156714 171.33740425 1.17119146 167.32457717 4.125 163.3125 C4.69984131 162.53100586 5.27468262 161.74951172 5.86694336 160.94433594 C8.70604106 157.09021152 11.55910637 153.24772899 14.44140625 149.42578125 C14.98845215 148.70028076 15.53549805 147.97478027 16.09912109 147.22729492 C17.12445284 145.87021966 18.15196716 144.51478939 19.18212891 143.16137695 C21.66777034 139.87407039 23.95874107 136.59097724 26 133 C25.34 132.071875 24.68 131.14375 24 130.1875 C22 127 22 127 22 124 C21.01 123.67 20.02 123.34 19 123 C19 122.01 19 121.02 19 120 C18.34 120 17.68 120 17 120 C17 119.34 17 118.68 17 118 C16.34 117.67 15.68 117.34 15 117 C14.67 116.01 14.34 115.02 14 114 C13.34 113.67 12.68 113.34 12 113 C11.67 112.01 11.34 111.02 11 110 C10.34 109.67 9.68 109.34 9 109 C8.67 108.01 8.34 107.02 8 106 C6.515 105.505 6.515 105.505 5 105 C5 104.01 5 103.02 5 102 C3.515 101.505 3.515 101.505 2 101 C2 100.01 2 99.02 2 98 C0.515 97.505 0.515 97.505 -1 97 C-1 96.01 -1 95.02 -1 94 C-1.66 94 -2.32 94 -3 94 C-3 93.34 -3 92.68 -3 92 C-3.99 91.505 -3.99 91.505 -5 91 C-5.33 90.01 -5.66 89.02 -6 88 C-6.99 87.505 -6.99 87.505 -8 87 C-8.33 86.01 -8.66 85.02 -9 84 C-9.99 83.505 -9.99 83.505 -11 83 C-11.33 82.01 -11.66 81.02 -12 80 C-12.99 79.67 -13.98 79.34 -15 79 C-15 78.01 -15 77.02 -15 76 C-15.99 75.67 -16.98 75.34 -18 75 C-18 74.01 -18 73.02 -18 72 C-18.99 71.67 -19.98 71.34 -21 71 C-21 70.01 -21 69.02 -21 68 C-21.66 68 -22.32 68 -23 68 C-23 67.34 -23 66.68 -23 66 C-23.99 65.505 -23.99 65.505 -25 65 C-25.33 64.01 -25.66 63.02 -26 62 C-26.99 61.505 -26.99 61.505 -28 61 C-28.33 60.01 -28.66 59.02 -29 58 C-29.99 57.505 -29.99 57.505 -31 57 C-31.33 56.01 -31.66 55.02 -32 54 C-33.485 53.505 -33.485 53.505 -35 53 C-35 52.01 -35 51.02 -35 50 C-36.485 49.505 -36.485 49.505 -38 49 C-38 48.01 -38 47.02 -38 46 C-39.485 45.505 -39.485 45.505 -41 45 C-41 44.01 -41 43.02 -41 42 C-41.66 42 -42.32 42 -43 42 C-43 41.34 -43 40.68 -43 40 C-43.66 39.67 -44.32 39.34 -45 39 C-45.33 38.01 -45.66 37.02 -46 36 C-46.66 35.67 -47.32 35.34 -48 35 C-48.495 33.515 -48.495 33.515 -49 32 C-49.66 31.67 -50.32 31.34 -51 31 C-52.25390625 29.29296875 -52.25390625 29.29296875 -53.5625 27.1875 C-53.99691406 26.50042969 -54.43132812 25.81335938 -54.87890625 25.10546875 C-58.34672432 18.59273726 -58.18422494 9.42561778 -56.31640625 2.4453125 C-54.21770553 -2.17008742 -51.59540368 -4.70229816 -47 -7 C-32.04192238 -12.54002875 -12.57235886 -9.45109616 0 0 Z " fill="#FDFDFD" transform="translate(312,117)"/>
<path d="M0 0 C34.26574463 -0.92083457 66.6255024 10.37713257 91.7421875 33.890625 C92.52207031 34.63828125 93.30195313 35.3859375 94.10546875 36.15625 C95.35263672 37.30867188 95.35263672 37.30867188 96.625 38.484375 C122.38277243 63.01558684 133.06777579 101.2207915 134.22998047 135.86816406 C134.34984793 143.63280181 134.28166001 151.39299208 134.10546875 159.15625 C133.44546875 159.15625 132.78546875 159.15625 132.10546875 159.15625 C132.11900391 160.02636719 132.11900391 160.02636719 132.1328125 160.9140625 C131.99921188 164.43414832 131.86714168 167.15260915 129.69140625 170.01953125 C124.2678419 174.83384057 118.75661968 176.28287558 111.67026234 176.92122746 C110.05458528 177.06927856 108.44015153 177.2324193 106.82823467 177.41696072 C98.24135802 178.34342606 89.68875878 178.24964821 81.06762695 178.17797852 C79.37144738 178.16781637 77.67526494 178.15812485 75.9790802 178.14886475 C71.40545728 178.12257741 66.8319024 178.08976007 62.25833154 178.05571485 C57.46710065 178.02117832 52.6758336 177.99272423 47.88456726 177.96360779 C38.82549771 177.90764055 29.76647344 177.84625238 20.70745295 177.78288645 C10.38819453 177.71097162 0.06890003 177.64514595 -10.25040185 177.57981598 C-31.46515854 177.44537291 -52.67985869 177.30333428 -73.89453125 177.15625 C-73.74428762 178.74612305 -73.59153794 180.33575941 -73.43774414 181.92529297 C-73.35295303 182.81054657 -73.26816193 183.69580017 -73.18080139 184.60787964 C-71.38675481 200.57844196 -63.70041019 215.63280646 -53.89453125 228.15625 C-53.38792969 228.83816406 -52.88132812 229.52007812 -52.359375 230.22265625 C-42.57980868 242.5011781 -27.02312221 250.05730157 -11.89453125 253.15625 C-7.67616441 253.57626347 -3.50653194 253.6341565 0.73046875 253.59375 C2.43952393 253.58021484 2.43952393 253.58021484 4.18310547 253.56640625 C23.08524872 253.1815754 41.29650517 247.91870413 55.07421875 234.34765625 C55.74453125 233.62449219 56.41484375 232.90132812 57.10546875 232.15625 C57.65203125 231.56714844 58.19859375 230.97804688 58.76171875 230.37109375 C65.41062952 222.32520439 69.80310789 211.85626161 73.39331055 202.13818359 C76.42923113 193.9556647 79.75940902 187.01763429 87.7109375 182.76171875 C97.80123179 178.73414007 107.62408576 178.33899966 118.10546875 181.15625 C123.92258085 184.16868305 127.27707153 187.67105834 129.35546875 193.90625 C133.48889966 213.97759471 123.38811453 235.82681365 114.10546875 253.15625 C113.44546875 253.15625 112.78546875 253.15625 112.10546875 253.15625 C111.91984375 254.3009375 111.91984375 254.3009375 111.73046875 255.46875 C111.10546875 258.15625 111.10546875 258.15625 109.10546875 261.15625 C108.44546875 261.15625 107.78546875 261.15625 107.10546875 261.15625 C106.77546875 262.47625 106.44546875 263.79625 106.10546875 265.15625 C105.44546875 265.15625 104.78546875 265.15625 104.10546875 265.15625 C103.87601563 265.87296875 103.6465625 266.5896875 103.41015625 267.328125 C101.84250497 270.7262673 99.88394343 272.77639676 97.23046875 275.40625 C96.36679688 276.27765625 95.503125 277.1490625 94.61328125 278.046875 C92.17836579 280.09493473 91.07169409 280.49117705 88.10546875 281.15625 C87.77546875 282.14625 87.44546875 283.13625 87.10546875 284.15625 C84.52473972 286.47890612 83.65370807 287.15625 80.10546875 287.15625 C79.77546875 287.81625 79.44546875 288.47625 79.10546875 289.15625 C73.96967445 293.25084682 68.50913251 296.01225698 62.37890625 298.28515625 C59.92433561 299.17280175 59.92433561 299.17280175 57.04296875 300.78125 C53.81483119 302.29229311 50.80175124 302.99010386 47.32421875 303.69140625 C45.41798712 304.0907752 43.53806208 304.61222285 41.66796875 305.15625 C16.18503779 312.30935343 -14.75804735 313.26462092 -39.86328125 303.8984375 C-42.15791703 303.06001289 -44.47659636 302.42826761 -46.83203125 301.78125 C-52.2006326 300.19147813 -56.95695025 297.75925811 -61.89453125 295.15625 C-63.24786514 294.50867341 -64.60198367 293.86273301 -65.95703125 293.21875 C-69.86503552 291.27668678 -73.42065904 288.89698088 -77.01171875 286.42578125 C-78.8650128 285.11715901 -78.8650128 285.11715901 -80.89453125 284.15625 C-80.89453125 283.49625 -80.89453125 282.83625 -80.89453125 282.15625 C-82.54453125 281.49625 -84.19453125 280.83625 -85.89453125 280.15625 C-85.89453125 279.49625 -85.89453125 278.83625 -85.89453125 278.15625 C-86.55453125 278.15625 -87.21453125 278.15625 -87.89453125 278.15625 C-87.89453125 277.49625 -87.89453125 276.83625 -87.89453125 276.15625 C-88.55453125 276.15625 -89.21453125 276.15625 -89.89453125 276.15625 C-89.89453125 275.49625 -89.89453125 274.83625 -89.89453125 274.15625 C-90.55453125 274.15625 -91.21453125 274.15625 -91.89453125 274.15625 C-91.89453125 273.49625 -91.89453125 272.83625 -91.89453125 272.15625 C-92.55453125 272.15625 -93.21453125 272.15625 -93.89453125 272.15625 C-93.89453125 271.49625 -93.89453125 270.83625 -93.89453125 270.15625 C-94.55453125 270.15625 -95.21453125 270.15625 -95.89453125 270.15625 C-95.89453125 269.49625 -95.89453125 268.83625 -95.89453125 268.15625 C-96.85359375 267.785 -96.85359375 267.785 -97.83203125 267.40625 C-99.89453125 266.15625 -99.89453125 266.15625 -100.45703125 264.09375 C-100.60140625 263.454375 -100.74578125 262.815 -100.89453125 262.15625 C-101.88453125 261.82625 -102.87453125 261.49625 -103.89453125 261.15625 C-103.89453125 260.16625 -103.89453125 259.17625 -103.89453125 258.15625 C-104.55453125 257.82625 -105.21453125 257.49625 -105.89453125 257.15625 C-108.89453125 253.69471154 -108.89453125 253.69471154 -108.89453125 250.15625 C-109.55453125 249.82625 -110.21453125 249.49625 -110.89453125 249.15625 C-134.2331678 209.88295816 -137.62609334 158.80375125 -127.89453125 115.15625 C-127.66459473 114.08584473 -127.4346582 113.01543945 -127.19775391 111.91259766 C-119.45263657 76.27848031 -101.78867731 43.08426774 -70.6875 22.5 C-49.12678835 8.89848183 -25.53506217 1.02447591 0 0 Z M-72.67578125 49.11328125 C-74.89453125 51.15625 -74.89453125 51.15625 -77.44140625 53.14453125 C-96.20281496 68.53008139 -105.7032032 95.40098937 -110.89453125 118.15625 C-111.13864746 119.2169873 -111.38276367 120.27772461 -111.63427734 121.37060547 C-120.25851962 159.94376554 -116.58423685 205.26699264 -95.65161133 239.8125 C-91.38018303 246.53329811 -86.42942545 252.44128218 -80.89453125 258.15625 C-80.18296875 258.96449219 -79.47140625 259.77273438 -78.73828125 260.60546875 C-59.11781783 282.00655641 -27.88423804 291.06497649 0.26953125 292.3828125 C31.64581043 293.31195904 60.11434081 282.72266019 83.47265625 262.0625 C88.79505237 257.00933014 93.04729344 251.25143909 97.10546875 245.15625 C97.76546875 244.17527344 98.42546875 243.19429687 99.10546875 242.18359375 C106.96660935 229.54742438 112.84524565 214.0304325 114.10546875 199.15625 C109.55114269 196.8056301 105.12164359 196.43080672 100.10546875 197.15625 C92.52547227 201.08661855 90.53304952 206.31511366 87.91796875 213.96875 C80.07448097 235.82218606 68.45712444 252.52553165 47.23046875 263.34375 C22.75133147 274.09928931 -7.43676541 275.91217855 -32.58203125 266.90625 C-56.10141417 257.23365188 -72.3642817 239.74280542 -82.37890625 216.69750977 C-90.02649586 198.18088096 -91.24708997 178.9255453 -92.89453125 159.15625 C-23.59453125 159.15625 45.70546875 159.15625 117.10546875 159.15625 C117.10546875 121.78773941 113.7724707 86.09591158 88.10546875 57.15625 C87.24501953 56.09857422 87.24501953 56.09857422 86.3671875 55.01953125 C81.61286776 49.24399724 76.01716996 44.70751788 70.10546875 40.15625 C69.33589844 39.5478125 68.56632813 38.939375 67.7734375 38.3125 C25.4485654 6.58687185 -35.14136956 13.82836341 -72.67578125 49.11328125 Z " fill="#FEFEFE" transform="translate(135.89453125,100.84375)"/>
<path d="M0 0 C6.33227844 3.73244054 10.34177018 8.7417816 14.5 14.6875 C15.00225098 15.39745117 15.50450195 16.10740234 16.02197266 16.83886719 C18.97968845 21.02525322 21.91108301 25.22930859 24.83203125 29.44140625 C36.93385498 46.83077635 49.96318925 63.56533265 62.859375 80.3671875 C63.57367676 81.29998535 64.28797852 82.2327832 65.02392578 83.19384766 C66.37921849 84.96363379 67.73679854 86.73167176 69.09716797 88.49755859 C73.1228194 93.7573666 76.89898314 99.12821111 80.5 104.6875 C85.10520856 100.39568937 88.71559293 95.56212285 92.4375 90.5 C97.40075855 83.81060266 102.4194639 77.17717696 107.5625 70.625 C114.12651796 62.23974628 120.45309869 53.69265416 126.73681641 45.09619141 C130.29197022 40.23948309 133.86906265 35.39886771 137.44555664 30.55786133 C140.17787474 26.85564952 142.89676999 23.14557821 145.578125 19.40625 C159.4238083 0.13289155 159.4238083 0.13289155 169.5 -2.3125 C175.50644063 -2.77555159 181.67652947 -3.08110957 187.5 -1.3125 C186.15842979 1.56490935 184.6326025 3.96594676 182.6640625 6.453125 C182.10090332 7.16960205 181.53774414 7.8860791 180.95751953 8.62426758 C180.35278809 9.38763428 179.74805664 10.15100098 179.125 10.9375 C174.56334586 16.74733018 170.03900706 22.57709988 165.625 28.5 C160.9562562 34.75975057 156.2389224 40.98070559 151.5 47.1875 C146.80751634 53.33514986 142.13040766 59.4929481 137.5 65.6875 C127.43722731 79.14029362 117.2930683 92.53337637 106.83203125 105.6796875 C105.12399919 107.88267692 103.42436126 110.08434544 101.765625 112.32421875 C101.35731445 112.87295654 100.94900391 113.42169434 100.52832031 113.98706055 C98.64242193 117.1055986 98.14800882 120.0798088 98.5 123.6875 C100.73686855 130.05572782 105.00947631 135.24389862 109.1875 140.4375 C110.44997791 142.03325385 111.71169721 143.62960817 112.97265625 145.2265625 C113.58125488 145.99387695 114.18985352 146.76119141 114.81689453 147.55175781 C118.47341804 152.19162838 121.9732946 156.94867996 125.5 161.6875 C127.43548312 164.27234716 129.3741569 166.85479716 131.3125 169.4375 C132.34247338 170.81117883 133.37242113 172.18487686 134.40234375 173.55859375 C136.41318569 176.23992639 138.42626196 178.91955576 140.44140625 181.59765625 C145.75236832 188.66032272 151.02239367 195.75038507 156.25 202.875 C161.26165114 209.7017907 166.35359557 216.46178225 171.5 223.1875 C176.82374225 230.14891877 182.10426969 237.13913785 187.3125 244.1875 C187.89322266 244.97060547 188.47394531 245.75371094 189.07226562 246.56054688 C191.73535952 250.17815472 194.28495693 253.7703712 196.5 257.6875 C186.95521385 259.85757153 177.05185113 259.86289211 168.5 254.6875 C163.26313858 250.81586626 159.55282285 246.43700536 155.9375 241.0625 C154.89325778 239.54815735 153.8489857 238.03383529 152.8046875 236.51953125 C152.26553711 235.7301416 151.72638672 234.94075195 151.17089844 234.12744141 C148.33125039 229.98082501 145.44556362 225.866494 142.5625 221.75 C141.97452637 220.90937012 141.38655273 220.06874023 140.78076172 219.20263672 C131.79845601 206.3781602 122.5821932 193.74202727 113.16748047 181.23193359 C106.54574148 172.43196853 99.99947802 163.57809034 93.5 154.6875 C92.97905762 153.97674316 92.45811523 153.26598633 91.92138672 152.53369141 C90.48362283 150.56814662 89.05290255 148.59771583 87.625 146.625 C87.20178467 146.0470166 86.77856934 145.4690332 86.3425293 144.87353516 C83.5 140.91855398 83.5 140.91855398 83.5 138.6875 C81.03825349 139.06673846 79.77645368 139.403776 78.01464844 141.21191406 C77.5509082 141.86901367 77.08716797 142.52611328 76.609375 143.203125 C76.073125 143.94884766 75.536875 144.69457031 74.984375 145.46289062 C74.12585938 146.68782227 74.12585938 146.68782227 73.25 147.9375 C71.99655531 149.68355908 70.74127874 151.42830426 69.484375 153.171875 C68.83146484 154.08130859 68.17855469 154.99074219 67.50585938 155.92773438 C64.24944623 160.40807691 60.87378646 164.79527376 57.5 169.1875 C50.63263933 178.16078525 43.89921285 187.22487989 37.22216797 196.34033203 C35.47709387 198.71871911 33.72592383 201.09249134 31.97265625 203.46484375 C23.6472988 214.7313989 15.41540725 226.06279822 7.24121094 237.43945312 C-5.89609225 255.71840583 -5.89609225 255.71840583 -16.5 258.6875 C-19.7890625 258.91796875 -19.7890625 258.91796875 -23.125 258.875 C-24.23101562 258.86855469 -25.33703125 258.86210937 -26.4765625 258.85546875 C-28.99557022 258.71552388 -31.10014013 258.41916459 -33.5 257.6875 C-32.01903168 254.49095451 -30.21175354 251.77266726 -28.125 248.9375 C-27.41085937 247.96683594 -26.69671875 246.99617187 -25.9609375 245.99609375 C-20.67652464 238.87879896 -15.34514442 231.79666297 -10.01464844 224.71386719 C-3.60142949 216.19007718 2.7603639 207.6310495 9.07763672 199.03588867 C13.97495285 192.38092216 18.92930639 185.77002788 23.89599609 179.16674805 C28.11295305 173.55412984 32.28614589 167.91125938 36.4375 162.25 C42.16148315 154.44531256 48.00206629 146.73457872 53.90795898 139.06665039 C58.26966216 133.38270964 62.43745537 127.58888887 66.5 121.6875 C62.52708489 115.36371381 58.07332631 109.56223923 53.38232422 103.76586914 C47.78661014 96.8400824 42.40127258 89.7597964 37.01220703 82.67285156 C34.78866065 79.75359435 32.55175667 76.84471424 30.3125 73.9375 C29.51457031 72.90109375 28.71664062 71.8646875 27.89453125 70.796875 C27.10433594 69.77078125 26.31414062 68.7446875 25.5 67.6875 C23.41382771 64.97621725 21.32829415 62.26444323 19.24267578 59.55273438 C17.19766013 56.89397522 15.15205183 54.23567823 13.10546875 51.578125 C8.39239932 45.45646454 3.69148236 39.32572207 -1 33.1875 C-2.1093444 31.73695576 -3.21871902 30.28643464 -4.328125 28.8359375 C-6.2988402 26.25930445 -8.26748405 23.68111536 -10.234375 21.1015625 C-14.98265939 14.88857459 -19.831244 8.80127223 -24.8828125 2.83203125 C-26.5 0.6875 -26.5 0.6875 -26.5 -1.3125 C-18.36416793 -4.02444402 -7.78595374 -3.49614439 0 0 Z " fill="#060606" transform="translate(295.5,128.3125)"/>
<path d="M0 0 C22.02129319 18.5442469 33.7309732 45.13042773 36.41015625 73.55078125 C36.57977885 77.40530854 36.5234375 81.2667423 36.5234375 85.125 C-25.1865625 85.125 -86.8965625 85.125 -150.4765625 85.125 C-150.4765625 69.74845873 -150.4765625 69.74845873 -148.9765625 62.5625 C-148.80423096 61.72533447 -148.63189941 60.88816895 -148.4543457 60.02563477 C-145.37807064 46.21008216 -139.97968141 32.50609762 -131.4765625 21.125 C-130.83847656 20.26777344 -130.20039063 19.41054687 -129.54296875 18.52734375 C-127.58497858 15.99684184 -125.56399046 13.5495029 -123.4765625 11.125 C-122.89648438 10.44824219 -122.31640625 9.77148438 -121.71875 9.07421875 C-90.81436475 -24.30519303 -35.33299005 -27.16289926 0 0 Z M-79.4765625 4.125 C-80.53617188 4.50011719 -80.53617188 4.50011719 -81.6171875 4.8828125 C-89.1330236 7.51216876 -89.1330236 7.51216876 -95.4765625 12.125 C-96.435625 12.558125 -96.435625 12.558125 -97.4140625 13 C-99.85624363 14.3320988 -100.83659395 15.91460761 -102.4765625 18.125 C-103.4665625 18.455 -104.4565625 18.785 -105.4765625 19.125 C-105.4765625 19.785 -105.4765625 20.445 -105.4765625 21.125 C-106.1365625 21.125 -106.7965625 21.125 -107.4765625 21.125 C-107.4765625 21.785 -107.4765625 22.445 -107.4765625 23.125 C-108.1365625 23.125 -108.7965625 23.125 -109.4765625 23.125 C-109.4765625 23.785 -109.4765625 24.445 -109.4765625 25.125 C-110.1365625 25.125 -110.7965625 25.125 -111.4765625 25.125 C-111.8065625 26.115 -112.1365625 27.105 -112.4765625 28.125 C-113.1365625 28.455 -113.7965625 28.785 -114.4765625 29.125 C-114.4765625 29.785 -114.4765625 30.445 -114.4765625 31.125 C-115.1365625 31.455 -115.7965625 31.785 -116.4765625 32.125 C-116.7859375 32.74375 -117.0953125 33.3625 -117.4140625 34 C-118.4765625 36.125 -118.4765625 36.125 -119.93334961 37.53613281 C-122.48119274 40.15935115 -123.62923252 43.55204589 -125.0390625 46.875 C-125.34263672 47.5659375 -125.64621094 48.256875 -125.95898438 48.96875 C-128.38766617 54.59863547 -130.4765625 59.91507721 -130.4765625 66.125 C-81.9665625 66.125 -33.4565625 66.125 16.5234375 66.125 C15.7824879 59.03388965 15.7824879 59.03388965 14.5234375 52.125 C13.8634375 52.125 13.2034375 52.125 12.5234375 52.125 C12.3996875 51.444375 12.2759375 50.76375 12.1484375 50.0625 C11.43242873 46.6972588 10.49398625 43.42486575 9.5234375 40.125 C8.8634375 40.125 8.2034375 40.125 7.5234375 40.125 C6.44818556 37.47271188 5.42887599 34.84131546 4.5234375 32.125 C3.8634375 31.795 3.2034375 31.465 2.5234375 31.125 C2.1934375 30.135 1.8634375 29.145 1.5234375 28.125 C0.8634375 27.795 0.2034375 27.465 -0.4765625 27.125 C-0.8065625 26.135 -1.1365625 25.145 -1.4765625 24.125 C-2.1365625 24.125 -2.7965625 24.125 -3.4765625 24.125 C-3.4765625 23.465 -3.4765625 22.805 -3.4765625 22.125 C-4.1365625 22.125 -4.7965625 22.125 -5.4765625 22.125 C-5.4765625 21.465 -5.4765625 20.805 -5.4765625 20.125 C-6.1365625 20.125 -6.7965625 20.125 -7.4765625 20.125 C-7.4765625 19.465 -7.4765625 18.805 -7.4765625 18.125 C-8.1365625 18.125 -8.7965625 18.125 -9.4765625 18.125 C-9.4765625 17.465 -9.4765625 16.805 -9.4765625 16.125 C-10.1365625 16.125 -10.7965625 16.125 -11.4765625 16.125 C-11.9715625 15.135 -11.9715625 15.135 -12.4765625 14.125 C-31.0062482 -1.09581325 -57.32917701 -3.89388095 -79.4765625 4.125 Z " fill="#FEFEFE" transform="translate(194.4765625,156.875)"/>
<path d="M0 0 C0.66 0.33 1.32 0.66 2 1 C-2.62 5.62 -7.24 10.24 -12 15 C-12.66 14.67 -13.32 14.34 -14 14 C-11.03750349 9.92656729 -7.61640648 6.79433834 -3.8046875 3.55078125 C-1.92288746 1.97318991 -1.92288746 1.97318991 0 0 Z " fill="#2A2A2A" transform="translate(68,145)"/>
</svg>
