<?xml version="1.0" encoding="UTF-8"?>
<svg version="1.1" xmlns="http://www.w3.org/2000/svg" width="512" height="512">
<path d="M0 0 C5.85662499 4.77031552 7.84688047 11.20002187 9.625 18.3125 C10.470625 18.44785156 11.31625 18.58320312 12.1875 18.72265625 C20.00508989 20.2062216 25.50885056 22.02389965 30.625 28.3125 C31.16125 29.405625 31.6975 30.49875 32.25 31.625 C33.37658435 34.56205545 33.37658435 34.56205545 36.3359375 35.36328125 C37.42132813 35.67652344 38.50671875 35.98976562 39.625 36.3125 C47.09440948 38.62723888 53.37469929 40.69187347 59.41796875 45.83984375 C69.7812992 54.4143817 82.09048747 59.25744907 94.6015625 63.828125 C109.20567415 69.18415617 123.07645441 75.01724647 130.375 89.875 C132.84926393 97.06667922 132.79036194 105.64970327 129.65625 112.62890625 C126.98878574 116.98374373 123.46065875 119.32170907 118.625 120.625 C110.84324599 122.02783321 102.33264066 122.12350579 94.625 120.3125 C93.42286266 124.50249459 93.72575787 128.3858949 94.04296875 132.6875 C94.09989899 133.51618088 94.15682922 134.34486176 94.21548462 135.19865417 C94.40548483 137.90400848 94.60736744 140.60825289 94.8125 143.3125 C94.88157562 144.23543854 94.95065125 145.15837708 95.02182007 146.10928345 C98.23154222 188.45382652 104.82359108 229.06947183 134.07666016 261.56982422 C136.1423717 263.89480829 138.13382311 266.27845593 140.13061523 268.66259766 C150.76714884 281.29576206 161.59839404 291.50276313 175.625 300.3125 C176.36137695 300.78075195 177.09775391 301.24900391 177.85644531 301.73144531 C192.70873825 311.07864125 214.29525201 323.50383415 232.4765625 322.9296875 C236.14046365 321.87714862 238.11469319 319.19820745 240.58984375 316.41796875 C246.3562779 310.45231039 254.38116306 307.63960255 262.52734375 307.01171875 C263.87226154 306.99231536 265.21748952 306.98872311 266.5625 307 C267.26544189 307.00563965 267.96838379 307.0112793 268.69262695 307.01708984 C275.67012761 307.18061869 280.06372829 308.09273118 285.4375 312.75 C287.70891602 315.75590863 288.40389632 318.89985718 289.26171875 322.53515625 C289.52041748 323.61676025 289.77911621 324.69836426 290.0456543 325.81274414 C290.23683838 326.63766357 290.42802246 327.46258301 290.625 328.3125 C291.18939285 328.33089432 291.75378571 328.34928864 292.33528137 328.36824036 C298.25792036 328.56385516 304.17969816 328.77789016 310.10131836 329.00219727 C312.30557953 329.08333472 314.51001364 329.15991682 316.71459961 329.23168945 C319.90015107 329.33621649 323.08470196 329.45760935 326.26953125 329.58203125 C327.24082474 329.61029495 328.21211823 329.63855865 329.21284485 329.66767883 C337.41530812 330.01505133 346.97878261 331.04136207 353.625 336.3125 C353.625 336.9725 353.625 337.6325 353.625 338.3125 C354.285 338.3125 354.945 338.3125 355.625 338.3125 C360.0643427 348.02356216 361.50322748 357.98790213 358.375 368.375 C356.14811112 373.98384629 353.0866574 377.64517894 347.625 380.3125 C343.71090985 381.61719672 339.79526219 382.48484963 335.75 383.25 C332.42966095 383.88698347 329.31388587 384.69131928 326.125 385.8125 C318.13479895 388.57833883 310.27695522 389.47080513 301.87109375 390.03515625 C294.56544403 390.65934534 287.65103513 392.26856251 280.625 394.3125 C273.63792358 396.04572826 266.57658299 396.81649587 259.43237305 397.56030273 C254.9651484 398.03065862 250.55477327 398.617054 246.125 399.375 C241.23887683 400.15394717 236.37847943 400.59715033 231.44140625 400.86328125 C230.66233414 400.90560883 229.88326202 400.9479364 229.08058167 400.99154663 C220.89635092 401.40077601 212.71915857 401.46411139 204.52612305 401.44287109 C202.03232949 401.43743422 199.53871059 401.44290105 197.04492188 401.44921875 C195.42447878 401.44855896 193.80403579 401.44727985 192.18359375 401.4453125 C191.45530869 401.44733673 190.72702362 401.44936096 189.97666931 401.45144653 C185.47483235 401.43123242 181.0838006 401.10254745 176.61520386 400.55404663 C173.85346703 400.21886075 171.08684237 400.01400865 168.3125 399.8125 C167.21035156 399.73 166.10820312 399.6475 164.97265625 399.5625 C163.86792969 399.48 162.76320313 399.3975 161.625 399.3125 C155.25491481 398.82308169 148.94289254 398.28448347 142.625 397.3125 C141.29175698 397.16584327 139.95841905 397.02004749 138.625 396.875 C134.82375494 396.41357719 131.30243683 395.3822998 127.625 394.3125 C125.2943782 393.96070803 122.96064933 393.62919821 120.625 393.3125 C115.13117217 392.34145718 109.89179733 391.17782405 104.625 389.3125 C103.00152019 388.82820772 101.37635171 388.34955855 99.75 387.875 C95.96800082 386.75001071 92.28961469 385.48396343 88.61328125 384.0546875 C86.51209576 383.270355 84.39097779 382.60491514 82.25 381.9375 C77.10339876 380.24558806 72.41884461 377.81092065 67.625 375.3125 C66.31361628 374.66440303 65.00117787 374.01843406 63.6875 373.375 C45.58922765 364.28952192 45.58922765 364.28952192 37.625 358.3125 C37.625 357.6525 37.625 356.9925 37.625 356.3125 C36.75101562 356.16361328 36.75101562 356.16361328 35.859375 356.01171875 C33.19750359 355.17872053 31.9045894 354.02459504 29.875 352.125 C26.44720005 348.99358877 22.8919563 346.24026741 19.09375 343.57421875 C18.6090625 343.15785156 18.124375 342.74148438 17.625 342.3125 C17.625 341.6525 17.625 340.9925 17.625 340.3125 C17.026875 340.209375 16.42875 340.10625 15.8125 340 C13.31241714 339.21425967 12.24964918 338.34331147 10.625 336.3125 C10.625 335.6525 10.625 334.9925 10.625 334.3125 C9.965 334.3125 9.305 334.3125 8.625 334.3125 C8.625 333.6525 8.625 332.9925 8.625 332.3125 C7.965 332.3125 7.305 332.3125 6.625 332.3125 C6.625 331.6525 6.625 330.9925 6.625 330.3125 C5.305 329.9825 3.985 329.6525 2.625 329.3125 C2.625 328.3225 2.625 327.3325 2.625 326.3125 C1.965 326.3125 1.305 326.3125 0.625 326.3125 C0.625 325.6525 0.625 324.9925 0.625 324.3125 C-0.365 323.9825 -1.355 323.6525 -2.375 323.3125 C-2.375 322.3225 -2.375 321.3325 -2.375 320.3125 C-3.3340625 319.94125 -3.3340625 319.94125 -4.3125 319.5625 C-6.919301 317.98262061 -6.66695078 317.14469689 -7.375 314.3125 C-8.2721875 313.879375 -8.2721875 313.879375 -9.1875 313.4375 C-12.3815746 311.79483306 -13.5963211 309.36166382 -15.375 306.3125 C-15.375 305.6525 -15.375 304.9925 -15.375 304.3125 C-16.365 303.9825 -17.355 303.6525 -18.375 303.3125 C-18.375 302.3225 -18.375 301.3325 -18.375 300.3125 C-19.365 299.9825 -20.355 299.6525 -21.375 299.3125 C-21.375 298.3225 -21.375 297.3325 -21.375 296.3125 C-22.035 295.9825 -22.695 295.6525 -23.375 295.3125 C-24.035 294.6525 -24.695 293.9925 -25.375 293.3125 C-25.375 292.3225 -25.375 291.3325 -25.375 290.3125 C-26.035 289.9825 -26.695 289.6525 -27.375 289.3125 C-28.035 288.6525 -28.695 287.9925 -29.375 287.3125 C-29.375 286.3225 -29.375 285.3325 -29.375 284.3125 C-30.035 283.9825 -30.695 283.6525 -31.375 283.3125 C-34.375 279.85096154 -34.375 279.85096154 -34.375 276.3125 C-35.035 275.9825 -35.695 275.6525 -36.375 275.3125 C-37.42752373 273.74229476 -38.41969712 272.13117967 -39.375 270.5 C-40.1484375 269.19095703 -40.1484375 269.19095703 -40.9375 267.85546875 C-44.375 261.77445652 -44.375 261.77445652 -44.375 258.3125 C-45.035 257.9825 -45.695 257.6525 -46.375 257.3125 C-47.71971585 254.87241958 -48.97328765 252.44154745 -50.1875 249.9375 C-50.54642334 249.206521 -50.90534668 248.47554199 -51.27514648 247.72241211 C-55.46173243 239.15598418 -59.33957728 230.49069703 -63 221.6875 C-63.2894751 220.99470947 -63.5789502 220.30191895 -63.87719727 219.58813477 C-67.34231534 211.16487993 -69.90234647 202.6226561 -72.08203125 193.78515625 C-72.59160544 191.75450924 -73.10137758 189.7239119 -73.61132812 187.69335938 C-74.39701069 184.54843651 -75.18055784 181.4030165 -75.96020508 178.2565918 C-81.30085209 156.4992654 -81.30085209 156.4992654 -89.00439453 135.4921875 C-94.38414186 123.01163367 -92.84602476 109.60286129 -88.6015625 97.01953125 C-86.69893349 92.78661809 -83.94869286 89.57306149 -80.9375 86.0625 C-76.92387021 81.33826034 -74.59282702 76.86662892 -72.54296875 71.0390625 C-70.04116221 65.19872483 -67.03557156 62.96084985 -61.3125 60.5 C-57.17632556 58.285723 -57.17632556 58.285723 -54.578125 54.52929688 C-53.64645973 51.09877226 -53.23954639 47.68337975 -52.90234375 44.15234375 C-52.375 40.3125 -52.375 40.3125 -50.81640625 37.49609375 C-48.36262689 32.07649977 -49.25551503 26.38877884 -49.4921875 20.54296875 C-49.66685822 13.46880452 -49.11007772 7.95712007 -44.71875 2.10546875 C-32.61860904 -8.4308828 -13.23889578 -8.94783564 0 0 Z " fill="#090909" transform="translate(132.375,50.6875)"/>
<path d="M0 0 C5.85662499 4.77031552 7.84688047 11.20002187 9.625 18.3125 C10.470625 18.44785156 11.31625 18.58320312 12.1875 18.72265625 C20.00508989 20.2062216 25.50885056 22.02389965 30.625 28.3125 C31.16125 29.405625 31.6975 30.49875 32.25 31.625 C33.37658435 34.56205545 33.37658435 34.56205545 36.3359375 35.36328125 C37.42132813 35.67652344 38.50671875 35.98976562 39.625 36.3125 C47.09440948 38.62723888 53.37469929 40.69187347 59.41796875 45.83984375 C69.7812992 54.4143817 82.09048747 59.25744907 94.6015625 63.828125 C109.20567415 69.18415617 123.07645441 75.01724647 130.375 89.875 C132.84926393 97.06667922 132.79036194 105.64970327 129.65625 112.62890625 C126.98878574 116.98374373 123.46065875 119.32170907 118.625 120.625 C110.84324599 122.02783321 102.33264066 122.12350579 94.625 120.3125 C93.42286266 124.50249459 93.72575787 128.3858949 94.04296875 132.6875 C94.09989899 133.51618088 94.15682922 134.34486176 94.21548462 135.19865417 C94.40548483 137.90400848 94.60736744 140.60825289 94.8125 143.3125 C94.88157562 144.23543854 94.95065125 145.15837708 95.02182007 146.10928345 C98.23154222 188.45382652 104.82359108 229.06947183 134.07666016 261.56982422 C136.1423717 263.89480829 138.13382311 266.27845593 140.13061523 268.66259766 C150.76714884 281.29576206 161.59839404 291.50276313 175.625 300.3125 C176.36137695 300.78075195 177.09775391 301.24900391 177.85644531 301.73144531 C192.70873825 311.07864125 214.29525201 323.50383415 232.4765625 322.9296875 C236.14046365 321.87714862 238.11469319 319.19820745 240.58984375 316.41796875 C246.3562779 310.45231039 254.38116306 307.63960255 262.52734375 307.01171875 C263.87226154 306.99231536 265.21748952 306.98872311 266.5625 307 C267.26544189 307.00563965 267.96838379 307.0112793 268.69262695 307.01708984 C275.67012761 307.18061869 280.06372829 308.09273118 285.4375 312.75 C287.70891602 315.75590863 288.40389632 318.89985718 289.26171875 322.53515625 C289.52041748 323.61676025 289.77911621 324.69836426 290.0456543 325.81274414 C290.23683838 326.63766357 290.42802246 327.46258301 290.625 328.3125 C291.18939285 328.33089432 291.75378571 328.34928864 292.33528137 328.36824036 C298.25792036 328.56385516 304.17969816 328.77789016 310.10131836 329.00219727 C312.30557953 329.08333472 314.51001364 329.15991682 316.71459961 329.23168945 C319.90015107 329.33621649 323.08470196 329.45760935 326.26953125 329.58203125 C327.24082474 329.61029495 328.21211823 329.63855865 329.21284485 329.66767883 C337.41530812 330.01505133 346.97878261 331.04136207 353.625 336.3125 C353.625 336.9725 353.625 337.6325 353.625 338.3125 C354.285 338.3125 354.945 338.3125 355.625 338.3125 C360.0643427 348.02356216 361.50322748 357.98790213 358.375 368.375 C356.14811112 373.98384629 353.0866574 377.64517894 347.625 380.3125 C343.71090985 381.61719672 339.79526219 382.48484963 335.75 383.25 C332.42966095 383.88698347 329.31388587 384.69131928 326.125 385.8125 C318.13479895 388.57833883 310.27695522 389.47080513 301.87109375 390.03515625 C294.56544403 390.65934534 287.65103513 392.26856251 280.625 394.3125 C273.63792358 396.04572826 266.57658299 396.81649587 259.43237305 397.56030273 C254.9651484 398.03065862 250.55477327 398.617054 246.125 399.375 C241.23887683 400.15394717 236.37847943 400.59715033 231.44140625 400.86328125 C230.66233414 400.90560883 229.88326202 400.9479364 229.08058167 400.99154663 C220.89635092 401.40077601 212.71915857 401.46411139 204.52612305 401.44287109 C202.03232949 401.43743422 199.53871059 401.44290105 197.04492188 401.44921875 C195.42447878 401.44855896 193.80403579 401.44727985 192.18359375 401.4453125 C191.45530869 401.44733673 190.72702362 401.44936096 189.97666931 401.45144653 C185.47483235 401.43123242 181.0838006 401.10254745 176.61520386 400.55404663 C173.85346703 400.21886075 171.08684237 400.01400865 168.3125 399.8125 C167.21035156 399.73 166.10820312 399.6475 164.97265625 399.5625 C163.86792969 399.48 162.76320313 399.3975 161.625 399.3125 C155.25491481 398.82308169 148.94289254 398.28448347 142.625 397.3125 C141.29175698 397.16584327 139.95841905 397.02004749 138.625 396.875 C134.82375494 396.41357719 131.30243683 395.3822998 127.625 394.3125 C125.2943782 393.96070803 122.96064933 393.62919821 120.625 393.3125 C115.13117217 392.34145718 109.89179733 391.17782405 104.625 389.3125 C103.00152019 388.82820772 101.37635171 388.34955855 99.75 387.875 C95.96800082 386.75001071 92.28961469 385.48396343 88.61328125 384.0546875 C86.51209576 383.270355 84.39097779 382.60491514 82.25 381.9375 C77.10339876 380.24558806 72.41884461 377.81092065 67.625 375.3125 C66.31361628 374.66440303 65.00117787 374.01843406 63.6875 373.375 C45.58922765 364.28952192 45.58922765 364.28952192 37.625 358.3125 C37.625 357.6525 37.625 356.9925 37.625 356.3125 C36.75101562 356.16361328 36.75101562 356.16361328 35.859375 356.01171875 C33.19750359 355.17872053 31.9045894 354.02459504 29.875 352.125 C26.44720005 348.99358877 22.8919563 346.24026741 19.09375 343.57421875 C18.6090625 343.15785156 18.124375 342.74148438 17.625 342.3125 C17.625 341.6525 17.625 340.9925 17.625 340.3125 C17.026875 340.209375 16.42875 340.10625 15.8125 340 C13.31241714 339.21425967 12.24964918 338.34331147 10.625 336.3125 C10.625 335.6525 10.625 334.9925 10.625 334.3125 C9.965 334.3125 9.305 334.3125 8.625 334.3125 C8.625 333.6525 8.625 332.9925 8.625 332.3125 C7.965 332.3125 7.305 332.3125 6.625 332.3125 C6.625 331.6525 6.625 330.9925 6.625 330.3125 C5.305 329.9825 3.985 329.6525 2.625 329.3125 C2.625 328.3225 2.625 327.3325 2.625 326.3125 C1.965 326.3125 1.305 326.3125 0.625 326.3125 C0.625 325.6525 0.625 324.9925 0.625 324.3125 C-0.365 323.9825 -1.355 323.6525 -2.375 323.3125 C-2.375 322.3225 -2.375 321.3325 -2.375 320.3125 C-3.3340625 319.94125 -3.3340625 319.94125 -4.3125 319.5625 C-6.919301 317.98262061 -6.66695078 317.14469689 -7.375 314.3125 C-8.2721875 313.879375 -8.2721875 313.879375 -9.1875 313.4375 C-12.3815746 311.79483306 -13.5963211 309.36166382 -15.375 306.3125 C-15.375 305.6525 -15.375 304.9925 -15.375 304.3125 C-16.365 303.9825 -17.355 303.6525 -18.375 303.3125 C-18.375 302.3225 -18.375 301.3325 -18.375 300.3125 C-19.365 299.9825 -20.355 299.6525 -21.375 299.3125 C-21.375 298.3225 -21.375 297.3325 -21.375 296.3125 C-22.035 295.9825 -22.695 295.6525 -23.375 295.3125 C-24.035 294.6525 -24.695 293.9925 -25.375 293.3125 C-25.375 292.3225 -25.375 291.3325 -25.375 290.3125 C-26.035 289.9825 -26.695 289.6525 -27.375 289.3125 C-28.035 288.6525 -28.695 287.9925 -29.375 287.3125 C-29.375 286.3225 -29.375 285.3325 -29.375 284.3125 C-30.035 283.9825 -30.695 283.6525 -31.375 283.3125 C-34.375 279.85096154 -34.375 279.85096154 -34.375 276.3125 C-35.035 275.9825 -35.695 275.6525 -36.375 275.3125 C-37.42752373 273.74229476 -38.41969712 272.13117967 -39.375 270.5 C-40.1484375 269.19095703 -40.1484375 269.19095703 -40.9375 267.85546875 C-44.375 261.77445652 -44.375 261.77445652 -44.375 258.3125 C-45.035 257.9825 -45.695 257.6525 -46.375 257.3125 C-47.71971585 254.87241958 -48.97328765 252.44154745 -50.1875 249.9375 C-50.54642334 249.206521 -50.90534668 248.47554199 -51.27514648 247.72241211 C-55.46173243 239.15598418 -59.33957728 230.49069703 -63 221.6875 C-63.2894751 220.99470947 -63.5789502 220.30191895 -63.87719727 219.58813477 C-67.34231534 211.16487993 -69.90234647 202.6226561 -72.08203125 193.78515625 C-72.59160544 191.75450924 -73.10137758 189.7239119 -73.61132812 187.69335938 C-74.39701069 184.54843651 -75.18055784 181.4030165 -75.96020508 178.2565918 C-81.30085209 156.4992654 -81.30085209 156.4992654 -89.00439453 135.4921875 C-94.38414186 123.01163367 -92.84602476 109.60286129 -88.6015625 97.01953125 C-86.69893349 92.78661809 -83.94869286 89.57306149 -80.9375 86.0625 C-76.92387021 81.33826034 -74.59282702 76.86662892 -72.54296875 71.0390625 C-70.04116221 65.19872483 -67.03557156 62.96084985 -61.3125 60.5 C-57.17632556 58.285723 -57.17632556 58.285723 -54.578125 54.52929688 C-53.64645973 51.09877226 -53.23954639 47.68337975 -52.90234375 44.15234375 C-52.375 40.3125 -52.375 40.3125 -50.81640625 37.49609375 C-48.36262689 32.07649977 -49.25551503 26.38877884 -49.4921875 20.54296875 C-49.66685822 13.46880452 -49.11007772 7.95712007 -44.71875 2.10546875 C-32.61860904 -8.4308828 -13.23889578 -8.94783564 0 0 Z M-32.3125 16.125 C-33.86999088 19.33159886 -33.43757174 20.92555256 -32.375 24.3125 C-30.38978578 27.78108989 -28.34764599 30.62901903 -25.0625 32.9375 C-23.375 34.3125 -23.375 34.3125 -23.01171875 36.6484375 C-23.49609308 40.20051595 -24.75850198 41.06863364 -27.5 43.3125 C-28.31597656 43.993125 -29.13195312 44.67375 -29.97265625 45.375 C-30.76542969 46.014375 -31.55820313 46.65375 -32.375 47.3125 C-33.56349561 48.31131651 -34.7511812 49.311099 -35.9375 50.3125 C-36.741875 50.9725 -37.54625 51.6325 -38.375 52.3125 C-37.86654345 54.60055446 -37.28071391 56.5063103 -36.25 58.625 C-34.8045463 63.0646078 -35.93092764 66.98028292 -37.375 71.3125 C-39.4140625 72.15625 -39.4140625 72.15625 -42 72.8125 C-49.70432508 74.8145584 -49.70432508 74.8145584 -56.3125 79.0625 C-57.80739504 82.2281601 -57.63532193 84.86323444 -57.375 88.3125 C-56.2339957 89.67495892 -56.2339957 89.67495892 -53.1875 89.5 C-49.48812647 89.3180636 -46.83131681 88.54934321 -43.375 87.3125 C-56.51913864 91.81085813 -66.35796646 95.56529375 -73.375 108.3125 C-76.56802196 117.89156587 -73.44319198 125.69303737 -69.57250977 134.52709961 C-64.38865149 146.445543 -61.63107079 159.13656324 -58.57107544 171.72476196 C-47.10499387 218.66198457 -26.3560856 259.74244804 2.625 298.3125 C3.38248535 299.32425293 3.38248535 299.32425293 4.15527344 300.35644531 C13.34687447 312.5721772 23.56060515 322.84990459 35.625 332.3125 C36.5634375 333.07949219 37.501875 333.84648437 38.46875 334.63671875 C86.34886567 372.95315152 145.96414659 383.49794758 205.8125 383.5625 C206.64004791 383.56417175 207.46759583 383.56584351 208.32022095 383.56756592 C222.31090544 383.56924662 235.89976836 382.58615981 249.77099609 380.67529297 C252.45780652 380.33375317 255.13170202 380.08318525 257.83203125 379.87890625 C267.08668281 379.16408974 275.11181117 377.3988714 283.89086914 374.35986328 C290.92420151 372.00581381 298.46006777 370.65856103 305.7109375 372.98046875 C308.41443447 373.44944271 309.5015168 372.48590204 311.8125 371.0625 C317.22359134 368.14759663 322.45606095 367.21954293 328.47143555 366.38964844 C333.30534437 365.69147329 337.24921072 364.52567198 341.625 362.3125 C343.18971233 359.18307535 343.32201958 355.70167777 342.625 352.3125 C340.46033514 349.55394073 339.28553732 348.4285004 335.78759766 347.81420898 C334.71558105 347.81235596 333.64356445 347.81050293 332.5390625 347.80859375 C331.36085938 347.78990234 330.18265625 347.77121094 328.96875 347.75195312 C327.7415625 347.75130859 326.514375 347.75066406 325.25 347.75 C322.82543638 347.74102963 320.40087944 347.71932331 317.9765625 347.68359375 C316.90229004 347.68286865 315.82801758 347.68214355 314.72119141 347.68139648 C311.16409003 347.25758477 308.72194785 346.06952847 305.625 344.3125 C304.944375 344.951875 304.26375 345.59125 303.5625 346.25 C299.9135755 348.81201082 298.09730923 349.24151096 293.625 349.3125 C291.84460069 348.87019954 290.07439722 348.38604754 288.3125 347.875 C280.16471554 345.59154448 272.00551531 346.06108454 263.625 346.3125 C264.64967244 341.40519878 267.55451866 338.6570841 270.8125 334.9453125 C272.84307077 331.99573341 273.29552598 329.84404969 273.625 326.3125 C269.90273596 323.83099064 266.93856223 323.67498696 262.625 324.3125 C260.16141224 325.54429388 258.66843796 326.55091556 256.625 328.3125 C255.82707031 328.99183594 255.02914063 329.67117188 254.20703125 330.37109375 C250.45235383 333.65990278 246.80458785 336.9019716 243.6875 340.8125 C241.625 343.3125 241.625 343.3125 238.625 344.3125 C217.24139016 341.49635495 195.34501657 333.96538061 176.625 323.3125 C175.57844238 322.73048828 175.57844238 322.73048828 174.51074219 322.13671875 C150.80253022 308.91301486 132.32993918 291.49734079 115.9453125 270.02246094 C114.66347017 268.36232342 113.35363993 266.72950465 112.03125 265.1015625 C83.94930259 230.25346445 79.94756189 185.32295541 76.625 142.3125 C76.51664818 140.92545209 76.40825099 139.53840772 76.29980469 138.15136719 C76.00548627 134.35138943 75.71894741 130.55095108 75.4375 126.75 C75.35363037 125.63439697 75.26976074 124.51879395 75.18334961 123.36938477 C73.96474512 106.21558759 73.96474512 106.21558759 75.6875 101.25 C77.89901812 99.03848188 79.44970389 98.64711023 82.51391602 98.28393555 C86.72890711 98.34096734 90.61076515 99.89520418 94.5625 101.25 C100.78941883 103.36630776 106.00869023 104.90077782 112.625 104.3125 C113.615 103.6525 114.605 102.9925 115.625 102.3125 C114.96162877 96.83494895 112.63630951 94.81667516 108.5390625 91.36328125 C98.23502169 84.111778 84.72979952 79.0992965 72.625 76 C67.04091073 74.44228505 62.5422431 71.27864537 57.80078125 68.0546875 C54.3210629 66.14576452 51.5538635 65.6386698 47.625 65.3125 C47.5425 64.57 47.46 63.8275 47.375 63.0625 C46.40088717 59.49075297 45.60578298 58.56464714 42.625 56.3125 C39.03971435 55.13888566 35.38526675 54.41697508 31.6875 53.6875 C29.71929244 53.28231851 27.75181344 52.87357842 25.78515625 52.4609375 C24.91511963 52.28739746 24.04508301 52.11385742 23.14868164 51.93505859 C20.51594929 51.28559865 18.11681625 50.37471386 15.625 49.3125 C15.73199219 48.69761719 15.83898437 48.08273438 15.94921875 47.44921875 C16.06910156 46.64097656 16.18898438 45.83273438 16.3125 45 C16.44011719 44.19949219 16.56773437 43.39898437 16.69921875 42.57421875 C16.8306853 40.26396975 16.8306853 40.26396975 15.390625 38.5625 C10.25423137 34.92611513 1.25002038 36.25048407 -4.7734375 36.375 C-7.375 36.3125 -7.375 36.3125 -10.375 35.3125 C-10.19582031 34.29929687 -10.01664062 33.28609375 -9.83203125 32.2421875 C-9.61618227 30.89078517 -9.40139466 29.53921302 -9.1875 28.1875 C-9.06697266 27.52234375 -8.94644531 26.8571875 -8.82226562 26.171875 C-8.07739415 21.27014011 -8.6626243 18.44564392 -11.375 14.3125 C-18.54371916 9.42473694 -26.01725249 10.23589749 -32.3125 16.125 Z " fill="#FEFEFE" transform="translate(132.375,50.6875)"/>
<path d="M0 0 C2.73782983 4.65214357 3.44973424 8.44360953 3.3125 13.75 C3.29993164 14.79800781 3.29993164 14.79800781 3.28710938 15.8671875 C3.15973497 21.39014178 2.43869097 26.65629067 1 32 C1.66 32 2.32 32 3 32 C6.40040003 41.35110008 5.20253695 51.29380893 4 61 C4.66 61 5.32 61 6 61 C6.02703381 62.93742341 6.04641125 64.87495479 6.0625 66.8125 C6.07410156 67.89144531 6.08570313 68.97039062 6.09765625 70.08203125 C6 73 6 73 5 76 C6.98 76.99 6.98 76.99 9 78 C8.67 79.65 8.34 81.3 8 83 C6.68 83.33 5.36 83.66 4 84 C3.67 86.97 3.34 89.94 3 93 C3.433125 92.21625 3.86625 91.4325 4.3125 90.625 C6 88 6 88 9 86 C9.15855469 86.64582031 9.31710938 87.29164063 9.48046875 87.95703125 C11.30239467 95.31519615 13.2128214 102.64722176 15.15625 109.97412109 C16.62252593 115.5159776 18.01519135 121.07090791 19.32421875 126.65234375 C19.98599925 128.95136156 20.85711798 130.90390575 22 133 C21.360625 133.226875 20.72125 133.45375 20.0625 133.6875 C17.72806339 134.85250896 17.72806339 134.85250896 17.25 137.625 C17.1675 138.40875 17.085 139.1925 17 140 C18.0725 140.350625 19.145 140.70125 20.25 141.0625 C24.74082015 142.93898874 25.97204797 145.70074169 28 150 C28.99 149.34 29.98 148.68 31 148 C37.0453135 154.07389654 41.51383319 160.18487157 45.74365234 167.58105469 C48.32959649 172.04841331 51.16968878 175.86818371 54.78515625 179.58203125 C56 181 56 181 56 183 C56.598125 183.2475 57.19625 183.495 57.8125 183.75 C60.38438757 185.21965004 61.53194377 186.43090159 63 189 C62.91878906 190.15435547 62.91878906 190.15435547 62.8359375 191.33203125 C63.17015002 196.76696336 68.24321077 200.42769596 72 204 C80.22167849 210.83822297 89.24512519 215.07182751 99.5625 217.6875 C106.01051121 219.54617939 109.34436016 222.79419314 113.8203125 227.65625 C120.32568359 234.65127268 127.75041466 235.02500904 137 236 C137 236.99 137 237.98 137 239 C144.97399776 241.42527121 152.98223852 243.72406483 161 246 C161 246.66 161 247.32 161 248 C154.27724126 251.25951939 148.62227169 250.13425389 141.8203125 247.8515625 C139.46129746 247.13928372 137.19655663 246.63298663 134.78515625 246.15625 C130.53307626 245.23804722 126.77512414 243.73567081 122.80737305 241.97753906 C113.80566821 237.99948847 105.9675198 235.08786355 96 237 C93.32949132 238.09227818 91.37501368 239.32669491 89 241 C88.34 240.67 87.68 240.34 87 240 C88.32 238.35 89.64 236.7 91 235 C90.55269531 235.42152344 90.10539063 235.84304688 89.64453125 236.27734375 C86.96325516 238.70707155 84.67036834 240.7193807 81.3125 242.125 C79 242 79 242 76.875 240.3125 C75 238 75 238 73.75 235.75 C71.95569279 233.54991949 71.95569279 233.54991949 68.125 233.9375 C67.42632812 233.97359375 66.72765625 234.0096875 66.0078125 234.046875 C63.00781331 233.97683611 61.25630289 232.90375556 59 231 C59 230.01 59 229.02 59 228 C59.66 228 60.32 228 61 228 C61 227.34 61 226.68 61 226 C60.01 226 59.02 226 58 226 C58.309375 225.401875 58.61875 224.80375 58.9375 224.1875 C60.10209704 221.91043228 60.10209704 221.91043228 61 219 C60.34515625 219.02320313 59.6903125 219.04640625 59.015625 219.0703125 C49.61970228 219.25610758 39.42079143 219.44437151 32 213 C30 210 30 210 30 207 C33.3 207.33 36.6 207.66 40 208 C40 208.66 40 209.32 40 210 C39.34 210 38.68 210 38 210 C38.67859203 213.01181686 38.67859203 213.01181686 40.640625 214.1796875 C43.76270924 215.26518037 46.45275401 215.19094492 49.75 215.125 C50.92046875 215.10695313 52.0909375 215.08890625 53.296875 215.0703125 C54.18890625 215.04710937 55.0809375 215.02390625 56 215 C48.41736069 206.35722471 41.32914676 198.37115631 31 193 C29.86820312 192.39414062 28.73640625 191.78828125 27.5703125 191.1640625 C21.50258166 187.99278012 15.33849455 185.11860776 9.03515625 182.4453125 C8.00616211 182.00807861 6.97716797 181.57084473 5.91699219 181.12036133 C3.88495619 180.26430464 1.84796131 179.41990237 -0.19433594 178.58862305 C-5.48396298 176.37131367 -9.31509719 174.44239889 -13 170 C-7.31461329 170.60759858 -3.00518429 172.89468076 1.87695312 175.6484375 C4.80539173 177.21369275 6.5834738 178.04104253 9.93359375 177.7109375 C10.61550781 177.47632813 11.29742187 177.24171875 12 177 C12.50537432 171.69356959 11.30655751 169.13319688 8 165 C5.50809637 162.50809637 3.18611975 161.74357058 -0.125 160.8125 C-6.05356098 158.98756858 -10.50961846 155.18102331 -15 151 C-15 150.67 -15 150.34 -15 150 C-14.06027344 149.87044922 -14.06027344 149.87044922 -13.1015625 149.73828125 C-7.98279601 149.00008983 -7.98279601 149.00008983 -4.25 145.75 C-3.81998605 141.01984653 -6.34971024 137.79741923 -9.26171875 134.2265625 C-10.06222656 133.36804688 -10.86273438 132.50953125 -11.6875 131.625 C-12.49574219 130.75101563 -13.30398437 129.87703125 -14.13671875 128.9765625 C-14.75160156 128.32429687 -15.36648437 127.67203125 -16 127 C-16 130.25328766 -14.25237278 132.90558932 -12.875 135.80859375 C-12 138 -12 138 -12 141 C-15 140 -15 140 -16.16796875 138.00390625 C-16.50441406 137.19824219 -16.84085937 136.39257812 -17.1875 135.5625 C-17.53167969 134.75941406 -17.87585938 133.95632813 -18.23046875 133.12890625 C-19 131 -19 131 -19 129 C-21.65228812 127.92474806 -24.28368454 126.90543849 -27 126 C-27.66 127.98 -28.32 129.96 -29 132 C-29.66 132 -30.32 132 -31 132 C-31.33 131.01 -31.66 130.02 -32 129 C-32.928125 129.061875 -33.85625 129.12375 -34.8125 129.1875 C-38 129 -38 129 -39.8125 127.625 C-41.81787689 124.88080004 -42.06712045 123.14300101 -42.1875 119.8125 C-42.89664502 112.90941645 -47.3186581 109.35018184 -52.375 105.0625 C-53.24125 104.381875 -54.1075 103.70125 -55 103 C-54.67 102.34 -54.34 101.68 -54 101 C-53.29875 101.33 -52.5975 101.66 -51.875 102 C-48.73996884 103.09044562 -46.29436818 103.15322643 -43 103 C-44.29322068 97.2392897 -46.37988643 93.66804118 -50 89 C-55.03985731 89.44469329 -57.37634988 91.71343362 -61 95 C-61.66 94.67 -62.32 94.34 -63 94 C-63.10251672 88.87416389 -63.03590199 84.05002222 -62 79 C-64.06280773 79.55013034 -64.06280773 79.55013034 -66 81 C-66.70535611 83.8786935 -66.70535611 83.8786935 -66.75 87.125 C-66.80671875 88.22070312 -66.8634375 89.31640625 -66.921875 90.4453125 C-66.94765625 91.28835937 -66.9734375 92.13140625 -67 93 C-68.98 93 -70.96 93 -73 93 C-69.66258296 98.80420355 -65.09057916 102.71434147 -60 107 C-60.639375 107.268125 -61.27875 107.53625 -61.9375 107.8125 C-64.33131686 108.88667752 -64.33131686 108.88667752 -65 112 C-67.34375 111.89453125 -67.34375 111.89453125 -70 111 C-71.40625 108.19921875 -71.40625 108.19921875 -72.5 104.6875 C-74.59344212 98.01091495 -77.31476212 95.79015859 -83 92 C-81.515 91.505 -81.515 91.505 -80 91 C-81.08760541 85.29007157 -83.77513112 83.25569192 -88.3203125 80.1015625 C-88.87460938 79.73804688 -89.42890625 79.37453125 -90 79 C-85.06345733 71.31509847 -85.06345733 71.31509847 -80.625 70 C-79.75875 70 -78.8925 70 -78 70 C-74 74.75 -74 74.75 -74 77 C-75.485 77.99 -75.485 77.99 -77 79 C-76.41946806 85.10829931 -76.41946806 85.10829931 -73 90 C-72.34 90 -71.68 90 -71 90 C-70.91867813 87.43685501 -70.85935825 84.87631582 -70.8125 82.3125 C-70.78736328 81.59126953 -70.76222656 80.87003906 -70.73632812 80.12695312 C-70.67334418 75.52912496 -71.12195666 72.62972055 -74 69 C-77.50724468 66.68840691 -79.459509 65.99083914 -83.6875 66.0625 C-87 66 -87 66 -88.875 64.3125 C-90.06820046 61.85981018 -90.62571253 59.69486977 -91 57 C-88.525 56.505 -88.525 56.505 -86 56 C-86.061875 55.236875 -86.12375 54.47375 -86.1875 53.6875 C-86 51 -86 51 -84.8359375 49.359375 C-81.72611269 47.05678131 -78.24850186 47.57865542 -74.49609375 47.50390625 C-71.86703407 47.26902188 -71.86703407 47.26902188 -70.65234375 45.109375 C-69.76942333 42.25442275 -70.07151489 40.85177568 -71 38 C-71.66864548 36.82242598 -72.35768917 35.65629108 -73.0625 34.5 C-74.85646488 31.54028176 -75.42704032 29.52308266 -75 26 C-72.16433638 24.10955759 -70.74859652 24.00838012 -67.25 24.125 C-62.68026299 24.236457 -58.49359557 23.04056073 -55 20 C-54.22657565 17.42793981 -54.22657565 17.42793981 -54 15 C-52.84371094 14.96132812 -52.84371094 14.96132812 -51.6640625 14.921875 C-50.66117188 14.86515625 -49.65828125 14.8084375 -48.625 14.75 C-47.62726563 14.70359375 -46.62953125 14.6571875 -45.6015625 14.609375 C-42.8473523 14.27839115 -42.8473523 14.27839115 -41.6484375 11.953125 C-41.43445313 11.30859375 -41.22046875 10.6640625 -41 10 C-40.33613281 10.144375 -39.67226562 10.28875 -38.98828125 10.4375 C-38.10527344 10.623125 -37.22226563 10.80875 -36.3125 11 C-35.00732422 11.2784375 -35.00732422 11.2784375 -33.67578125 11.5625 C-31.06287036 11.98972047 -28.64186962 12.07616201 -26 12 C-28.475 9.525 -28.475 9.525 -31 7 C-24.31318326 4.73584083 -17.79055933 3.40406285 -10.78515625 2.52734375 C-6.56029972 1.72740598 -4.51895487 -0.24426783 0 0 Z " fill="#FAFAFA" transform="translate(200,158)"/>
<path d="M0 0 C0.1507992 4.15640287 0.017978 7.63663661 -2.53125 11.05078125 C-16.3713733 23.87486375 -44.78791938 26.55296894 -62.9375 27.375 C-69.67061376 27.81651566 -74.97392907 30.08678289 -81 33 C-82.94420507 33.93886175 -84.88943776 34.87520235 -86.83837891 35.80419922 C-88.11808146 36.4173043 -89.39290602 37.04073943 -90.66162109 37.67626953 C-94.86279457 39.71344449 -98.4145628 40.55378588 -103 41 C-102.67 39.68 -102.34 38.36 -102 37 C-106.62 37.33 -111.24 37.66 -116 38 C-116 39.65 -116 41.3 -116 43 C-117 44 -117 44 -120.0625 44.4375 C-125.27198125 43.85866875 -128.50337742 41.89396605 -132 38 C-132.6875 34.8125 -132.6875 34.8125 -132 32 C-130.5 30.125 -130.5 30.125 -129 29 C-132.34252724 28.92572162 -134.8035914 28.93453047 -138 30 C-139.85510818 34.25286704 -140.34326672 38.27335637 -140.625 42.875 C-140.69976562 44.02742188 -140.77453125 45.17984375 -140.8515625 46.3671875 C-140.90054688 47.23601562 -140.94953125 48.10484375 -141 49 C-145.11555468 45.16189845 -146.92625451 41.10174647 -147.125 35.4375 C-145.57629567 30.70534787 -143.18997446 28.5766385 -139 26 C-133.51415399 23.47788475 -127.97447132 22.54313376 -122 22 C-121.979375 23.0725 -121.95875 24.145 -121.9375 25.25 C-121.34584646 29.23168042 -121.34584646 29.23168042 -117.9375 31.4375 C-113.89048889 33.41062782 -110.43583321 33.31128654 -106 33 C-105.67 32.01 -105.34 31.02 -105 30 C-107.475 29.01 -107.475 29.01 -110 28 C-110 26 -110 26 -108 24 C-109.65 23.01 -111.3 22.02 -113 21 C-112.505 19.515 -112.505 19.515 -112 18 C-109.20415162 17.17786945 -106.53925428 16.54495061 -103.6875 16 C-102.1493399 15.68947324 -100.61158528 15.37693205 -99.07421875 15.0625 C-98.26315674 14.89693604 -97.45209473 14.73137207 -96.61645508 14.56079102 C-87.76242024 12.66308475 -79.10071676 10.17846303 -70.4375 7.5625 C-62.75864126 5.2879965 -55.08136453 3.18336306 -47.25 1.5 C-46.47068115 1.32799072 -45.6913623 1.15598145 -44.88842773 0.97875977 C-41.22670172 0.22890569 -38.57062997 -0.0765124 -35 1 C-35.33 3.31 -35.66 5.62 -36 8 C-33.69 8.33 -31.38 8.66 -29 9 C-27.69186719 6.13257403 -27.69186719 6.13257403 -28.8125 3.875 C-29.86855201 1.85057958 -29.86855201 1.85057958 -32 1 C-32 0.34 -32 -0.32 -32 -1 C-5.30263839 -3.27211588 -5.30263839 -3.27211588 0 0 Z " fill="#F9F9F9" transform="translate(213,133)"/>
<path d="M0 0 C3.22778873 2.92930505 5.06813372 5.69984865 6.9375 9.625 C7.45570312 10.68847656 7.97390625 11.75195312 8.5078125 12.84765625 C9.41509065 14.76434071 10.30935912 16.68735089 11.1796875 18.62109375 C13.97056554 24.63591712 17.55514893 29.33655857 21.84375 34.3828125 C25.29578623 38.57278401 28.27802469 42.83407407 30 48 C31.4801166 49.23546973 31.4801166 49.23546973 33.25 50.4375 C38.24445477 54.52108085 39.84894458 60.09068549 42 66 C43.44003399 70.209944 43.44003399 70.209944 46.71484375 72.890625 C47.38644531 73.17421875 48.05804688 73.4578125 48.75 73.75 C53.63299811 75.85815786 55.75680654 79.37229677 58.5546875 83.7578125 C60.3921395 86.60834615 61.27376022 87.82708577 64.625 88.625 C65.800625 88.810625 65.800625 88.810625 67 89 C67.020625 89.680625 67.04125 90.36125 67.0625 91.0625 C68.48612048 95.52317751 71.32926566 98.17473231 75 101 C77.02119334 101.95137456 79.01495196 102.65231022 81.140625 103.33203125 C85.15935568 104.77573492 87.49828704 106.9487919 89.3125 110.75 C89.539375 111.4925 89.76625 112.235 90 113 C79.44976513 112.53110067 74.77159544 107.88808217 67.57421875 100.5078125 C65.30737761 98.29944829 63.04704686 96.42883168 60.5 94.5625 C49.568666 86.23934394 40.82379838 74.44281421 35 62 C35 61.01 35 60.02 35 59 C33.36355378 57.30365118 31.69162453 55.64132934 30 54 C28.56956734 52.09169972 27.18960007 50.14479478 25.85546875 48.16796875 C25.484254 47.6186821 25.11303925 47.06939545 24.73057556 46.50346375 C23.54176089 44.73654318 22.36349926 42.96297191 21.1875 41.1875 C20.78537292 40.58351379 20.38324585 39.97952759 19.96893311 39.35723877 C13.90377081 30.22418518 8.43270968 21.04094459 4 11 C3.55398437 10.04609375 3.10796875 9.0921875 2.6484375 8.109375 C0 2.38010204 0 2.38010204 0 0 Z " fill="#F5F5F5" transform="translate(95,270)"/>
<path d="M0 0 C5.02348256 0.52152185 8.75228206 2.26923389 13.0625 4.75 C19.84661226 8.52526977 26.66272214 11.42638483 34 14 C34 13.34 34 12.68 34 12 C35.32 12 36.64 12 38 12 C38 13.32 38 14.64 38 16 C60.92016612 26.31775967 81.63945835 30.69478346 106.78833008 30.02978516 C107.90361084 30.00190918 109.0188916 29.9740332 110.16796875 29.9453125 C111.15047607 29.90937988 112.1329834 29.87344727 113.14526367 29.83642578 C116 30 116 30 118.9675293 30.99560547 C122.30052888 32.09953915 124.85191269 32.20058866 128.3515625 32.125 C129.53234375 32.10953125 130.713125 32.0940625 131.9296875 32.078125 C133.14914062 32.05234375 134.36859375 32.0265625 135.625 32 C138.05450867 31.9489599 140.48422717 31.90690156 142.9140625 31.875 C144.5220874 31.84019531 144.5220874 31.84019531 146.16259766 31.8046875 C148.99837861 31.99988839 150.60072372 32.53019916 153 34 C145.31069168 35.89280282 137.96408789 36.35077644 130.0625 36.3125 C128.83885742 36.30758545 127.61521484 36.3026709 126.35449219 36.29760742 C113.4399148 36.13596797 100.77853814 34.79911966 88 33 C87.34290039 32.90807373 86.68580078 32.81614746 86.00878906 32.72143555 C81.08484782 32.02991659 76.16653318 31.30471491 71.25 30.5625 C69.95416992 30.36954346 68.65833984 30.17658691 67.32324219 29.9777832 C53.09259412 27.73953111 39.85562415 23.86270685 26.5 18.5 C25.29085937 18.02691406 24.08171875 17.55382812 22.8359375 17.06640625 C16.95461362 14.73326568 11.37324176 12.35037428 6 9 C8 8 8 8 9.78759766 8.52905273 C10.84019775 8.97680054 10.84019775 8.97680054 11.9140625 9.43359375 C12.67460937 9.75263672 13.43515625 10.07167969 14.21875 10.40039062 C15.0128125 10.74263672 15.806875 11.08488281 16.625 11.4375 C17.42679688 11.77587891 18.22859375 12.11425781 19.0546875 12.46289062 C21.03939964 13.30166778 23.02008875 14.14995245 25 15 C22.41868767 13.27912511 19.90518208 11.87534746 17.1484375 10.46875 C16.21515625 9.98792969 15.281875 9.50710938 14.3203125 9.01171875 C12.35058475 8.00073117 10.37921533 6.99293596 8.40625 5.98828125 C7.47554687 5.50746094 6.54484375 5.02664063 5.5859375 4.53125 C4.30275635 3.87479492 4.30275635 3.87479492 2.99365234 3.20507812 C1 2 1 2 0 0 Z " fill="#EFEFEF" transform="translate(200,394)"/>
<path d="M0 0 C0 4.95 0 9.9 0 15 C4.69694839 12.54022243 4.69694839 12.54022243 6.5 10.25 C8 9 8 9 10.3125 8.8125 C14.54660919 10.68338545 16.82585373 13.98112357 19 18 C19.375 21.5 19.375 21.5 19 24 C14.58937864 25.0257259 12.07369424 25.03684712 8 23 C8.495 23.598125 8.99 24.19625 9.5 24.8125 C11 27 11 27 11 30 C10.34 30.33 9.68 30.66 9 31 C9.66 31.99 10.32 32.98 11 34 C11.125 37.1875 11.125 37.1875 11 40 C5.09471732 39.61167075 0.24210819 38.83947527 -5 36 C-5.495 34.515 -5.495 34.515 -6 33 C-4.515 32.505 -4.515 32.505 -3 32 C-1.62804426 30.70644173 -0.28817344 29.37701298 1 28 C0.21753906 27.32453125 -0.56492188 26.6490625 -1.37109375 25.953125 C-2.39363217 25.0525407 -3.41574551 24.1514736 -4.4375 23.25 C-4.95376953 22.8065625 -5.47003906 22.363125 -6.00195312 21.90625 C-8.74178213 19.47084644 -10.65743905 17.75938683 -11 14 C-9.02 14 -7.04 14 -5 14 C-5.03480469 13.15695313 -5.06960937 12.31390625 -5.10546875 11.4453125 C-5.13253906 10.34960938 -5.15960938 9.25390625 -5.1875 8.125 C-5.22230469 7.03445312 -5.25710937 5.94390625 -5.29296875 4.8203125 C-5.19628906 3.88960937 -5.09960938 2.95890625 -5 2 C-2 0 -2 0 0 0 Z " fill="#0E0E0E" transform="translate(138,237)"/>
<path d="M0 0 C6.04801071 0.54981916 11.30601106 1.90429574 17 4 C15.04783565 5.95216435 13.46800047 6.84826645 11 8 C11.66 9.32 12.32 10.64 13 12 C11.68 12 10.36 12 9 12 C11.25740623 14.33524782 13.2805761 16.18705073 16 18 C16.4640625 19.2065625 16.4640625 19.2065625 16.9375 20.4375 C17.78832494 23.13383079 17.78832494 23.13383079 20.125 24.5 C20.74375 24.995 21.3625 25.49 22 26 C21.979375 26.78375 21.95875 27.5675 21.9375 28.375 C21.72418675 31.29990444 21.72418675 31.29990444 24.5 33.8125 C25.325 34.534375 26.15 35.25625 27 36 C22.31763041 34.61948374 18.29647684 32.61078236 14.125 30.125 C10.22732753 27.83868738 6.34163216 25.61341477 2.25 23.6875 C-1 22 -1 22 -3 19 C-0.36 19.66 2.28 20.32 5 21 C2.03 18.69 -0.94 16.38 -4 14 C-3.34 13.67 -2.68 13.34 -2 13 C-3.65 10.69 -5.3 8.38 -7 6 C-5.68 6 -4.36 6 -3 6 C-2.67 4.68 -2.34 3.36 -2 2 C-1.34 2 -0.68 2 0 2 C0 1.34 0 0.68 0 0 Z " fill="#F6F6F6" transform="translate(156,300)"/>
<path d="M0 0 C-0.226875 0.9075 -0.45375 1.815 -0.6875 2.75 C-1.32605545 5.99503501 -1.32605545 5.99503501 0.4375 8.375 C0.953125 8.91125 1.46875 9.4475 2 10 C1.67 10.66 1.34 11.32 1 12 C-1 10.625 -1 10.625 -3 9 C-3 8.34 -3 7.68 -3 7 C-3.66 7 -4.32 7 -5 7 C-4.95875 8.258125 -4.9175 9.51625 -4.875 10.8125 C-4.7609626 14.29064073 -4.94074319 14.91111478 -7 18 C-9.125 18 -9.125 18 -12 17 C-13.6966596 14.99370003 -15.13831899 12.91701756 -16.5703125 10.71484375 C-17.04210937 10.14894531 -17.51390625 9.58304688 -18 9 C-18.99 9 -19.98 9 -21 9 C-21 10.65 -21 12.3 -21 14 C-21.9075 13.505 -22.815 13.01 -23.75 12.5 C-33.75435917 8.35476751 -43.75280873 11.75121077 -53.5078125 14.90625 C-57 16 -57 16 -59 16 C-59 15.34 -59 14.68 -59 14 C-52.875 12.25 -52.875 12.25 -50.9543457 11.703125 C-47.8160777 10.80880596 -44.68115621 9.90611621 -41.55078125 8.984375 C-34.39492717 6.88997868 -27.21659478 5.04614173 -19.94799805 3.39453125 C-16.6716831 2.64718446 -13.46894928 1.84322411 -10.2421875 0.890625 C-6.70308003 -0.08156356 -3.65287661 -0.149097 0 0 Z " fill="#F1F1F1" transform="translate(162,118)"/>
<path d="M0 0 C1.84765625 0.015625 1.84765625 0.015625 4 1 C5.25832255 4.29041955 6.12924829 7.51254187 6.97851562 10.921875 C8.3404942 15.91121067 10.02051497 18.4935124 14 22 C16 25 16 25 16 28 C10.01027485 27.0065558 4.90227027 24.42907535 -0.5625 21.875 C-1.60341797 21.41351563 -2.64433594 20.95203125 -3.71679688 20.4765625 C-9.94038593 17.56288222 -13.51522711 15.54046603 -16 9 C-16 7.68 -16 6.36 -16 5 C-11.20904505 5.5842628 -7.41611682 7.10737851 -3 9 C-1.01178687 9.39764263 0.98732362 9.75455166 3 10 C2.5359375 8.081875 2.5359375 8.081875 2.0625 6.125 C1.88847656 5.40570313 1.71445313 4.68640625 1.53515625 3.9453125 C1.05153008 1.9414343 1.05153008 1.9414343 0 0 Z " fill="#F8F8F8" transform="translate(146,267)"/>
<path d="M0 0 C2.51083114 1.25541557 2.87125446 2.50063488 4 5 C4 4.01 4 3.02 4 2 C10.1647079 4.74437654 15.2631291 10.46943107 19 16 C19 17.32 19 18.64 19 20 C18.34 20 17.68 20 17 20 C17.33 21.98 17.66 23.96 18 26 C17.01 25.34 16.02 24.68 15 24 C11.85778033 24.31506627 11.85778033 24.31506627 9 25 C5.67993428 21.24719067 3.90922786 17.77900881 2.25 13.0625 C1.82203125 11.87785156 1.3940625 10.69320312 0.953125 9.47265625 C0.03414139 6.12439218 -0.18954131 3.44859884 0 0 Z " fill="#0F0F0F" transform="translate(152,231)"/>
<path d="M0 0 C4.73224376 -0.04963625 9.46433415 -0.08583097 14.19677734 -0.10986328 C15.80487713 -0.11988763 17.41295885 -0.13351066 19.02099609 -0.15087891 C21.33956376 -0.17528488 23.65788929 -0.18651886 25.9765625 -0.1953125 C26.68930328 -0.20563507 27.40204407 -0.21595764 28.13638306 -0.22659302 C32.52354754 -0.22756726 35.88447634 0.58489836 40 2 C43.12086622 2.24064349 43.12086622 2.24064349 46.3515625 2.125 C47.53234375 2.10953125 48.713125 2.0940625 49.9296875 2.078125 C51.14914062 2.05234375 52.36859375 2.0265625 53.625 2 C56.05450867 1.9489599 58.48422717 1.90690156 60.9140625 1.875 C62.5220874 1.84019531 62.5220874 1.84019531 64.16259766 1.8046875 C66.99837861 1.99988839 68.60072372 2.53019916 71 4 C63.31010698 5.89294675 55.96449828 6.34862533 48.0625 6.3125 C46.85770996 6.31048584 45.65291992 6.30847168 44.41162109 6.30639648 C29.5124608 6.14480668 14.68223432 4.50372722 0 2 C0 1.34 0 0.68 0 0 Z " fill="#FCFCFC" transform="translate(282,424)"/>
<path d="M0 0 C0.66 0 1.32 0 2 0 C2.268125 0.969375 2.53625 1.93875 2.8125 2.9375 C3.204375 3.948125 3.59625 4.95875 4 6 C4.99 6.33 5.98 6.66 7 7 C7 10.3 7 13.6 7 17 C7.66 17 8.32 17 9 17 C8.67 19.64 8.34 22.28 8 25 C6.68 25.33 5.36 25.66 4 26 C3.18071114 24.75443908 2.36984814 23.50333365 1.5625 22.25 C1.11003906 21.55390625 0.65757812 20.8578125 0.19140625 20.140625 C-2.46484782 15.36807671 -2.40878944 10.34278291 -2 5 C-1 1.9375 -1 1.9375 0 0 Z " fill="#0E0E0E" transform="translate(185,228)"/>
<path d="M0 0 C6.89914937 -0.33149066 12.10454923 0.6400575 18.5625 3 C19.38041016 3.28617187 20.19832031 3.57234375 21.04101562 3.8671875 C23.0317503 4.5656909 25.01654752 5.28107871 27 6 C27 6.99 27 7.98 27 9 C19.50621322 11.49792893 11.8506506 10.57545588 4.83984375 7.16796875 C2.89733995 5.9348294 1.44820266 4.79107931 0 3 C0 2.01 0 1.02 0 0 Z " fill="#FBFBFB" transform="translate(168,344)"/>
<path d="M0 0 C-0.33 0.66 -0.66 1.32 -1 2 C-11.82591307 5.60863769 -26.70241155 2.63648386 -38 2 C-33.08608782 -8.88080554 -9.55370869 -1.5283766 0 0 Z " fill="#EEEEEE" transform="translate(409,405)"/>
<path d="M0 0 C2.4629514 0.75806168 4.91961151 1.53062903 7.375 2.3125 C8.42300781 2.63250977 8.42300781 2.63250977 9.4921875 2.95898438 C14.7734375 4.66015625 14.7734375 4.66015625 17 8 C16.01 8 15.02 8 14 8 C14.33 10.31 14.66 12.62 15 15 C12.875 15.75 12.875 15.75 10 16 C4.61526859 13.36258053 2.41338307 10.29087827 0 5 C-0.1015625 2.27734375 -0.1015625 2.27734375 0 0 Z " fill="#FAFAFA" transform="translate(130,103)"/>
<path d="M0 0 C0.99 0 1.98 0 3 0 C4 4.75 4 4.75 4 7 C4.99 6.01 5.98 5.02 7 4 C6.69343615 10.62177926 5.25711277 15.22125154 2 21 C0.68 21 -0.64 21 -2 21 C-5.03651209 16.44523186 -3.91818071 12.23945974 -3 7 C-2.18274874 4.49232903 -1.20495334 2.3575174 0 0 Z " fill="#0D0D0D" transform="translate(194,174)"/>
<path d="M0 0 C5.56765743 4.58512965 7.95770394 10.58422122 11 17 C12.03841083 19.04332454 13.08001008 21.08503228 14.125 23.125 C17.32126235 29.51752471 20.39469074 36.0065735 22 43 C15.2742375 36.64789097 11.99290482 30.10981146 8.5 21.6875 C7.7401593 19.8786642 6.97974739 18.07006823 6.21875 16.26171875 C5.85265625 15.38563965 5.4865625 14.50956055 5.109375 13.60693359 C3.70482587 10.30636679 2.22115303 7.04446938 0.71679688 3.78833008 C0 2 0 2 0 0 Z " fill="#F1F1F1" transform="translate(83,234)"/>
<path d="M0 0 C3.99870861 1.92530414 7.84296719 3.84296719 11 7 C10.625 10.625 10.625 10.625 10 14 C8.328125 14.80078125 8.328125 14.80078125 6 15 C3.421875 12.98046875 3.421875 12.98046875 0.75 10.1875 C-0.14203125 9.27355469 -1.0340625 8.35960937 -1.953125 7.41796875 C-4 5 -4 5 -4 3 C0.75 4.875 0.75 4.875 3 6 C1.515 3.03 1.515 3.03 0 0 Z " fill="#111111" transform="translate(127,217)"/>
<path d="M0 0 C4.69150013 0.52050667 7.79242928 1.75975756 11.75 4.3125 C13.16539062 5.20388672 13.16539062 5.20388672 14.609375 6.11328125 C16.97902654 7.98344741 17.94302568 9.21622462 19 12 C13.32353907 11.4024778 8.02960732 9.67890901 3 7 C0.95224098 4.47041533 0 3.23138286 0 0 Z " fill="#0D0D0D" transform="translate(135,208)"/>
<path d="M0 0 C1.9375 1.25 1.9375 1.25 3 3 C3 4.32 3 5.64 3 7 C-1.29 7 -5.58 7 -10 7 C-10.33 7.99 -10.66 8.98 -11 10 C-10.40550688 3.69837297 -10.40550688 3.69837297 -8.875 1.0625 C-5.86086748 -0.64550843 -3.37911601 -0.36204814 0 0 Z " fill="#FAFAFA" transform="translate(115,65)"/>
<path d="M0 0 C0.70125 0.268125 1.4025 0.53625 2.125 0.8125 C2.25 4.1875 2.25 4.1875 2.125 7.8125 C1.465 8.4725 0.805 9.1325 0.125 9.8125 C-2 9.4375 -2 9.4375 -3.875 8.8125 C-3.875 8.1525 -3.875 7.4925 -3.875 6.8125 C-4.865 7.4725 -5.855 8.1325 -6.875 8.8125 C-7.865 8.8125 -8.855 8.8125 -9.875 8.8125 C-9.62431852 5.42830001 -8.56957439 4.5001329 -6.125 2 C-2.875 -0.1875 -2.875 -0.1875 0 0 Z " fill="#F5F5F5" transform="translate(309.875,399.1875)"/>
<path d="M0 0 C1.37562854 1.28965176 2.70766393 2.62689293 4 4 C4 4.66 4 5.32 4 6 C4.763125 6.28875 5.52625 6.5775 6.3125 6.875 C9 8 9 8 12 10 C12.70052461 12.663063 12.77744818 15.24035737 13 18 C3.79238351 14.61934376 3.79238351 14.61934376 1.92578125 10.8046875 C1.45544254 8.52448543 1.19490639 6.31814192 1 4 C0.68995386 2.66106002 0.36365429 1.32538464 0 0 Z " fill="#151515" transform="translate(142,190)"/>
<path d="M0 0 C0.33 0.99 0.66 1.98 1 3 C-6.3814978 5.12687225 -6.3814978 5.12687225 -9.4375 4.5 C-13.45772337 3.71556617 -17.09112254 4.96955518 -21 6 C-20 3 -20 3 -16.6875 1.3125 C-11.23084976 -0.59583669 -5.70442745 -0.25669924 0 0 Z " fill="#1C1C1C" transform="translate(159,142)"/>
<path d="M0 0 C0.66 0 1.32 0 2 0 C2 0.66 2 1.32 2 2 C2.99 2.33 3.98 2.66 5 3 C6.1875 6.0625 6.1875 6.0625 7 9 C6.34 9.66 5.68 10.32 5 11 C1.375 10.625 1.375 10.625 -2 10 C-3.01136941 7.26930259 -3.04557718 6.13998707 -2.125 3.3125 C-1 1 -1 1 0 0 Z " fill="#181818" transform="translate(179,132)"/>
<path d="M0 0 C1.58294782 -0.05437607 3.16644256 -0.09296271 4.75 -0.125 C5.63171875 -0.14820313 6.5134375 -0.17140625 7.421875 -0.1953125 C10.1135858 0.00860498 11.69904974 0.63448279 14 2 C13.625 4.4375 13.625 4.4375 13 7 C10.04335481 8.4783226 7.25770263 8.06032783 4 8 C3.67 7.01 3.34 6.02 3 5 C4.2065625 5.0309375 4.2065625 5.0309375 5.4375 5.0625 C7.93354885 5.29633621 7.93354885 5.29633621 9 4 C7.88625 3.8453125 7.88625 3.8453125 6.75 3.6875 C3.80904737 2.95226184 2.33902391 1.86422205 0 0 Z " fill="#E5E5E5" transform="translate(108,187)"/>
<path d="M0 0 C2.85200617 0.47533436 5.70377891 0.95170258 8.5546875 1.43359375 C10.78579844 1.80038636 13.02018009 2.14801174 15.2578125 2.47265625 C20.72964948 3.28863194 25.25342864 4.0993175 30 7 C30 7.33 30 7.66 30 8 C23.80603383 8.26161729 18.68490887 7.41356933 12.75 5.6875 C11.96109375 5.47416016 11.1721875 5.26082031 10.359375 5.04101562 C6.35307567 3.90747654 3.13786064 2.87637225 0 0 Z " fill="#EEEEEE" transform="translate(248,411)"/>
<path d="M0 0 C4.25076014 0.16040604 6.34087902 0.35777956 9.4375 3.375 C11 6 11 6 11 9 C6.39146203 8.27991594 2.32762591 6.68704061 -2 5 C-1.125 1.125 -1.125 1.125 0 0 Z " fill="#0E0E0E" transform="translate(118,156)"/>
<path d="M0 0 C4.6875 1.82291667 4.6875 1.82291667 6.875 3.0625 C9.09056283 4.17212012 9.09056283 4.17212012 12.10546875 4.3046875 C16.76379147 5.13636397 20.29003837 6.86544576 24.4375 9.0625 C25.16904297 9.43955078 25.90058594 9.81660156 26.65429688 10.20507812 C28.44093953 11.12759296 30.22115829 12.0625312 32 13 C27.67501875 14.44166042 24.78747526 12.49311039 20.8125 10.75 C19.34038198 10.11853543 17.86772695 9.48832126 16.39453125 8.859375 C15.6689502 8.54653564 14.94336914 8.23369629 14.19580078 7.91137695 C12.01886446 7.00782978 9.82384768 6.19786382 7.60546875 5.40234375 C4.08956382 4.03483576 2.37429928 2.86894496 0 0 Z " fill="#6D6D6D" transform="translate(196,396)"/>
<path d="M0 0 C3.37064536 3.00333144 5.04765088 5.77094798 6.75 9.9375 C7.17796875 10.95714844 7.6059375 11.97679687 8.046875 13.02734375 C8.96708999 15.89735853 9.19792909 18.01456956 9 21 C5.07030127 17.72525106 3.7001652 14.13591972 2.25 9.375 C2.02957031 8.694375 1.80914062 8.01375 1.58203125 7.3125 C0 2.34040179 0 2.34040179 0 0 Z " fill="#F2F2F2" transform="translate(87,230)"/>
<path d="M0 0 C5.08210401 0.48400991 7.81883688 2.18411464 12 5 C14.32003132 5.84833468 16.59141707 6.4219401 19 7 C19 7.66 19 8.32 19 9 C12.5980086 8.70966025 8.28563366 7.69994356 3 4 C1.0625 1.75 1.0625 1.75 0 0 Z " fill="#EEEEEE" transform="translate(196,346)"/>
<path d="M0 0 C5.75920802 2.03266165 10.64272666 4.77757481 14 10 C11 11 11 11 8.6875 9.875 C5.58405904 7.70980863 2.77488427 5.58128769 0 3 C0 2.01 0 1.02 0 0 Z " fill="#121212" transform="translate(129,212)"/>
<path d="M0 0 C4.35883937 3.2933453 6.95639299 5.77744875 9 11 C9 11.99 9 12.98 9 14 C5.17080388 12.49567295 3.21910453 10.44343806 1 7 C0.25 3.1875 0.25 3.1875 0 0 Z " fill="#131313" transform="translate(243,333)"/>
<path d="M0 0 C0.66 0.99 1.32 1.98 2 3 C0.98679688 3.06058594 -0.02640625 3.12117188 -1.0703125 3.18359375 C-2.42188514 3.26806704 -3.77344709 3.35271157 -5.125 3.4375 C-6.12273437 3.49647461 -6.12273437 3.49647461 -7.140625 3.55664062 C-11.15018817 3.812152 -15.04994196 4.26782413 -19 5 C-15.96944727 2.45547931 -13.31122782 1.2760998 -9.5 0.25 C-8.5615625 -0.01296875 -7.623125 -0.2759375 -6.65625 -0.546875 C-3.95295616 -1.00802513 -2.50612907 -1.07719583 0 0 Z " fill="#FCFCFC" transform="translate(129,113)"/>
<path d="M0 0 C4.59808129 0.53894425 7.86784369 1.76571528 11.875 4.0625 C12.84179688 4.61035156 13.80859375 5.15820312 14.8046875 5.72265625 C15.89136719 6.35494141 15.89136719 6.35494141 17 7 C16.67 7.99 16.34 8.98 16 10 C13.70320812 8.90557567 11.41295036 7.80013339 9.125 6.6875 C8.47402344 6.37876953 7.82304687 6.07003906 7.15234375 5.75195312 C3.80323602 4.11192615 2.10994121 3.16491182 0 0 Z " fill="#EFEFEF" transform="translate(187,328)"/>
<path d="M0 0 C6.96050253 0.38669459 11.9394075 2.63438409 18 6 C17.67 6.66 17.34 7.32 17 8 C14.35079924 7.05023017 11.70588027 6.09072092 9.0625 5.125 C8.30775391 4.85558594 7.55300781 4.58617187 6.77539062 4.30859375 C1.11328125 2.2265625 1.11328125 2.2265625 0 0 Z " fill="#1B1B1B" transform="translate(139,206)"/>
<path d="M0 0 C5.77482729 -0.29869796 8.85420308 0.14122394 14 3 C16.73572585 3.69907414 16.73572585 3.69907414 19 4 C19 4.33 19 4.66 19 5 C11.64825194 5.55253221 6.488417 4.51064108 0 1 C0 0.67 0 0.34 0 0 Z " fill="#E5E5E5" transform="translate(206,346)"/>
<path d="M0 0 C2.8125 -0.25 2.8125 -0.25 6 0 C7.875 2 7.875 2 9 4 C8 5 8 5 5.125 5.1875 C2 5 2 5 -1 3 C-0.67 2.01 -0.34 1.02 0 0 Z " fill="#111111" transform="translate(125,151)"/>
<path d="M0 0 C2 1.625 2 1.625 4 4 C4.25 7.25 4.25 7.25 4 10 C3.01 10.495 3.01 10.495 2 11 C-1.07692308 4.6 -1.07692308 4.6 -0.6875 1.5625 C-0.460625 1.046875 -0.23375 0.53125 0 0 Z " fill="#222222" transform="translate(213,281)"/>
<path d="M0 0 C1.09570312 0.28746094 2.19140625 0.57492187 3.3203125 0.87109375 C4.16335938 1.09925781 5.00640625 1.32742188 5.875 1.5625 C4.885 2.0575 4.885 2.0575 3.875 2.5625 C3.875 3.2225 3.875 3.8825 3.875 4.5625 C2.43568883 4.10988642 0.99861001 3.65017021 -0.4375 3.1875 C-1.23800781 2.93226563 -2.03851563 2.67703125 -2.86328125 2.4140625 C-5.125 1.5625 -5.125 1.5625 -8.125 -0.4375 C-5.13816063 -1.93091969 -3.17339022 -0.84398676 0 0 Z " fill="#232323" transform="translate(256.125,414.4375)"/>
<path d="M0 0 C1.44096586 0.42594588 2.87768712 0.86626633 4.3125 1.3125 C5.11300781 1.55613281 5.91351563 1.79976563 6.73828125 2.05078125 C9.09964573 3.04182023 10.33879993 4.08074943 12 6 C7.27536912 5.53680089 3.82942948 4.90108294 0 2 C0 1.34 0 0.68 0 0 Z " fill="#E0E0E0" transform="translate(208,367)"/>
<path d="M0 0 C0.33 0 0.66 0 1 0 C0.88541307 1.43836751 0.75790884 2.87570966 0.625 4.3125 C0.55539063 5.11300781 0.48578125 5.91351563 0.4140625 6.73828125 C0 9 0 9 -2 12 C-2.99 11.67 -3.98 11.34 -5 11 C-4.14254495 8.42763485 -3.1606471 6.21933783 -1.9375 3.8125 C-1.57527344 3.09707031 -1.21304688 2.38164062 -0.83984375 1.64453125 C-0.42412109 0.83048828 -0.42412109 0.83048828 0 0 Z " fill="#2B2B2B" transform="translate(200,178)"/>
<path d="M0 0 C1.32 0.33 2.64 0.66 4 1 C4 1.66 4 2.32 4 3 C3.34 3 2.68 3 2 3 C1.67 3.99 1.34 4.98 1 6 C0.67 5.34 0.34 4.68 0 4 C-1.98 4.33 -3.96 4.66 -6 5 C-6 4.01 -6 3.02 -6 2 C-4.02 2 -2.04 2 0 2 C0 1.34 0 0.68 0 0 Z " fill="#818181" transform="translate(257,383)"/>
<path d="M0 0 C-1.13474948 3.40424844 -1.96811304 4.21653709 -5 6 C-5.99 5.67 -6.98 5.34 -8 5 C-5.96115496 0.48541456 -5.19128917 0 0 0 Z " fill="#EBEBEB" transform="translate(322,403)"/>
<path d="M0 0 C1.2065625 0.0309375 1.2065625 0.0309375 2.4375 0.0625 C2.4375 1.3825 2.4375 2.7025 2.4375 4.0625 C1.1175 4.3925 -0.2025 4.7225 -1.5625 5.0625 C-2.2225 3.7425 -2.8825 2.4225 -3.5625 1.0625 C-2.5625 0.0625 -2.5625 0.0625 0 0 Z " fill="#D8D8D8" transform="translate(98.5625,191.9375)"/>
<path d="M0 0 C-0.33 0.99 -0.66 1.98 -1 3 C-2.98 3.33 -4.96 3.66 -7 4 C-7 4.99 -7 5.98 -7 7 C-7.66 7 -8.32 7 -9 7 C-8.02086745 1.32103121 -5.73500486 -0.46500039 0 0 Z " fill="#1E1E1E" transform="translate(197,135)"/>
<path d="M0 0 C6.75 0.75 6.75 0.75 9 3 C8.625 5.125 8.625 5.125 8 7 C5.18060883 4.79020692 2.46941056 2.59937954 0 0 Z " fill="#F3F3F3" transform="translate(234,144)"/>
<path d="M0 0 C1.44096586 0.42594588 2.87768712 0.86626633 4.3125 1.3125 C5.11300781 1.55613281 5.91351563 1.79976563 6.73828125 2.05078125 C9.09964573 3.04182023 10.33879993 4.08074943 12 6 C7.15340923 5.40895235 3.39251833 4.02055843 -1 2 C-0.67 1.34 -0.34 0.68 0 0 Z " fill="#292929" transform="translate(216,404)"/>
<path d="M0 0 C-0.33 0.66 -0.66 1.32 -1 2 C-3.72265625 2.6328125 -3.72265625 2.6328125 -7.0625 3.125 C-8.16722656 3.29257813 -9.27195312 3.46015625 -10.41015625 3.6328125 C-11.69212891 3.81457031 -11.69212891 3.81457031 -13 4 C-8.90541264 0.78092916 -5.23545923 -1.74515308 0 0 Z " fill="#E7E7E7" transform="translate(123,114)"/>
<path d="M0 0 C1.98 0.495 1.98 0.495 4 1 C4.33 2.32 4.66 3.64 5 5 C3.35 4.67 1.7 4.34 0 4 C0 2.68 0 1.36 0 0 Z " fill="#DBDBDB" transform="translate(96,216)"/>
<path d="M0 0 C0.99 0.495 0.99 0.495 2 1 C2.73075648 3.3140622 3.40138258 5.64828869 4 8 C3.34 8 2.68 8 2 8 C1.67 8.66 1.34 9.32 1 10 C0.67 6.7 0.34 3.4 0 0 Z " fill="#202020" transform="translate(152,231)"/>
<path d="M0 0 C1.258125 0.12375 2.51625 0.2475 3.8125 0.375 C4.87404297 0.47941406 4.87404297 0.47941406 5.95703125 0.5859375 C8 1 8 1 11 3 C8.83032311 3.95465783 7.43671207 4.14401212 5.17578125 3.3984375 C3.4315257 2.64129615 1.71372869 1.82390802 0 1 C0 0.67 0 0.34 0 0 Z " fill="#282828" transform="translate(139,206)"/>
<path d="M0 0 C2.31 0 4.62 0 7 0 C6.67 0.99 6.34 1.98 6 3 C3.69 3.33 1.38 3.66 -1 4 C-0.67 2.68 -0.34 1.36 0 0 Z " fill="#1E1E1E" transform="translate(108,62)"/>
<path d="M0 0 C4.75 1.875 4.75 1.875 7 3 C7 3.66 7 4.32 7 5 C3.31245243 4.50168276 1.39509338 3.89932357 -1 1 C-0.67 0.67 -0.34 0.34 0 0 Z " fill="#1D1D1D" transform="translate(201,396)"/>
<path d="M0 0 C1.9375 0.75 1.9375 0.75 4 2 C4.75 4.125 4.75 4.125 5 6 C3.68 6 2.36 6 1 6 C0.67 4.02 0.34 2.04 0 0 Z " fill="#272727" transform="translate(232,318)"/>
<path d="M0 0 C1.90318884 2.85478326 2.4619099 4.41941308 3.125 7.6875 C3.29257813 8.49574219 3.46015625 9.30398437 3.6328125 10.13671875 C3.75398438 10.75160156 3.87515625 11.36648437 4 12 C1.35858749 8.87833067 0.03218742 5.95671845 -1 2 C-0.67 1.34 -0.34 0.68 0 0 Z " fill="#434343" transform="translate(88,235)"/>
<path d="M0 0 C0.66 0 1.32 0 2 0 C1.34 3.3 0.68 6.6 0 10 C-0.33 10 -0.66 10 -1 10 C-1.02689216 8.52093108 -1.04634621 7.04172517 -1.0625 5.5625 C-1.07410156 4.73878906 -1.08570313 3.91507813 -1.09765625 3.06640625 C-1 1 -1 1 0 0 Z " fill="#2C2C2C" transform="translate(202,229)"/>
<path d="M0 0 C2.31 0.33 4.62 0.66 7 1 C7 1.99 7 2.98 7 4 C4.625 3.6875 4.625 3.6875 2 3 C1.34 2.01 0.68 1.02 0 0 Z " fill="#DDDDDD" transform="translate(95,210)"/>
<path d="M0 0 C0.99 0 1.98 0 3 0 C3.33 1.65 3.66 3.3 4 5 C2.68 4.67 1.36 4.34 0 4 C0 2.68 0 1.36 0 0 Z " fill="#252525" transform="translate(153,192)"/>
<path d="M0 0 C5.53846154 0.61538462 5.53846154 0.61538462 7.875 2.5625 C8.431875 3.2740625 8.431875 3.2740625 9 4 C5.625 3.6875 5.625 3.6875 2 3 C1.34 2.01 0.68 1.02 0 0 Z " fill="#E8E8E8" transform="translate(209,358)"/>
<path d="M0 0 C-0.75 1.9375 -0.75 1.9375 -2 4 C-4.125 4.75 -4.125 4.75 -6 5 C-3.74193548 0 -3.74193548 0 0 0 Z " fill="#D7D7D7" transform="translate(322,408)"/>
<path d="M0 0 C5.53846154 0.61538462 5.53846154 0.61538462 7.875 2.5625 C8.431875 3.2740625 8.431875 3.2740625 9 4 C5.625 3.6875 5.625 3.6875 2 3 C1.34 2.01 0.68 1.02 0 0 Z " fill="#DFDFDF" transform="translate(187,338)"/>
</svg>
