<?xml version="1.0" encoding="UTF-8"?>
<svg version="1.1" xmlns="http://www.w3.org/2000/svg" width="512" height="512">
<path d="M0 0 C1.07767366 1.01993518 2.15445633 2.04081239 3.23046875 3.0625 C3.81876465 3.61679688 4.40706055 4.17109375 5.01318359 4.7421875 C14.31501528 13.56141164 22.3919477 22.86723323 29.91308594 33.24560547 C30.99574213 34.73877214 32.09865922 36.21722764 33.20703125 37.69140625 C70.4146718 88.38902074 83.78369905 156.36482887 74.7265625 217.90283203 C71.19946551 240.36724601 65.50825417 262.68545149 55.23046875 283.0625 C53.82007875 286.03486723 52.43342726 289.01826722 51.04296875 292 C48.83118867 296.71874937 46.58169591 301.41100106 44.23046875 306.0625 C43.57046875 306.0625 42.91046875 306.0625 42.23046875 306.0625 C42.10671875 306.64 41.98296875 307.2175 41.85546875 307.8125 C41.22398051 310.08585767 40.34188684 311.9878529 39.23046875 314.0625 C38.57046875 314.0625 37.91046875 314.0625 37.23046875 314.0625 C37.08609375 314.68125 36.94171875 315.3 36.79296875 315.9375 C36.23046875 318.0625 36.23046875 318.0625 35.23046875 320.0625 C34.57046875 320.0625 33.91046875 320.0625 33.23046875 320.0625 C32.90046875 321.3825 32.57046875 322.7025 32.23046875 324.0625 C31.57046875 324.0625 30.91046875 324.0625 30.23046875 324.0625 C29.90046875 325.3825 29.57046875 326.7025 29.23046875 328.0625 C28.57046875 328.0625 27.91046875 328.0625 27.23046875 328.0625 C26.90046875 329.3825 26.57046875 330.7025 26.23046875 332.0625 C25.57046875 332.0625 24.91046875 332.0625 24.23046875 332.0625 C23.90046875 333.3825 23.57046875 334.7025 23.23046875 336.0625 C22.57046875 336.0625 21.91046875 336.0625 21.23046875 336.0625 C20.96234375 336.825625 20.69421875 337.58875 20.41796875 338.375 C19.2791237 340.95238618 18.41630204 342.33204864 16.23046875 344.0625 C15.57046875 344.0625 14.91046875 344.0625 14.23046875 344.0625 C14.23046875 344.7225 14.23046875 345.3825 14.23046875 346.0625 C13.57046875 346.0625 12.91046875 346.0625 12.23046875 346.0625 C12.23046875 346.7225 12.23046875 347.3825 12.23046875 348.0625 C11.57046875 348.0625 10.91046875 348.0625 10.23046875 348.0625 C10.23046875 348.7225 10.23046875 349.3825 10.23046875 350.0625 C9.57046875 350.0625 8.91046875 350.0625 8.23046875 350.0625 C8.23046875 350.7225 8.23046875 351.3825 8.23046875 352.0625 C7.57046875 352.0625 6.91046875 352.0625 6.23046875 352.0625 C6.23046875 352.7225 6.23046875 353.3825 6.23046875 354.0625 C5.57046875 354.0625 4.91046875 354.0625 4.23046875 354.0625 C4.23046875 354.7225 4.23046875 355.3825 4.23046875 356.0625 C3.57046875 356.0625 2.91046875 356.0625 2.23046875 356.0625 C2.23046875 356.7225 2.23046875 357.3825 2.23046875 358.0625 C1.57046875 358.0625 0.91046875 358.0625 0.23046875 358.0625 C0.23046875 358.7225 0.23046875 359.3825 0.23046875 360.0625 C-0.42953125 360.0625 -1.08953125 360.0625 -1.76953125 360.0625 C-1.76953125 360.7225 -1.76953125 361.3825 -1.76953125 362.0625 C-2.42953125 362.0625 -3.08953125 362.0625 -3.76953125 362.0625 C-3.99640625 362.68125 -4.22328125 363.3 -4.45703125 363.9375 C-6.15816083 366.6917098 -7.82329279 366.88400461 -10.76953125 368.0625 C-12.11363387 370.07985205 -12.11363387 370.07985205 -12.76953125 372.0625 C-13.75953125 372.0625 -14.74953125 372.0625 -15.76953125 372.0625 C-16.42953125 373.3825 -17.08953125 374.7025 -17.76953125 376.0625 C-18.75953125 376.0625 -19.74953125 376.0625 -20.76953125 376.0625 C-21.09953125 377.0525 -21.42953125 378.0425 -21.76953125 379.0625 C-23.88671875 380.640625 -23.88671875 380.640625 -26.64453125 382.3125 C-27.64355469 382.92480469 -28.64257812 383.53710938 -29.671875 384.16796875 C-30.69410156 384.79316406 -31.71632813 385.41835938 -32.76953125 386.0625 C-34.58308775 387.24838588 -36.39561564 388.43584652 -38.20703125 389.625 C-47.86337609 395.76123048 -58.36360327 400.35672369 -68.76953125 405.0625 C-69.78853516 405.5265625 -69.78853516 405.5265625 -70.828125 406 C-82.66080917 411.24682531 -96.87884686 415.74934183 -109.76953125 412.0625 C-111.50203125 411.629375 -111.50203125 411.629375 -113.26953125 411.1875 C-116.44497085 410.16682299 -118.38603416 409.35065721 -120.76953125 407.0625 C-120.76953125 406.4025 -120.76953125 405.7425 -120.76953125 405.0625 C-121.42953125 405.0625 -122.08953125 405.0625 -122.76953125 405.0625 C-122.76953125 404.4025 -122.76953125 403.7425 -122.76953125 403.0625 C-123.42953125 402.7325 -124.08953125 402.4025 -124.76953125 402.0625 C-130.58939139 394.06019231 -130.06241996 384.72947683 -130.0744915 375.2799015 C-130.07819492 372.9441815 -130.09503054 370.60887132 -130.11524963 368.27323914 C-130.17026797 361.63739714 -130.20120243 355.00149561 -130.22583008 348.36547852 C-130.2418548 344.29067124 -130.27222719 340.21615525 -130.31059456 336.14150047 C-130.32211523 334.60322386 -130.32817376 333.06489484 -130.32827568 331.52657509 C-130.32931838 319.97418305 -130.71829846 308.08638505 -136.89453125 297.9375 C-141.71968912 289.84755869 -142.11103304 280.62524259 -140.2265625 271.40625 C-138.12299943 266.27079086 -134.44812281 264.5223063 -129.62744141 262.21118164 C-124.92350172 260.32052418 -120.12177809 259.49010151 -115.14453125 258.625 C-93.39986865 254.45444754 -72.48668157 246.24249446 -58.6796875 227.984375 C-44.70550657 206.60873628 -39.01988089 179.75199527 -44.01953125 154.5625 C-45.24424733 149.51713853 -46.87506775 144.78611715 -49 140.05078125 C-49.76953125 138.0625 -49.76953125 138.0625 -49.76953125 135.0625 C-50.42953125 134.7325 -51.08953125 134.4025 -51.76953125 134.0625 C-52.43619792 132.39583333 -53.10286458 130.72916667 -53.76953125 129.0625 C-54.42953125 128.7325 -55.08953125 128.4025 -55.76953125 128.0625 C-56.98828125 126.64453125 -56.98828125 126.64453125 -58.26953125 124.875 C-58.69234375 124.30394531 -59.11515625 123.73289063 -59.55078125 123.14453125 C-63.01481736 117.2268029 -63.04956828 111.65779567 -62.95703125 105 C-62.95638672 104.11505859 -62.95574219 103.23011719 -62.95507812 102.31835938 C-62.91076433 95.75499325 -62.91076433 95.75499325 -62.26513672 92.58935547 C-61.75395574 89.9830879 -61.65559979 87.63332808 -61.671875 84.98046875 C-61.67670898 83.58344727 -61.67670898 83.58344727 -61.68164062 82.15820312 C-61.69001953 81.19849609 -61.69839844 80.23878906 -61.70703125 79.25 C-61.71379883 77.78143555 -61.71379883 77.78143555 -61.72070312 76.28320312 C-61.73244441 73.87623889 -61.74886706 71.46940143 -61.76953125 69.0625 C-65.54216885 68.97849865 -67.87233264 69.31934364 -71.26953125 71 C-74.46511066 72.51790022 -77.28521113 73.40918998 -80.76953125 74.0625 C-81.09953125 74.7225 -81.42953125 75.3825 -81.76953125 76.0625 C-83.31983499 77.09316489 -84.9101041 78.06434191 -86.51953125 79 C-87.81117188 79.75603516 -87.81117188 79.75603516 -89.12890625 80.52734375 C-90.0003125 81.03394531 -90.87171875 81.54054687 -91.76953125 82.0625 C-92.60226562 82.59746094 -93.435 83.13242188 -94.29296875 83.68359375 C-98.23773909 85.87997219 -102.36002645 86.32874722 -106.76953125 87.0625 C-107.86265625 87.289375 -108.95578125 87.51625 -110.08203125 87.75 C-116.7654896 88.31639478 -123.63853664 87.98338077 -130.08984375 86.0859375 C-134.4469713 84.87408249 -138.65202549 84.40376679 -143.14453125 84 C-144.02012695 83.91838623 -144.89572266 83.83677246 -145.79785156 83.75268555 C-148.45425591 83.5116094 -151.11146398 83.28442401 -153.76953125 83.0625 C-154.53749023 82.99643555 -155.30544922 82.93037109 -156.09667969 82.86230469 C-173.39975414 81.42358751 -189.9145567 83.20144568 -207.01953125 86.125 C-223.18234418 88.82594752 -235.376907 88.37676577 -249.14453125 78.71484375 C-252.46290509 76.62604593 -255.90424899 74.96233057 -259.45703125 73.3125 C-260.08697998 73.01883545 -260.71692871 72.7251709 -261.3659668 72.42260742 C-265.10181852 70.7198388 -268.85278777 69.28986662 -272.76953125 68.0625 C-273.88543362 72.53496585 -273.91840386 76.92043747 -273.89453125 81.5 C-273.89839844 82.23798828 -273.90226563 82.97597656 -273.90625 83.73632812 C-273.89871647 87.97393708 -273.4795987 91.87740549 -272.76953125 96.0625 C-271.91507679 106.91766391 -271.7860633 116.55305986 -277.76953125 126.0625 C-278.42953125 126.0625 -279.08953125 126.0625 -279.76953125 126.0625 C-280.09953125 127.3825 -280.42953125 128.7025 -280.76953125 130.0625 C-281.42953125 130.0625 -282.08953125 130.0625 -282.76953125 130.0625 C-282.92421875 131.1453125 -282.92421875 131.1453125 -283.08203125 132.25 C-283.76953125 135.0625 -283.76953125 135.0625 -285.18359375 137.41015625 C-286.7381513 140.01001973 -287.80492888 142.4682165 -288.83203125 145.3125 C-289.15300781 146.18390625 -289.47398437 147.0553125 -289.8046875 147.953125 C-292.09427153 155.33170348 -293.13244092 162.21020824 -293.08203125 169.9375 C-293.0771167 170.84443604 -293.07220215 171.75137207 -293.06713867 172.68579102 C-292.82224879 187.14182932 -290.44579576 200.72751442 -284.76953125 214.0625 C-284.19912109 215.41408203 -284.19912109 215.41408203 -283.6171875 216.79296875 C-275.82890265 233.70692071 -260.81854026 246.03907474 -243.6796875 252.71875 C-234.18857442 256.16613654 -224.46129493 258.39647351 -214.56079102 260.3269043 C-208.37550181 261.56051899 -203.00783215 262.69984905 -198.51953125 267.4375 C-194.12063889 274.03583854 -194.05033594 280.32005176 -194.76953125 288.0625 C-196.45341315 294.83443585 -199.6608102 301.04601585 -202.6015625 307.34375 C-204.1055475 310.84466491 -205.1815157 314.39674583 -206.19140625 318.06640625 C-206.76953125 320.0625 -206.76953125 320.0625 -207.76953125 322.0625 C-208.86207221 326.97893432 -208.87545259 330.10084923 -207.30859375 334.875 C-204.94215468 343.9357524 -205.32239213 353.1929872 -205.37841797 362.49902344 C-205.39453015 365.6872819 -205.37849256 368.87427952 -205.359375 372.0625 C-205.36135707 374.11719026 -205.36520001 376.17187974 -205.37109375 378.2265625 C-205.36502106 379.16537262 -205.35894836 380.10418274 -205.35269165 381.07144165 C-205.45376507 390.70678479 -207.46611869 399.60156034 -214.34765625 406.6875 C-221.83448572 413.23061147 -232.00339151 413.48471398 -241.57421875 413.25390625 C-244.82408541 412.97055489 -247.68497739 412.10904506 -250.76953125 411.0625 C-252.39429441 410.6033278 -254.01931368 410.14506125 -255.64453125 409.6875 C-260.57217632 408.1922654 -265.11877474 406.25924031 -269.76953125 404.0625 C-271.13516067 403.43043619 -272.50107248 402.79898231 -273.8671875 402.16796875 C-275.37656556 401.46671265 -276.88567749 400.76488349 -278.39453125 400.0625 C-279.11133057 399.73032471 -279.82812988 399.39814941 -280.56665039 399.0559082 C-286.72338439 396.16676616 -292.58055263 392.96461963 -298.20703125 389.125 C-301.84183491 386.65807999 -305.54416538 384.35803559 -309.3359375 382.140625 C-310.04556641 381.60695313 -310.04556641 381.60695313 -310.76953125 381.0625 C-310.76953125 380.4025 -310.76953125 379.7425 -310.76953125 379.0625 C-311.33800781 378.96582031 -311.90648437 378.86914062 -312.4921875 378.76953125 C-315.2714011 377.90668792 -316.94884736 376.5776809 -319.20703125 374.75 C-319.98820312 374.1209375 -320.769375 373.491875 -321.57421875 372.84375 C-322.29867187 372.2559375 -323.023125 371.668125 -323.76953125 371.0625 C-324.78015625 370.299375 -325.79078125 369.53625 -326.83203125 368.75 C-327.47140625 368.193125 -328.11078125 367.63625 -328.76953125 367.0625 C-328.76953125 366.4025 -328.76953125 365.7425 -328.76953125 365.0625 C-329.42953125 365.0625 -330.08953125 365.0625 -330.76953125 365.0625 C-330.76953125 364.4025 -330.76953125 363.7425 -330.76953125 363.0625 C-331.6527002 362.90950439 -331.6527002 362.90950439 -332.55371094 362.75341797 C-335.15071439 361.94364276 -336.30252175 360.91645902 -338.22265625 359.0078125 C-339.15078125 358.08548828 -339.15078125 358.08548828 -340.09765625 357.14453125 C-341.04898438 356.17580078 -341.04898438 356.17580078 -342.01953125 355.1875 C-342.66921875 354.54941406 -343.31890625 353.91132813 -343.98828125 353.25390625 C-344.601875 352.63644531 -345.21546875 352.01898438 -345.84765625 351.3828125 C-346.4087207 350.81836426 -346.96978516 350.25391602 -347.54785156 349.67236328 C-348.76953125 348.0625 -348.76953125 348.0625 -348.76953125 345.0625 C-349.42953125 345.0625 -350.08953125 345.0625 -350.76953125 345.0625 C-350.76953125 344.4025 -350.76953125 343.7425 -350.76953125 343.0625 C-351.42953125 343.0625 -352.08953125 343.0625 -352.76953125 343.0625 C-352.76953125 342.4025 -352.76953125 341.7425 -352.76953125 341.0625 C-353.72859375 340.69125 -353.72859375 340.69125 -354.70703125 340.3125 C-356.76953125 339.0625 -356.76953125 339.0625 -357.33203125 337 C-357.47640625 336.360625 -357.62078125 335.72125 -357.76953125 335.0625 C-358.75953125 334.7325 -359.74953125 334.4025 -360.76953125 334.0625 C-360.76953125 333.0725 -360.76953125 332.0825 -360.76953125 331.0625 C-361.75953125 330.7325 -362.74953125 330.4025 -363.76953125 330.0625 C-363.76953125 329.0725 -363.76953125 328.0825 -363.76953125 327.0625 C-364.75953125 326.7325 -365.74953125 326.4025 -366.76953125 326.0625 C-366.76953125 325.0725 -366.76953125 324.0825 -366.76953125 323.0625 C-367.42953125 322.7325 -368.08953125 322.4025 -368.76953125 322.0625 C-369.42953125 321.4025 -370.08953125 320.7425 -370.76953125 320.0625 C-370.76953125 319.0725 -370.76953125 318.0825 -370.76953125 317.0625 C-371.75953125 316.7325 -372.74953125 316.4025 -373.76953125 316.0625 C-373.89328125 315.258125 -374.01703125 314.45375 -374.14453125 313.625 C-374.35078125 312.779375 -374.55703125 311.93375 -374.76953125 311.0625 C-375.42953125 310.7325 -376.08953125 310.4025 -376.76953125 310.0625 C-378.05859375 308.3203125 -378.05859375 308.3203125 -379.39453125 306.1875 C-379.84054687 305.48882812 -380.2865625 304.79015625 -380.74609375 304.0703125 C-381.76953125 302.0625 -381.76953125 302.0625 -381.76953125 299.0625 C-382.42953125 298.7325 -383.08953125 298.4025 -383.76953125 298.0625 C-385.10046463 295.70638821 -386.33052294 293.36433385 -387.51953125 290.9375 C-387.87515137 290.2161084 -388.23077148 289.4947168 -388.59716797 288.75146484 C-392.04013479 281.66591649 -395.05868266 274.45822283 -397.76953125 267.0625 C-398.01944824 266.38525879 -398.26936523 265.70801758 -398.52685547 265.01025391 C-408.52868687 237.52900124 -412.99087504 208.49252592 -413.01953125 179.3125 C-413.02053833 178.59317291 -413.02154541 177.87384583 -413.02258301 177.13272095 C-413.01018074 163.92704277 -411.97103535 151.09664993 -409.76953125 138.0625 C-409.63562988 137.2257373 -409.50172852 136.38897461 -409.36376953 135.52685547 C-403.22881636 97.93632424 -387.56351045 62.44935922 -364.76953125 32.0625 C-364.32673828 31.46276367 -363.88394531 30.86302734 -363.42773438 30.24511719 C-326.78865442 -19.20386667 -269.70753376 -52.29277937 -209.078125 -61.87890625 C-133.4504282 -73.01872286 -56.36268345 -52.69746722 0 0 Z " fill="#191717" transform="translate(423.76953125,81.9375)"/>
<path d="M0 0 C1.07767366 1.01993518 2.15445633 2.04081239 3.23046875 3.0625 C3.81876465 3.61679688 4.40706055 4.17109375 5.01318359 4.7421875 C14.31501528 13.56141164 22.3919477 22.86723323 29.91308594 33.24560547 C30.99574213 34.73877214 32.09865922 36.21722764 33.20703125 37.69140625 C70.4146718 88.38902074 83.78369905 156.36482887 74.7265625 217.90283203 C71.19946551 240.36724601 65.50825417 262.68545149 55.23046875 283.0625 C53.82007875 286.03486723 52.43342726 289.01826722 51.04296875 292 C48.83118867 296.71874937 46.58169591 301.41100106 44.23046875 306.0625 C43.57046875 306.0625 42.91046875 306.0625 42.23046875 306.0625 C42.10671875 306.64 41.98296875 307.2175 41.85546875 307.8125 C41.22398051 310.08585767 40.34188684 311.9878529 39.23046875 314.0625 C38.57046875 314.0625 37.91046875 314.0625 37.23046875 314.0625 C37.08609375 314.68125 36.94171875 315.3 36.79296875 315.9375 C36.23046875 318.0625 36.23046875 318.0625 35.23046875 320.0625 C34.57046875 320.0625 33.91046875 320.0625 33.23046875 320.0625 C32.90046875 321.3825 32.57046875 322.7025 32.23046875 324.0625 C31.57046875 324.0625 30.91046875 324.0625 30.23046875 324.0625 C29.90046875 325.3825 29.57046875 326.7025 29.23046875 328.0625 C28.57046875 328.0625 27.91046875 328.0625 27.23046875 328.0625 C26.90046875 329.3825 26.57046875 330.7025 26.23046875 332.0625 C25.57046875 332.0625 24.91046875 332.0625 24.23046875 332.0625 C23.90046875 333.3825 23.57046875 334.7025 23.23046875 336.0625 C22.57046875 336.0625 21.91046875 336.0625 21.23046875 336.0625 C20.96234375 336.825625 20.69421875 337.58875 20.41796875 338.375 C19.2791237 340.95238618 18.41630204 342.33204864 16.23046875 344.0625 C15.57046875 344.0625 14.91046875 344.0625 14.23046875 344.0625 C14.23046875 344.7225 14.23046875 345.3825 14.23046875 346.0625 C13.57046875 346.0625 12.91046875 346.0625 12.23046875 346.0625 C12.23046875 346.7225 12.23046875 347.3825 12.23046875 348.0625 C11.57046875 348.0625 10.91046875 348.0625 10.23046875 348.0625 C10.23046875 348.7225 10.23046875 349.3825 10.23046875 350.0625 C9.57046875 350.0625 8.91046875 350.0625 8.23046875 350.0625 C8.23046875 350.7225 8.23046875 351.3825 8.23046875 352.0625 C7.57046875 352.0625 6.91046875 352.0625 6.23046875 352.0625 C6.23046875 352.7225 6.23046875 353.3825 6.23046875 354.0625 C5.57046875 354.0625 4.91046875 354.0625 4.23046875 354.0625 C4.23046875 354.7225 4.23046875 355.3825 4.23046875 356.0625 C3.57046875 356.0625 2.91046875 356.0625 2.23046875 356.0625 C2.23046875 356.7225 2.23046875 357.3825 2.23046875 358.0625 C1.57046875 358.0625 0.91046875 358.0625 0.23046875 358.0625 C0.23046875 358.7225 0.23046875 359.3825 0.23046875 360.0625 C-0.42953125 360.0625 -1.08953125 360.0625 -1.76953125 360.0625 C-1.76953125 360.7225 -1.76953125 361.3825 -1.76953125 362.0625 C-2.42953125 362.0625 -3.08953125 362.0625 -3.76953125 362.0625 C-3.99640625 362.68125 -4.22328125 363.3 -4.45703125 363.9375 C-6.15816083 366.6917098 -7.82329279 366.88400461 -10.76953125 368.0625 C-12.11363387 370.07985205 -12.11363387 370.07985205 -12.76953125 372.0625 C-13.75953125 372.0625 -14.74953125 372.0625 -15.76953125 372.0625 C-16.42953125 373.3825 -17.08953125 374.7025 -17.76953125 376.0625 C-18.75953125 376.0625 -19.74953125 376.0625 -20.76953125 376.0625 C-21.09953125 377.0525 -21.42953125 378.0425 -21.76953125 379.0625 C-23.88671875 380.640625 -23.88671875 380.640625 -26.64453125 382.3125 C-27.64355469 382.92480469 -28.64257812 383.53710938 -29.671875 384.16796875 C-30.69410156 384.79316406 -31.71632813 385.41835938 -32.76953125 386.0625 C-34.58308775 387.24838588 -36.39561564 388.43584652 -38.20703125 389.625 C-47.86337609 395.76123048 -58.36360327 400.35672369 -68.76953125 405.0625 C-69.78853516 405.5265625 -69.78853516 405.5265625 -70.828125 406 C-82.66080917 411.24682531 -96.87884686 415.74934183 -109.76953125 412.0625 C-111.50203125 411.629375 -111.50203125 411.629375 -113.26953125 411.1875 C-116.44497085 410.16682299 -118.38603416 409.35065721 -120.76953125 407.0625 C-120.76953125 406.4025 -120.76953125 405.7425 -120.76953125 405.0625 C-121.42953125 405.0625 -122.08953125 405.0625 -122.76953125 405.0625 C-122.76953125 404.4025 -122.76953125 403.7425 -122.76953125 403.0625 C-123.42953125 402.7325 -124.08953125 402.4025 -124.76953125 402.0625 C-130.58939139 394.06019231 -130.06241996 384.72947683 -130.0744915 375.2799015 C-130.07819492 372.9441815 -130.09503054 370.60887132 -130.11524963 368.27323914 C-130.17026797 361.63739714 -130.20120243 355.00149561 -130.22583008 348.36547852 C-130.2418548 344.29067124 -130.27222719 340.21615525 -130.31059456 336.14150047 C-130.32211523 334.60322386 -130.32817376 333.06489484 -130.32827568 331.52657509 C-130.32931838 319.97418305 -130.71829846 308.08638505 -136.89453125 297.9375 C-141.71968912 289.84755869 -142.11103304 280.62524259 -140.2265625 271.40625 C-138.12299943 266.27079086 -134.44812281 264.5223063 -129.62744141 262.21118164 C-124.92350172 260.32052418 -120.12177809 259.49010151 -115.14453125 258.625 C-93.39986865 254.45444754 -72.48668157 246.24249446 -58.6796875 227.984375 C-44.70550657 206.60873628 -39.01988089 179.75199527 -44.01953125 154.5625 C-45.24424733 149.51713853 -46.87506775 144.78611715 -49 140.05078125 C-49.76953125 138.0625 -49.76953125 138.0625 -49.76953125 135.0625 C-50.42953125 134.7325 -51.08953125 134.4025 -51.76953125 134.0625 C-52.43619792 132.39583333 -53.10286458 130.72916667 -53.76953125 129.0625 C-54.42953125 128.7325 -55.08953125 128.4025 -55.76953125 128.0625 C-56.98828125 126.64453125 -56.98828125 126.64453125 -58.26953125 124.875 C-58.69234375 124.30394531 -59.11515625 123.73289063 -59.55078125 123.14453125 C-63.01481736 117.2268029 -63.04956828 111.65779567 -62.95703125 105 C-62.95638672 104.11505859 -62.95574219 103.23011719 -62.95507812 102.31835938 C-62.91076433 95.75499325 -62.91076433 95.75499325 -62.26513672 92.58935547 C-61.75395574 89.9830879 -61.65559979 87.63332808 -61.671875 84.98046875 C-61.67670898 83.58344727 -61.67670898 83.58344727 -61.68164062 82.15820312 C-61.69001953 81.19849609 -61.69839844 80.23878906 -61.70703125 79.25 C-61.71379883 77.78143555 -61.71379883 77.78143555 -61.72070312 76.28320312 C-61.73244441 73.87623889 -61.74886706 71.46940143 -61.76953125 69.0625 C-65.54216885 68.97849865 -67.87233264 69.31934364 -71.26953125 71 C-74.46511066 72.51790022 -77.28521113 73.40918998 -80.76953125 74.0625 C-81.09953125 74.7225 -81.42953125 75.3825 -81.76953125 76.0625 C-83.31983499 77.09316489 -84.9101041 78.06434191 -86.51953125 79 C-87.81117188 79.75603516 -87.81117188 79.75603516 -89.12890625 80.52734375 C-90.0003125 81.03394531 -90.87171875 81.54054687 -91.76953125 82.0625 C-92.60226562 82.59746094 -93.435 83.13242188 -94.29296875 83.68359375 C-98.23773909 85.87997219 -102.36002645 86.32874722 -106.76953125 87.0625 C-107.86265625 87.289375 -108.95578125 87.51625 -110.08203125 87.75 C-116.7654896 88.31639478 -123.63853664 87.98338077 -130.08984375 86.0859375 C-134.4469713 84.87408249 -138.65202549 84.40376679 -143.14453125 84 C-144.02012695 83.91838623 -144.89572266 83.83677246 -145.79785156 83.75268555 C-148.45425591 83.5116094 -151.11146398 83.28442401 -153.76953125 83.0625 C-154.53749023 82.99643555 -155.30544922 82.93037109 -156.09667969 82.86230469 C-173.39975414 81.42358751 -189.9145567 83.20144568 -207.01953125 86.125 C-223.18234418 88.82594752 -235.376907 88.37676577 -249.14453125 78.71484375 C-252.46290509 76.62604593 -255.90424899 74.96233057 -259.45703125 73.3125 C-260.08697998 73.01883545 -260.71692871 72.7251709 -261.3659668 72.42260742 C-265.10181852 70.7198388 -268.85278777 69.28986662 -272.76953125 68.0625 C-273.88543362 72.53496585 -273.91840386 76.92043747 -273.89453125 81.5 C-273.89839844 82.23798828 -273.90226563 82.97597656 -273.90625 83.73632812 C-273.89871647 87.97393708 -273.4795987 91.87740549 -272.76953125 96.0625 C-271.91507679 106.91766391 -271.7860633 116.55305986 -277.76953125 126.0625 C-278.42953125 126.0625 -279.08953125 126.0625 -279.76953125 126.0625 C-280.09953125 127.3825 -280.42953125 128.7025 -280.76953125 130.0625 C-281.42953125 130.0625 -282.08953125 130.0625 -282.76953125 130.0625 C-282.92421875 131.1453125 -282.92421875 131.1453125 -283.08203125 132.25 C-283.76953125 135.0625 -283.76953125 135.0625 -285.18359375 137.41015625 C-286.7381513 140.01001973 -287.80492888 142.4682165 -288.83203125 145.3125 C-289.15300781 146.18390625 -289.47398437 147.0553125 -289.8046875 147.953125 C-292.09427153 155.33170348 -293.13244092 162.21020824 -293.08203125 169.9375 C-293.0771167 170.84443604 -293.07220215 171.75137207 -293.06713867 172.68579102 C-292.82224879 187.14182932 -290.44579576 200.72751442 -284.76953125 214.0625 C-284.19912109 215.41408203 -284.19912109 215.41408203 -283.6171875 216.79296875 C-275.82890265 233.70692071 -260.81854026 246.03907474 -243.6796875 252.71875 C-234.18857442 256.16613654 -224.46129493 258.39647351 -214.56079102 260.3269043 C-208.37550181 261.56051899 -203.00783215 262.69984905 -198.51953125 267.4375 C-194.12063889 274.03583854 -194.05033594 280.32005176 -194.76953125 288.0625 C-196.45341315 294.83443585 -199.6608102 301.04601585 -202.6015625 307.34375 C-204.1055475 310.84466491 -205.1815157 314.39674583 -206.19140625 318.06640625 C-206.76953125 320.0625 -206.76953125 320.0625 -207.76953125 322.0625 C-208.86207221 326.97893432 -208.87545259 330.10084923 -207.30859375 334.875 C-204.94215468 343.9357524 -205.32239213 353.1929872 -205.37841797 362.49902344 C-205.39453015 365.6872819 -205.37849256 368.87427952 -205.359375 372.0625 C-205.36135707 374.11719026 -205.36520001 376.17187974 -205.37109375 378.2265625 C-205.36502106 379.16537262 -205.35894836 380.10418274 -205.35269165 381.07144165 C-205.45376507 390.70678479 -207.46611869 399.60156034 -214.34765625 406.6875 C-221.83448572 413.23061147 -232.00339151 413.48471398 -241.57421875 413.25390625 C-244.82408541 412.97055489 -247.68497739 412.10904506 -250.76953125 411.0625 C-252.39429441 410.6033278 -254.01931368 410.14506125 -255.64453125 409.6875 C-260.57217632 408.1922654 -265.11877474 406.25924031 -269.76953125 404.0625 C-271.13516067 403.43043619 -272.50107248 402.79898231 -273.8671875 402.16796875 C-275.37656556 401.46671265 -276.88567749 400.76488349 -278.39453125 400.0625 C-279.11133057 399.73032471 -279.82812988 399.39814941 -280.56665039 399.0559082 C-286.72338439 396.16676616 -292.58055263 392.96461963 -298.20703125 389.125 C-301.84183491 386.65807999 -305.54416538 384.35803559 -309.3359375 382.140625 C-310.04556641 381.60695313 -310.04556641 381.60695313 -310.76953125 381.0625 C-310.76953125 380.4025 -310.76953125 379.7425 -310.76953125 379.0625 C-311.33800781 378.96582031 -311.90648437 378.86914062 -312.4921875 378.76953125 C-315.2714011 377.90668792 -316.94884736 376.5776809 -319.20703125 374.75 C-319.98820312 374.1209375 -320.769375 373.491875 -321.57421875 372.84375 C-322.29867187 372.2559375 -323.023125 371.668125 -323.76953125 371.0625 C-324.78015625 370.299375 -325.79078125 369.53625 -326.83203125 368.75 C-327.47140625 368.193125 -328.11078125 367.63625 -328.76953125 367.0625 C-328.76953125 366.4025 -328.76953125 365.7425 -328.76953125 365.0625 C-329.42953125 365.0625 -330.08953125 365.0625 -330.76953125 365.0625 C-330.76953125 364.4025 -330.76953125 363.7425 -330.76953125 363.0625 C-331.6527002 362.90950439 -331.6527002 362.90950439 -332.55371094 362.75341797 C-335.15071439 361.94364276 -336.30252175 360.91645902 -338.22265625 359.0078125 C-339.15078125 358.08548828 -339.15078125 358.08548828 -340.09765625 357.14453125 C-341.04898438 356.17580078 -341.04898438 356.17580078 -342.01953125 355.1875 C-342.66921875 354.54941406 -343.31890625 353.91132813 -343.98828125 353.25390625 C-344.601875 352.63644531 -345.21546875 352.01898438 -345.84765625 351.3828125 C-346.4087207 350.81836426 -346.96978516 350.25391602 -347.54785156 349.67236328 C-348.76953125 348.0625 -348.76953125 348.0625 -348.76953125 345.0625 C-349.42953125 345.0625 -350.08953125 345.0625 -350.76953125 345.0625 C-350.76953125 344.4025 -350.76953125 343.7425 -350.76953125 343.0625 C-351.42953125 343.0625 -352.08953125 343.0625 -352.76953125 343.0625 C-352.76953125 342.4025 -352.76953125 341.7425 -352.76953125 341.0625 C-353.72859375 340.69125 -353.72859375 340.69125 -354.70703125 340.3125 C-356.76953125 339.0625 -356.76953125 339.0625 -357.33203125 337 C-357.47640625 336.360625 -357.62078125 335.72125 -357.76953125 335.0625 C-358.75953125 334.7325 -359.74953125 334.4025 -360.76953125 334.0625 C-360.76953125 333.0725 -360.76953125 332.0825 -360.76953125 331.0625 C-361.75953125 330.7325 -362.74953125 330.4025 -363.76953125 330.0625 C-363.76953125 329.0725 -363.76953125 328.0825 -363.76953125 327.0625 C-364.75953125 326.7325 -365.74953125 326.4025 -366.76953125 326.0625 C-366.76953125 325.0725 -366.76953125 324.0825 -366.76953125 323.0625 C-367.42953125 322.7325 -368.08953125 322.4025 -368.76953125 322.0625 C-369.42953125 321.4025 -370.08953125 320.7425 -370.76953125 320.0625 C-370.76953125 319.0725 -370.76953125 318.0825 -370.76953125 317.0625 C-371.75953125 316.7325 -372.74953125 316.4025 -373.76953125 316.0625 C-373.89328125 315.258125 -374.01703125 314.45375 -374.14453125 313.625 C-374.35078125 312.779375 -374.55703125 311.93375 -374.76953125 311.0625 C-375.42953125 310.7325 -376.08953125 310.4025 -376.76953125 310.0625 C-378.05859375 308.3203125 -378.05859375 308.3203125 -379.39453125 306.1875 C-379.84054687 305.48882812 -380.2865625 304.79015625 -380.74609375 304.0703125 C-381.76953125 302.0625 -381.76953125 302.0625 -381.76953125 299.0625 C-382.42953125 298.7325 -383.08953125 298.4025 -383.76953125 298.0625 C-385.10046463 295.70638821 -386.33052294 293.36433385 -387.51953125 290.9375 C-387.87515137 290.2161084 -388.23077148 289.4947168 -388.59716797 288.75146484 C-392.04013479 281.66591649 -395.05868266 274.45822283 -397.76953125 267.0625 C-398.01944824 266.38525879 -398.26936523 265.70801758 -398.52685547 265.01025391 C-408.52868687 237.52900124 -412.99087504 208.49252592 -413.01953125 179.3125 C-413.02053833 178.59317291 -413.02154541 177.87384583 -413.02258301 177.13272095 C-413.01018074 163.92704277 -411.97103535 151.09664993 -409.76953125 138.0625 C-409.63562988 137.2257373 -409.50172852 136.38897461 -409.36376953 135.52685547 C-403.22881636 97.93632424 -387.56351045 62.44935922 -364.76953125 32.0625 C-364.32673828 31.46276367 -363.88394531 30.86302734 -363.42773438 30.24511719 C-326.78865442 -19.20386667 -269.70753376 -52.29277937 -209.078125 -61.87890625 C-133.4504282 -73.01872286 -56.36268345 -52.69746722 0 0 Z M-258.76953125 -27.9375 C-259.87965576 -27.472229 -259.87965576 -27.472229 -261.01220703 -26.99755859 C-286.54065798 -16.122519 -308.6891307 1.16669862 -328.76953125 20.0625 C-329.42824219 20.67867188 -330.08695312 21.29484375 -330.765625 21.9296875 C-335.91510569 26.90077971 -340.327367 32.46246015 -344.76953125 38.0625 C-345.97996094 39.56490234 -345.97996094 39.56490234 -347.21484375 41.09765625 C-383.71908282 86.93985494 -399.77839142 146.14125191 -393.82397461 204.20385742 C-391.73460137 221.90497316 -387.83701617 239.30451634 -381.76953125 256.0625 C-381.48239258 256.85930176 -381.19525391 257.65610352 -380.89941406 258.47705078 C-369.43929551 289.74149311 -351.60133016 316.02037668 -328.76953125 340.0625 C-327.87234375 341.01382812 -326.97515625 341.96515625 -326.05078125 342.9453125 C-308.49282199 361.07132338 -286.65429755 374.9819049 -264.01953125 385.875 C-263.07352051 386.33116699 -262.12750977 386.78733398 -261.15283203 387.25732422 C-248.80890929 393.31765272 -248.80890929 393.31765272 -235.45703125 395.75 C-234.03970703 395.81767578 -234.03970703 395.81767578 -232.59375 395.88671875 C-228.25176286 394.61955515 -226.0189085 391.92838269 -223.76953125 388.0625 C-222.98325019 384.45784957 -223.06626841 380.99162739 -223.18359375 377.31640625 C-223.19208344 376.30529282 -223.20057312 375.29417938 -223.20932007 374.25242615 C-223.24274486 371.04217234 -223.31800604 367.83448669 -223.39453125 364.625 C-223.42464486 362.44079164 -223.45201821 360.25654367 -223.4765625 358.07226562 C-223.54249947 352.73480984 -223.64273685 347.39883842 -223.76953125 342.0625 C-224.48831955 342.13192307 -225.20710785 342.20134613 -225.94767761 342.27287292 C-247.8281169 344.33412765 -269.21135039 345.62320857 -287.76953125 332.0625 C-295.07123675 325.77526816 -298.74240111 317.61417303 -302.76953125 309.0625 C-308.55074017 297.43938705 -315.24565468 288.70595955 -325.76953125 281.0625 C-327.11736159 280.03966053 -328.45199319 278.99907463 -329.76953125 277.9375 C-330.32640625 277.50179688 -330.88328125 277.06609375 -331.45703125 276.6171875 C-333.1998395 274.55278964 -333.41421466 272.70072567 -333.76953125 270.0625 C-321.57449976 269.47002883 -311.49965904 270.28071875 -301.66015625 278.3203125 C-296.02686825 283.51131756 -291.56875764 289.26533709 -287.33203125 295.625 C-280.20390646 306.21478917 -270.63183087 314.13312543 -257.875 316.78125 C-248.47316597 318.03715362 -239.88841731 316.38327292 -230.76953125 314.0625 C-229.48369141 313.80726563 -229.48369141 313.80726563 -228.171875 313.546875 C-225.72624988 313.03423146 -225.72624988 313.03423146 -222.76953125 311.0625 C-221.88075591 308.68933025 -221.56106098 306.46176555 -221.23828125 303.94921875 C-219.75509128 294.81524052 -215.29407638 287.45542606 -208.76953125 281.0625 C-211.75431527 278.07771598 -215.3674903 278.22833458 -219.39453125 277.6875 C-247.31832391 273.5653912 -273.71018405 264.02040431 -291.76953125 241.0625 C-309.43505045 216.46042831 -313.83853981 182.85001919 -310.453125 153.30078125 C-309.64083329 148.40337199 -308.34599227 143.76595442 -306.76953125 139.0625 C-306.41890625 138.00675781 -306.06828125 136.95101562 -305.70703125 135.86328125 C-302.37868786 127.02236913 -297.10870216 117.61424863 -290.55688477 110.74145508 C-288.45680439 108.19778298 -288.45680439 108.19778298 -289.01757812 105.19189453 C-289.33791016 104.16177246 -289.65824219 103.13165039 -289.98828125 102.0703125 C-291.83122233 95.24567131 -292.3076205 88.98607 -292.26953125 81.9375 C-292.26743652 80.77621582 -292.2653418 79.61493164 -292.26318359 78.41845703 C-292.07881018 68.20473298 -290.48913481 58.59821094 -286.76953125 49.0625 C-279.71647769 45.53597322 -270.61646323 49.0485682 -263.5859375 51.31640625 C-252.08797859 55.31143953 -240.84296389 60.63512423 -230.95703125 67.75 C-226.87773545 70.61237417 -226.87773545 70.61237417 -221.95703125 71.25 C-220.55258993 70.88588558 -219.15777362 70.48418454 -217.76953125 70.0625 C-215.46090604 69.56499965 -213.14779183 69.08815212 -210.83203125 68.625 C-208.96623413 68.24867432 -208.96623413 68.24867432 -207.06274414 67.86474609 C-194.15627064 65.37642956 -181.25814349 64.68880632 -168.14453125 64.75 C-167.36737762 64.75115814 -166.590224 64.75231628 -165.78952026 64.75350952 C-149.01839605 64.80264263 -132.50995184 66.07750575 -116.29296875 70.609375 C-110.28599339 71.68802692 -106.56792228 68.81076244 -101.76953125 65.5625 C-85.14744029 54.79554107 -68.26040258 49.44306444 -48.76953125 47.0625 C-48.12265318 49.79142283 -47.47699407 52.52062447 -46.83203125 55.25 C-46.64962891 56.01892578 -46.46722656 56.78785156 -46.27929688 57.58007812 C-46.10205078 58.33095703 -45.92480469 59.08183594 -45.7421875 59.85546875 C-45.49867554 60.88450317 -45.49867554 60.88450317 -45.25024414 61.93432617 C-43.83569415 68.19670924 -43.5437908 74.02307777 -43.51953125 80.4375 C-43.50978271 81.51225586 -43.50003418 82.58701172 -43.48999023 83.69433594 C-43.5093272 89.97460422 -44.10910362 95.2853859 -45.83203125 101.3125 C-46.82199012 105.48050442 -47.19646884 107.21847723 -45.24609375 111.07421875 C-43.69088349 113.06202162 -42.0712545 115.00072488 -40.3984375 116.890625 C-33.8956636 124.30192726 -29.0149956 135.50661412 -26.76953125 145.0625 C-26.46595703 146.34253906 -26.46595703 146.34253906 -26.15625 147.6484375 C-20.21744592 178.43325863 -25.92324043 212.82975483 -42.81640625 239.265625 C-44.71180737 241.95444985 -46.67700212 244.524934 -48.76953125 247.0625 C-49.28644531 247.69285156 -49.80335938 248.32320313 -50.3359375 248.97265625 C-69.06759214 269.58217101 -100.47684886 276.02565523 -126.76953125 279.0625 C-125.63613047 281.4496627 -124.60164602 283.26396227 -122.89453125 285.3125 C-114.88853252 295.67320424 -112.67584367 307.96684772 -112.61181641 320.77612305 C-112.60673569 321.50077759 -112.60165497 322.22543213 -112.59642029 322.9720459 C-112.58580257 324.52975486 -112.57714947 326.08747826 -112.57030106 327.64520836 C-112.55840653 330.11306333 -112.53893258 332.58075146 -112.5171814 335.04853821 C-112.45588435 342.05940211 -112.40142762 349.07024095 -112.36816406 356.08129883 C-112.34721417 360.3830233 -112.31192468 364.68442915 -112.26740646 368.98597145 C-112.25326693 370.62016874 -112.24452865 372.25442223 -112.24135208 373.8886776 C-112.23643983 376.17181201 -112.21328024 378.45409868 -112.18603516 380.73706055 C-112.1779483 382.03419479 -112.16986145 383.33132904 -112.16152954 384.66777039 C-111.74091218 388.31034296 -110.98497249 390.17275777 -108.76953125 393.0625 C-104.02618281 396.2247323 -99.3199138 395.66957309 -93.76953125 395.0625 C-89.41216465 393.84868181 -85.38306343 392.118652 -81.26953125 390.25 C-80.14168213 389.75298584 -79.01383301 389.25597168 -77.85180664 388.74389648 C-23.39965465 364.326081 21.74476641 319.70355713 43.49560547 263.67089844 C64.40710045 207.60560404 65.3448822 145.11526649 40.51953125 89.9140625 C29.6368781 66.54979112 16.73288204 46.43690938 -0.66015625 27.39453125 C-2.53705785 25.31951226 -4.34313577 23.20272939 -6.14453125 21.0625 C-23.93696919 0.80338316 -48.48197159 -14.70075155 -72.76953125 -25.9375 C-74.36667969 -26.69933594 -74.36667969 -26.69933594 -75.99609375 -27.4765625 C-100.90547941 -38.81002994 -128.95250183 -45.99310504 -156.37890625 -46.140625 C-157.25980423 -46.14772995 -158.14070221 -46.1548349 -159.04829407 -46.16215515 C-194.49111669 -46.38318143 -225.83186925 -41.85146794 -258.76953125 -27.9375 Z " fill="#FEFEFE" transform="translate(423.76953125,81.9375)"/>
<path d="M0 0 C2.625 0.9375 2.625 0.9375 5 2 C5 3.32 5 4.64 5 6 C3 8 3 8 -0.125 8.125 C-1.07375 8.08375 -2.0225 8.0425 -3 8 C-3.66 6.68 -4.32 5.36 -5 4 C-3.36587557 2.29159719 -2.13093906 1.06546953 0 0 Z " fill="#2A2828" transform="translate(193,399)"/>
<path d="M0 0 C3.0625 0.125 3.0625 0.125 5.0625 1.125 C4.1875 6 4.1875 6 3.0625 7.125 C0.125 7.3125 0.125 7.3125 -2.9375 7.125 C-3.5975 6.465 -4.2575 5.805 -4.9375 5.125 C-4.34725704 1.22939645 -4.09557603 0.17427983 0 0 Z " fill="#252323" transform="translate(175.9375,401.875)"/>
<path d="M0 0 C5.43806647 -0.36253776 5.43806647 -0.36253776 7.9375 1.25 C9 3 9 3 8.6875 5.1875 C8.3471875 6.0846875 8.3471875 6.0846875 8 7 C4.625 7.125 4.625 7.125 1 7 C0.34 6.34 -0.32 5.68 -1 5 C-0.625 2.375 -0.625 2.375 0 0 Z " fill="#252323" transform="translate(154,399)"/>
<path d="M0 0 C3.25696479 0.41755959 4.63443291 0.63443291 7 3 C7.125 5.625 7.125 5.625 7 8 C5.25 8.6875 5.25 8.6875 3 9 C0.75 7.875 0.75 7.875 -1 6 C-1.3125 3.375 -1.3125 3.375 -1 1 C-0.67 0.67 -0.34 0.34 0 0 Z " fill="#222020" transform="translate(139,389)"/>
<path d="M0 0 C2.375 0.3125 2.375 0.3125 5 1 C7 4 7 4 6.8125 6.125 C6.544375 6.74375 6.27625 7.3625 6 8 C5.01 8.33 4.02 8.66 3 9 C0.9375 7.3125 0.9375 7.3125 -1 5 C-0.75 2.25 -0.75 2.25 0 0 Z " fill="#2B2929" transform="translate(128,376)"/>
<path d="M0 0 C1.65 0.33 3.3 0.66 5 1 C5.33 2.65 5.66 4.3 6 6 C4.68 6.33 3.36 6.66 2 7 C0.4375 5.1875 0.4375 5.1875 -1 3 C-0.67 2.01 -0.34 1.02 0 0 Z " fill="#252323" transform="translate(119,365)"/>
<path d="M0 0 C1.65 0 3.3 0 5 0 C5.66 1.32 6.32 2.64 7 4 C4.625 4.625 4.625 4.625 2 5 C1.34 4.34 0.68 3.68 0 3 C0 2.01 0 1.02 0 0 Z " fill="#2C2B2B" transform="translate(109,357)"/>
</svg>
