<?xml version="1.0" encoding="UTF-8"?>
<svg version="1.1" xmlns="http://www.w3.org/2000/svg" width="512" height="512">
<path d="M0 0 C0.90975586 0.1556543 1.81951172 0.31130859 2.75683594 0.47167969 C53.5520021 9.45451705 99.78519165 34.66273726 137 70 C137.53415527 70.50547363 138.06831055 71.01094727 138.61865234 71.53173828 C146.91527201 79.43879899 154.18401383 87.7929322 161 97 C161.42909668 97.57363281 161.85819336 98.14726563 162.30029297 98.73828125 C185.23634856 129.51653987 199.80213466 165.15195897 206 203 C206.16081055 203.9286084 206.32162109 204.8572168 206.48730469 205.81396484 C215.46780778 259.3359116 206.12617691 314.64065648 182 363 C181.42894531 364.1446875 180.85789062 365.289375 180.26953125 366.46875 C179.64111328 367.72171875 179.64111328 367.72171875 179 369 C178.34 369 177.68 369 177 369 C176.9175 369.680625 176.835 370.36125 176.75 371.0625 C175.77667472 374.8746907 174.04192545 377.64070329 172 381 C171.34 381 170.68 381 170 381 C169.855625 381.61875 169.71125 382.2375 169.5625 382.875 C169 385 169 385 168 387 C167.34 387 166.68 387 166 387 C165.67 388.32 165.34 389.64 165 391 C164.34 391 163.68 391 163 391 C162.67 392.32 162.34 393.64 162 395 C161.34 395 160.68 395 160 395 C159.67 396.32 159.34 397.64 159 399 C158.34 399 157.68 399 157 399 C156.67 400.32 156.34 401.64 156 403 C155.34 403 154.68 403 154 403 C153.67 404.32 153.34 405.64 153 407 C152.34 407 151.68 407 151 407 C151 407.66 151 408.32 151 409 C150.34 409 149.68 409 149 409 C148.731875 409.804375 148.46375 410.60875 148.1875 411.4375 C147.795625 412.283125 147.40375 413.12875 147 414 C146.01 414.33 145.02 414.66 144 415 C144 415.66 144 416.32 144 417 C143.34 417 142.68 417 142 417 C142 417.66 142 418.32 142 419 C141.34 419 140.68 419 140 419 C140 419.66 140 420.32 140 421 C139.34 421 138.68 421 138 421 C138 421.66 138 422.32 138 423 C137.34 423 136.68 423 136 423 C136 423.66 136 424.32 136 425 C135.34 425 134.68 425 134 425 C134 425.66 134 426.32 134 427 C133.34 427 132.68 427 132 427 C132 427.66 132 428.32 132 429 C131.34 429 130.68 429 130 429 C129.773125 429.61875 129.54625 430.2375 129.3125 430.875 C127.62070165 433.61410209 126.00755839 434.05024472 123 435 C123 435.66 123 436.32 123 437 C122.34 437 121.68 437 121 437 C121 437.66 121 438.32 121 439 C120.01 439 119.02 439 118 439 C118 439.66 118 440.32 118 441 C117.34 441 116.68 441 116 441 C115.34 442.32 114.68 443.64 114 445 C113.01 445 112.02 445 111 445 C110.67 445.99 110.34 446.98 110 448 C105.66666667 451 105.66666667 451 103 451 C102.67 451.66 102.34 452.32 102 453 C96.06787719 457.67272372 89.6621505 461.4846525 83 465 C81.6338344 465.73385363 80.26797767 466.46828242 78.90234375 467.203125 C77.39351587 468.01095239 75.8843982 468.81823873 74.375 469.625 C73.65820068 470.00962402 72.94140137 470.39424805 72.20288086 470.79052734 C67.87435804 473.08782431 63.53171801 475.13431657 59 477 C58.18015625 477.33902344 57.3603125 477.67804688 56.515625 478.02734375 C47.14764073 481.79068915 37.73655711 485.3089238 28 488 C26.88625 488.30808594 25.7725 488.61617188 24.625 488.93359375 C16.64297437 491.03541812 8.62377041 492.72614853 0.5 494.1875 C-0.40000732 494.35435303 -1.30001465 494.52120605 -2.22729492 494.69311523 C-16.21153055 497.11535571 -30.46659297 497.23716099 -44.625 497.25 C-45.79838928 497.25151062 -45.79838928 497.25151062 -46.9954834 497.25305176 C-65.64327082 497.23691471 -83.0056301 494.86561051 -101 490 C-102.64319228 489.63377533 -104.28867441 489.27746404 -105.9375 488.9375 C-113.03527561 487.39158296 -119.71512275 484.76600802 -126.421875 482.01953125 C-128.96726121 481.01294671 -131.53371559 480.1305712 -134.125 479.25 C-141.03724307 476.76393232 -147.47156116 473.37477226 -153.9921875 470.02148438 C-155.90172851 469.0499961 -157.82166419 468.10540197 -159.75 467.171875 C-166.19202368 464.03562663 -172.32907534 460.7139615 -178.3125 456.76953125 C-182.14390042 454.24682138 -186.06651226 451.87263516 -189.98046875 449.48046875 C-190.64691406 448.99191406 -191.31335938 448.50335938 -192 448 C-192 447.34 -192 446.68 -192 446 C-193.65 445.34 -195.3 444.68 -197 444 C-197 443.34 -197 442.68 -197 442 C-198.65 441.34 -200.3 440.68 -202 440 C-202 439.34 -202 438.68 -202 438 C-202.66 438 -203.32 438 -204 438 C-204 437.34 -204 436.68 -204 436 C-205.65 435.34 -207.3 434.68 -209 434 C-209 433.34 -209 432.68 -209 432 C-209.66 432 -210.32 432 -211 432 C-211 431.34 -211 430.68 -211 430 C-212.175625 429.62875 -212.175625 429.62875 -213.375 429.25 C-216.32317108 427.84610901 -216.9024777 426.99324263 -218 424 C-218.66 424 -219.32 424 -220 424 C-220 423.34 -220 422.68 -220 422 C-220.66 422 -221.32 422 -222 422 C-222 421.34 -222 420.68 -222 420 C-222.66 420 -223.32 420 -224 420 C-224 419.34 -224 418.68 -224 418 C-224.9590625 417.62875 -224.9590625 417.62875 -225.9375 417.25 C-228 416 -228 416 -228.75 413.875 C-228.8325 413.25625 -228.915 412.6375 -229 412 C-229.66 412 -230.32 412 -231 412 C-231 411.34 -231 410.68 -231 410 C-231.66 410 -232.32 410 -233 410 C-233 409.34 -233 408.68 -233 408 C-233.99 407.67 -234.98 407.34 -236 407 C-236 406.01 -236 405.02 -236 404 C-236.99 403.67 -237.98 403.34 -239 403 C-239 402.01 -239 401.02 -239 400 C-239.99 399.67 -240.98 399.34 -242 399 C-242 398.01 -242 397.02 -242 396 C-242.66 396 -243.32 396 -244 396 C-244 395.34 -244 394.68 -244 394 C-244.66 393.67 -245.32 393.34 -246 393 C-246.495 391.515 -246.495 391.515 -247 390 C-247.66 389.67 -248.32 389.34 -249 389 C-249.66 388.34 -250.32 387.68 -251 387 C-251 386.01 -251 385.02 -251 384 C-251.66 383.67 -252.32 383.34 -253 383 C-256 379.53846154 -256 379.53846154 -256 376 C-256.66 375.67 -257.32 375.34 -258 375 C-269.47260308 356.61824563 -277.0163445 336.74467323 -283 316 C-283.20608887 315.28730957 -283.41217773 314.57461914 -283.62451172 313.84033203 C-289.10815618 294.29556955 -291.50753422 273.2970767 -291.953125 253.03662109 C-291.99762549 251.10316759 -292.07598834 249.17058061 -292.15625 247.23828125 C-293.73142516 184.4281716 -267.52018713 121.18360747 -224.7109375 75.80078125 C-223.81632812 74.87652344 -222.92171875 73.95226562 -222 73 C-221.51821289 72.49774902 -221.03642578 71.99549805 -220.54003906 71.47802734 C-213.76386562 64.43512749 -206.74186675 57.98918023 -199 52 C-198.4229834 51.54657227 -197.8459668 51.09314453 -197.25146484 50.62597656 C-186.97720096 42.57121194 -176.29268349 35.54146147 -165 29 C-164.39961914 28.64486328 -163.79923828 28.28972656 -163.18066406 27.92382812 C-137.31926099 12.71821234 -107.48384058 3.78808082 -78 -1 C-77.29439941 -1.11714355 -76.58879883 -1.23428711 -75.86181641 -1.35498047 C-51.268334 -5.21762076 -24.43806448 -4.33200503 0 0 Z M-47.9375 158.8125 C-50.03157037 160.8229735 -50.03157037 160.8229735 -51 163 C-51.66 163 -52.32 163 -53 163 C-55.05270463 164.84188612 -55.05270463 164.84188612 -56 167 C-56.66 167 -57.32 167 -58 167 C-58 167.66 -58 168.32 -58 169 C-58.66 169 -59.32 169 -60 169 C-60 169.66 -60 170.32 -60 171 C-60.66 171 -61.32 171 -62 171 C-62 171.66 -62 172.32 -62 173 C-62.66 173 -63.32 173 -64 173 C-64 173.66 -64 174.32 -64 175 C-64.66 175 -65.32 175 -66 175 C-66.33 175.99 -66.66 176.98 -67 178 C-67.66 178.33 -68.32 178.66 -69 179 C-69 179.66 -69 180.32 -69 181 C-69.66 181 -70.32 181 -71 181 C-71.33 181.99 -71.66 182.98 -72 184 C-72.474375 184.433125 -72.94875 184.86625 -73.4375 185.3125 C-75.55095529 187.59503171 -76.04553406 190.07297111 -77 193 C-77.99 193.495 -77.99 193.495 -79 194 C-80.57548683 196.62581138 -81 197.87099787 -81 201 C-81.99 201.495 -81.99 201.495 -83 202 C-84.0969198 204.78403015 -85.0758102 207.53380264 -86 210.375 C-86.26039063 211.13683594 -86.52078125 211.89867187 -86.7890625 212.68359375 C-90.55335101 224.07151707 -91.40691693 235.12995726 -91.375 247.0625 C-91.37478851 247.79166626 -91.37457703 248.52083252 -91.37435913 249.27209473 C-91.3415205 260.61900803 -90.5322413 271.1600726 -87 282 C-86.45666016 283.71703125 -86.45666016 283.71703125 -85.90234375 285.46875 C-81.72190986 297.37235838 -75.21015771 308.438376 -67 318 C-66.24976563 318.89460937 -65.49953125 319.78921875 -64.7265625 320.7109375 C-58.78037447 327.5574947 -51.96056544 335.27823045 -42.984375 337.87109375 C-36.04072966 338.1710156 -30.46951535 332.39232743 -25.5625 327.9765625 C-7.34978404 310.86703969 6.860146 287.05499567 8.17700195 261.57519531 C8.61195865 234.97871966 5.4907338 214.39947306 -6 190 C-6.66 190 -7.32 190 -8 190 C-8.28875 189.030625 -8.5775 188.06125 -8.875 187.0625 C-9.64214682 183.89335797 -9.64214682 183.89335797 -12 183 C-12.495 181.515 -12.495 181.515 -13 180 C-13.66 180 -14.32 180 -15 180 C-15 179.34 -15 178.68 -15 178 C-15.66 177.67 -16.32 177.34 -17 177 C-17.495 175.515 -17.495 175.515 -18 174 C-18.66 174 -19.32 174 -20 174 C-20 173.34 -20 172.68 -20 172 C-20.66 172 -21.32 172 -22 172 C-22 171.34 -22 170.68 -22 170 C-22.66 170 -23.32 170 -24 170 C-24 169.34 -24 168.68 -24 168 C-24.66 168 -25.32 168 -26 168 C-26.495 167.01 -26.495 167.01 -27 166 C-27.66 165.67 -28.32 165.34 -29 165 C-31 164 -31 164 -32 162 C-36.61458484 157.38541516 -41.99463524 155.145626 -47.9375 158.8125 Z " fill="#575757" transform="translate(297,9)"/>
<path d="M0 0 C0.90975586 0.1556543 1.81951172 0.31130859 2.75683594 0.47167969 C53.5520021 9.45451705 99.78519165 34.66273726 137 70 C137.53415527 70.50547363 138.06831055 71.01094727 138.61865234 71.53173828 C146.91527201 79.43879899 154.18401383 87.7929322 161 97 C161.42909668 97.57363281 161.85819336 98.14726563 162.30029297 98.73828125 C185.23634856 129.51653987 199.80213466 165.15195897 206 203 C206.16081055 203.9286084 206.32162109 204.8572168 206.48730469 205.81396484 C215.46780778 259.3359116 206.12617691 314.64065648 182 363 C181.42894531 364.1446875 180.85789062 365.289375 180.26953125 366.46875 C179.64111328 367.72171875 179.64111328 367.72171875 179 369 C178.34 369 177.68 369 177 369 C176.9175 369.680625 176.835 370.36125 176.75 371.0625 C175.77667472 374.8746907 174.04192545 377.64070329 172 381 C171.34 381 170.68 381 170 381 C169.855625 381.61875 169.71125 382.2375 169.5625 382.875 C169 385 169 385 168 387 C167.34 387 166.68 387 166 387 C165.67 388.32 165.34 389.64 165 391 C164.34 391 163.68 391 163 391 C162.67 392.32 162.34 393.64 162 395 C161.34 395 160.68 395 160 395 C159.67 396.32 159.34 397.64 159 399 C158.34 399 157.68 399 157 399 C156.67 400.32 156.34 401.64 156 403 C155.34 403 154.68 403 154 403 C153.67 404.32 153.34 405.64 153 407 C152.34 407 151.68 407 151 407 C151 407.66 151 408.32 151 409 C150.34 409 149.68 409 149 409 C148.731875 409.804375 148.46375 410.60875 148.1875 411.4375 C147.795625 412.283125 147.40375 413.12875 147 414 C146.01 414.33 145.02 414.66 144 415 C144 415.66 144 416.32 144 417 C143.34 417 142.68 417 142 417 C142 417.66 142 418.32 142 419 C141.34 419 140.68 419 140 419 C140 419.66 140 420.32 140 421 C139.34 421 138.68 421 138 421 C138 421.66 138 422.32 138 423 C137.34 423 136.68 423 136 423 C136 423.66 136 424.32 136 425 C135.34 425 134.68 425 134 425 C134 425.66 134 426.32 134 427 C133.34 427 132.68 427 132 427 C132 427.66 132 428.32 132 429 C131.34 429 130.68 429 130 429 C129.773125 429.61875 129.54625 430.2375 129.3125 430.875 C127.62070165 433.61410209 126.00755839 434.05024472 123 435 C123 435.66 123 436.32 123 437 C122.34 437 121.68 437 121 437 C121 437.66 121 438.32 121 439 C120.01 439 119.02 439 118 439 C118 439.66 118 440.32 118 441 C117.34 441 116.68 441 116 441 C115.34 442.32 114.68 443.64 114 445 C113.01 445 112.02 445 111 445 C110.67 445.99 110.34 446.98 110 448 C105.66666667 451 105.66666667 451 103 451 C102.67 451.66 102.34 452.32 102 453 C96.06787719 457.67272372 89.6621505 461.4846525 83 465 C81.6338344 465.73385363 80.26797767 466.46828242 78.90234375 467.203125 C77.39351587 468.01095239 75.8843982 468.81823873 74.375 469.625 C73.65820068 470.00962402 72.94140137 470.39424805 72.20288086 470.79052734 C67.87435804 473.08782431 63.53171801 475.13431657 59 477 C58.18015625 477.33902344 57.3603125 477.67804688 56.515625 478.02734375 C47.14764073 481.79068915 37.73655711 485.3089238 28 488 C26.88625 488.30808594 25.7725 488.61617188 24.625 488.93359375 C16.64297437 491.03541812 8.62377041 492.72614853 0.5 494.1875 C-0.40000732 494.35435303 -1.30001465 494.52120605 -2.22729492 494.69311523 C-16.21153055 497.11535571 -30.46659297 497.23716099 -44.625 497.25 C-45.79838928 497.25151062 -45.79838928 497.25151062 -46.9954834 497.25305176 C-65.64327082 497.23691471 -83.0056301 494.86561051 -101 490 C-102.64319228 489.63377533 -104.28867441 489.27746404 -105.9375 488.9375 C-113.03527561 487.39158296 -119.71512275 484.76600802 -126.421875 482.01953125 C-128.96726121 481.01294671 -131.53371559 480.1305712 -134.125 479.25 C-141.03724307 476.76393232 -147.47156116 473.37477226 -153.9921875 470.02148438 C-155.90172851 469.0499961 -157.82166419 468.10540197 -159.75 467.171875 C-166.19202368 464.03562663 -172.32907534 460.7139615 -178.3125 456.76953125 C-182.14390042 454.24682138 -186.06651226 451.87263516 -189.98046875 449.48046875 C-190.64691406 448.99191406 -191.31335938 448.50335938 -192 448 C-192 447.34 -192 446.68 -192 446 C-193.65 445.34 -195.3 444.68 -197 444 C-197 443.34 -197 442.68 -197 442 C-198.65 441.34 -200.3 440.68 -202 440 C-202 439.34 -202 438.68 -202 438 C-202.66 438 -203.32 438 -204 438 C-204 437.34 -204 436.68 -204 436 C-205.65 435.34 -207.3 434.68 -209 434 C-209 433.34 -209 432.68 -209 432 C-209.66 432 -210.32 432 -211 432 C-211 431.34 -211 430.68 -211 430 C-212.175625 429.62875 -212.175625 429.62875 -213.375 429.25 C-216.32317108 427.84610901 -216.9024777 426.99324263 -218 424 C-218.66 424 -219.32 424 -220 424 C-220 423.34 -220 422.68 -220 422 C-220.66 422 -221.32 422 -222 422 C-222 421.34 -222 420.68 -222 420 C-222.66 420 -223.32 420 -224 420 C-224 419.34 -224 418.68 -224 418 C-224.9590625 417.62875 -224.9590625 417.62875 -225.9375 417.25 C-228 416 -228 416 -228.75 413.875 C-228.8325 413.25625 -228.915 412.6375 -229 412 C-229.66 412 -230.32 412 -231 412 C-231 411.34 -231 410.68 -231 410 C-231.66 410 -232.32 410 -233 410 C-233 409.34 -233 408.68 -233 408 C-233.99 407.67 -234.98 407.34 -236 407 C-236 406.01 -236 405.02 -236 404 C-236.99 403.67 -237.98 403.34 -239 403 C-239 402.01 -239 401.02 -239 400 C-239.99 399.67 -240.98 399.34 -242 399 C-242 398.01 -242 397.02 -242 396 C-242.66 396 -243.32 396 -244 396 C-244 395.34 -244 394.68 -244 394 C-244.66 393.67 -245.32 393.34 -246 393 C-246.495 391.515 -246.495 391.515 -247 390 C-247.66 389.67 -248.32 389.34 -249 389 C-249.66 388.34 -250.32 387.68 -251 387 C-251 386.01 -251 385.02 -251 384 C-251.66 383.67 -252.32 383.34 -253 383 C-256 379.53846154 -256 379.53846154 -256 376 C-256.66 375.67 -257.32 375.34 -258 375 C-269.47260308 356.61824563 -277.0163445 336.74467323 -283 316 C-283.20608887 315.28730957 -283.41217773 314.57461914 -283.62451172 313.84033203 C-289.10815618 294.29556955 -291.50753422 273.2970767 -291.953125 253.03662109 C-291.99762549 251.10316759 -292.07598834 249.17058061 -292.15625 247.23828125 C-293.73142516 184.4281716 -267.52018713 121.18360747 -224.7109375 75.80078125 C-223.81632812 74.87652344 -222.92171875 73.95226562 -222 73 C-221.51821289 72.49774902 -221.03642578 71.99549805 -220.54003906 71.47802734 C-213.76386562 64.43512749 -206.74186675 57.98918023 -199 52 C-198.4229834 51.54657227 -197.8459668 51.09314453 -197.25146484 50.62597656 C-186.97720096 42.57121194 -176.29268349 35.54146147 -165 29 C-164.39961914 28.64486328 -163.79923828 28.28972656 -163.18066406 27.92382812 C-137.31926099 12.71821234 -107.48384058 3.78808082 -78 -1 C-77.29439941 -1.11714355 -76.58879883 -1.23428711 -75.86181641 -1.35498047 C-51.268334 -5.21762076 -24.43806448 -4.33200503 0 0 Z M-199 77 C-200.41105088 78.23560939 -201.82729443 79.46532817 -203.25 80.6875 C-210.11005584 86.68483076 -216.0139084 93.16397206 -221.66650391 100.31591797 C-222.59878949 101.49330829 -223.53641201 102.66648351 -224.47802734 103.83642578 C-248.99348461 134.36409816 -265.48402905 170.31835264 -272 209 C-272.18546387 210.08772705 -272.37092773 211.1754541 -272.56201172 212.29614258 C-274.06079049 222.1112186 -274.30829682 231.7475147 -274.26074219 241.65991211 C-274.25005507 244.29890129 -274.26068531 246.93720362 -274.2734375 249.57617188 C-274.28736972 265.00291801 -272.90699689 280.06084097 -269.8125 295.1875 C-269.60109375 296.22922363 -269.3896875 297.27094727 -269.171875 298.34423828 C-266.0213807 313.2663295 -262.02241621 328.3965766 -255 342 C-254.39610039 343.23583986 -253.79475042 344.47292737 -253.1953125 345.7109375 C-247.59472055 357.20586842 -241.91652977 368.83202305 -233.79296875 378.77734375 C-231.01568367 382.22020914 -228.47338754 385.82933385 -225.89453125 389.421875 C-222.98150126 393.38599828 -220.17482763 397.04253628 -216.375 400.1875 C-202.69755053 411.90734842 -202.69755053 411.90734842 -201 417 C-198.99240388 418.74282619 -196.99854321 420.34956158 -194.875 421.9375 C-194.318125 422.36740234 -193.76125 422.79730469 -193.1875 423.24023438 C-190.34889943 425.39534702 -187.49760564 427.34379021 -184.38671875 429.0859375 C-181.37045652 430.79063011 -178.69603438 432.60220539 -175.9375 434.6875 C-151.73207551 452.46232806 -124.36447749 464.39204925 -95.4375 472.1875 C-94.47924316 472.45006592 -93.52098633 472.71263184 -92.53369141 472.9831543 C-86.02996331 474.68847481 -79.70995921 475.59866123 -73 476 C-74.5922495 472.815501 -77.86094144 472.45157492 -81.0625 471.375 C-81.72572266 471.14554687 -82.38894531 470.91609375 -83.07226562 470.6796875 C-84.71259669 470.11324224 -86.35602157 469.55577077 -88 469 C-83.20529832 470.56271758 -78.46163123 472.20113932 -73.75 474 C-33.68280715 488.66695278 13.85789209 477.91181094 51.3984375 460.6640625 C70.92672374 451.45874131 89.50281412 441.05123088 106 427 C107.09601133 426.08812944 108.19239319 425.17670412 109.2890625 424.265625 C121.01637737 414.44954768 131.58143341 404.08105891 141 392 C141.81210937 390.98164063 142.62421875 389.96328125 143.4609375 388.9140625 C149.51361641 381.26586846 154.95855428 373.34755701 160 365 C160.39687012 364.34999023 160.79374023 363.69998047 161.20263672 363.03027344 C175.97198151 338.57678468 185.85394888 310.2632217 190 282 C190.20367187 280.7521875 190.40734375 279.504375 190.6171875 278.21875 C196.58450591 237.73681758 191.13957932 192.22790346 174 155 C173.55430664 153.99066406 173.55430664 153.99066406 173.09960938 152.9609375 C166.37272734 137.72925983 158.27163819 121.45390404 147 109 C146.34 109 145.68 109 145 109 C144.7525 108.278125 144.505 107.55625 144.25 106.8125 C142.62214641 103.14982943 140.3885978 100.37736925 137.55078125 97.5625 C135.98063618 95.98048985 134.5612067 94.32910018 133.125 92.625 C129.66780118 88.66547315 126.05539705 84.87587494 122.375 81.125 C121.82473145 80.55346191 121.27446289 79.98192383 120.70751953 79.39306641 C117.61273335 76.27218748 115.20830513 74.4711386 111 73 C109.18359375 71.5546875 109.18359375 71.5546875 107.4375 69.875 C99.10673682 61.90673995 99.10673682 61.90673995 89 58 C88.67 57.01 88.34 56.02 88 55 C84.23649914 52.30258588 80.06858118 50.20426907 76 48 C74.90147705 47.40445313 74.90147705 47.40445313 73.78076172 46.796875 C60.30667868 39.53146555 46.97744295 32.73660762 32.35327148 28.09082031 C28.93950466 27.00505439 25.69410636 25.86681504 22.40234375 24.43359375 C18.92303148 22.96756895 15.62365997 22.05009674 11.9375 21.25 C10.77089844 20.98703125 9.60429687 20.7240625 8.40234375 20.453125 C5.07354194 19.82530483 5.07354194 19.82530483 2.1015625 20.56640625 C-2.20368485 21.16827332 -5.4699211 19.97547783 -9.5625 18.6875 C-75.1126924 -0.43103209 -151.2755099 32.28302338 -199 77 Z " fill="#FDFDFD" transform="translate(297,9)"/>
<path d="M0 0 C2.99486433 1.44175174 5.80426172 3.12002658 8.625 4.875 C9.81488525 5.60940308 9.81488525 5.60940308 11.02880859 6.35864258 C18.15312458 10.87831557 24.05101151 16.03265044 30 22 C30.7115625 22.65226562 31.423125 23.30453125 32.15625 23.9765625 C38.97795301 30.33807126 46.48849631 39.2791227 50 48 C50 48.99 50 49.98 50 51 C50.66 51 51.32 51 52 51 C52.25394531 51.75925781 52.50789063 52.51851562 52.76953125 53.30078125 C53.11371094 54.29464844 53.45789063 55.28851563 53.8125 56.3125 C54.14894531 57.29863281 54.48539062 58.28476563 54.83203125 59.30078125 C55.794261 61.98043132 55.794261 61.98043132 57.51171875 63.5078125 C67.66754609 73.69029556 66.30029246 99.19952743 66.375 112.625 C66.38285522 113.31525269 66.39071045 114.00550537 66.39880371 114.7166748 C66.51725297 128.10462073 64.56475333 140.9090627 60.6875 153.75 C60.47802734 154.45189453 60.26855469 155.15378906 60.05273438 155.87695312 C58.05475657 162.29274697 55.25331234 168.12474591 52 174 C51.45279297 175.10988281 51.45279297 175.10988281 50.89453125 176.2421875 C40.58980693 196.55402678 21.63697394 213.09549528 2 224 C2.33 224.66 2.66 225.32 3 226 C-6.21351435 225.07864857 -14.71667188 219.43571915 -22 214 C-22 213.34 -22 212.68 -22 212 C-22.68835938 211.79761719 -23.37671875 211.59523438 -24.0859375 211.38671875 C-28.01021682 209.5192668 -30.60040008 206.89061786 -33.625 203.8125 C-34.23746582 203.19101074 -34.84993164 202.56952148 -35.48095703 201.92919922 C-45.95266948 191.06551209 -58.13976098 176.26749206 -61 161 C-61.66 161 -62.32 161 -63 161 C-74.89197057 126.07614966 -75.5010047 85.7934603 -59 52 C-47.64761554 30.93268218 -31.41913131 14.23618355 -11 2 C-10.16339844 1.401875 -9.32679688 0.80375 -8.46484375 0.1875 C-5.06887908 -1.44859074 -3.60036217 -1.10713316 0 0 Z M-8.9375 22.8125 C-11.03157037 24.8229735 -11.03157037 24.8229735 -12 27 C-12.66 27 -13.32 27 -14 27 C-16.05270463 28.84188612 -16.05270463 28.84188612 -17 31 C-17.66 31 -18.32 31 -19 31 C-19 31.66 -19 32.32 -19 33 C-19.66 33 -20.32 33 -21 33 C-21 33.66 -21 34.32 -21 35 C-21.66 35 -22.32 35 -23 35 C-23 35.66 -23 36.32 -23 37 C-23.66 37 -24.32 37 -25 37 C-25 37.66 -25 38.32 -25 39 C-25.66 39 -26.32 39 -27 39 C-27.33 39.99 -27.66 40.98 -28 42 C-28.66 42.33 -29.32 42.66 -30 43 C-30 43.66 -30 44.32 -30 45 C-30.66 45 -31.32 45 -32 45 C-32.33 45.99 -32.66 46.98 -33 48 C-33.474375 48.433125 -33.94875 48.86625 -34.4375 49.3125 C-36.55095529 51.59503171 -37.04553406 54.07297111 -38 57 C-38.99 57.495 -38.99 57.495 -40 58 C-41.57548683 60.62581138 -42 61.87099787 -42 65 C-42.99 65.495 -42.99 65.495 -44 66 C-45.0969198 68.78403015 -46.0758102 71.53380264 -47 74.375 C-47.26039063 75.13683594 -47.52078125 75.89867187 -47.7890625 76.68359375 C-51.55335101 88.07151707 -52.40691693 99.12995726 -52.375 111.0625 C-52.37478851 111.79166626 -52.37457703 112.52083252 -52.37435913 113.27209473 C-52.3415205 124.61900803 -51.5322413 135.1600726 -48 146 C-47.45666016 147.71703125 -47.45666016 147.71703125 -46.90234375 149.46875 C-42.72190986 161.37235838 -36.21015771 172.438376 -28 182 C-27.24976563 182.89460937 -26.49953125 183.78921875 -25.7265625 184.7109375 C-19.78037447 191.5574947 -12.96056544 199.27823045 -3.984375 201.87109375 C2.95927034 202.1710156 8.53048465 196.39232743 13.4375 191.9765625 C31.65021596 174.86703969 45.860146 151.05499567 47.17700195 125.57519531 C47.61195865 98.97871966 44.4907338 78.39947306 33 54 C32.34 54 31.68 54 31 54 C30.71125 53.030625 30.4225 52.06125 30.125 51.0625 C29.35785318 47.89335797 29.35785318 47.89335797 27 47 C26.505 45.515 26.505 45.515 26 44 C25.34 44 24.68 44 24 44 C24 43.34 24 42.68 24 42 C23.34 41.67 22.68 41.34 22 41 C21.505 39.515 21.505 39.515 21 38 C20.34 38 19.68 38 19 38 C19 37.34 19 36.68 19 36 C18.34 36 17.68 36 17 36 C17 35.34 17 34.68 17 34 C16.34 34 15.68 34 15 34 C15 33.34 15 32.68 15 32 C14.34 32 13.68 32 13 32 C12.505 31.01 12.505 31.01 12 30 C11.34 29.67 10.68 29.34 10 29 C8 28 8 28 7 26 C2.38541516 21.38541516 -2.99463524 19.145626 -8.9375 22.8125 Z " fill="#FAFAFA" transform="translate(258,145)"/>
<path d="M0 0 C4.83553819 0.61285028 9.06908635 2.07074347 13.5625 3.875 C23.13168718 7.58737546 32.77034083 9.99709224 43 11 C43 11.33 43 11.66 43 12 C35.64905153 12.21792546 28.64152123 11.57688098 21.375 10.5 C20.37082031 10.35691406 19.36664063 10.21382813 18.33203125 10.06640625 C15.88705792 9.71712435 13.44318049 9.36157276 11 9 C11 8.67 11 8.34 11 8 C12.65 7.67 14.3 7.34 16 7 C10.72 5.02 5.44 3.04 0 1 C0 0.67 0 0.34 0 0 Z " fill="#BABABA" transform="translate(207,477)"/>
<path d="M0 0 C6.54025911 -0.23110456 12.52621748 0.62206745 18.9375 1.875 C20.37319336 2.13603516 20.37319336 2.13603516 21.83789062 2.40234375 C22.74603516 2.57636719 23.65417969 2.75039063 24.58984375 2.9296875 C25.41347412 3.08679199 26.23710449 3.24389648 27.08569336 3.40576172 C27.71741455 3.60186035 28.34913574 3.79795898 29 4 C29.33 4.66 29.66 5.32 30 6 C28.95199219 5.87431641 28.95199219 5.87431641 27.8828125 5.74609375 C26.97273438 5.64425781 26.06265625 5.54242187 25.125 5.4375 C24.22007812 5.33308594 23.31515625 5.22867187 22.3828125 5.12109375 C19.98346943 4.80325148 19.98346943 4.80325148 18 6 C16.12060547 5.65454102 16.12060547 5.65454102 13.8671875 5.00390625 C13.06152344 4.77509766 12.25585938 4.54628906 11.42578125 4.31054688 C10.58402344 4.06369141 9.74226563 3.81683594 8.875 3.5625 C8.02550781 3.31951172 7.17601562 3.07652344 6.30078125 2.82617188 C4.19858388 2.2238569 2.09854569 1.61489475 0 1 C0 0.67 0 0.34 0 0 Z " fill="#C5C5C5" transform="translate(278,25)"/>
<path d="M0 0 C0.66 0.33 1.32 0.66 2 1 C-4.6 7.6 -11.2 14.2 -18 21 C-18.33 20.01 -18.66 19.02 -19 18 C-12.86092974 11.75936424 -6.7116188 5.63468283 0 0 Z " fill="#3D3D3D" transform="translate(104,80)"/>
<path d="M0 0 C3.33234574 1.45241736 5.54225606 3.2850086 8.109375 5.84375 C8.86347656 6.59527344 9.61757813 7.34679687 10.39453125 8.12109375 C11.56048828 9.29865234 11.56048828 9.29865234 12.75 10.5 C13.93916016 11.67755859 13.93916016 11.67755859 15.15234375 12.87890625 C15.90128906 13.63042969 16.65023438 14.38195312 17.421875 15.15625 C18.45199707 16.18975586 18.45199707 16.18975586 19.50292969 17.24414062 C21 19 21 19 21 21 C17.71268312 19.90422771 17.11996244 19.22195399 15 16.625 C11.40884745 12.3696773 7.53939124 8.47754927 3.55664062 4.59423828 C2.35413761 3.4131785 1.1747144 2.20870252 0 1 C0 0.67 0 0.34 0 0 Z " fill="#A5A5A5" transform="translate(411,84)"/>
<path d="M0 0 C0.99 0.33 1.98 0.66 3 1 C1.68 1.99 0.36 2.98 -1 4 C-0.67 2.68 -0.34 1.36 0 0 Z " fill="#161616" transform="translate(86,97)"/>
</svg>
