<?xml version="1.0" encoding="UTF-8"?>
<svg version="1.1" xmlns="http://www.w3.org/2000/svg" width="512" height="512">
<path d="M0 0 C2.20545069 0.02458072 4.40207997 -0.02023166 6.60693359 -0.07104492 C18.53507219 -0.14591888 28.19594995 3.03391182 37.33740234 11.0871582 C46.29300091 21.2865899 50.06354194 34.53163529 49.62646484 47.98168945 C48.72426291 56.89398153 46.84385869 65.06740589 42.33740234 72.8371582 C41.67740234 72.8371582 41.01740234 72.8371582 40.33740234 72.8371582 C39.99708984 73.9199707 39.99708984 73.9199707 39.64990234 75.0246582 C38.0646026 78.42172907 36.17816911 80.4121134 33.33740234 82.8371582 C32.34740234 82.8371582 31.35740234 82.8371582 30.33740234 82.8371582 C30.00740234 83.4971582 29.67740234 84.1571582 29.33740234 84.8371582 C24.96141497 88.42771194 21.22727144 89.46341712 15.68505859 90.3996582 C13.06477186 90.88796455 10.75101331 91.71080642 8.33740234 92.8371582 C11.41738728 96.44299423 14.50849398 100.03472445 17.64990234 103.5871582 C28.85135939 116.43444337 38.24125285 129.52101582 46.21240234 144.5871582 C46.66470215 145.43777832 47.11700195 146.28839844 47.58300781 147.16479492 C53.43327304 158.47909003 57.74050382 169.91769132 56.33740234 182.8371582 C55.27350722 185.79655206 53.9743099 188.12603007 52.33740234 190.8371582 C51.67740234 190.8371582 51.01740234 190.8371582 50.33740234 190.8371582 C50.00740234 191.4971582 49.67740234 192.1571582 49.33740234 192.8371582 C44.10402842 196.32194037 37.31645946 195.47363848 31.33740234 194.8371582 C26.92656675 193.42860892 22.46523224 191.94269729 20.19287109 187.70043945 C19.91056641 187.08555664 19.62826172 186.47067383 19.33740234 185.8371582 C17.3913696 185.24645806 17.3913696 185.24645806 15.33740234 184.8371582 C13.58740234 183.3996582 13.58740234 183.3996582 12.33740234 181.8371582 C12.33740234 181.1771582 12.33740234 180.5171582 12.33740234 179.8371582 C10.68740234 179.1771582 9.03740234 178.5171582 7.33740234 177.8371582 C7.33740234 177.1771582 7.33740234 176.5171582 7.33740234 175.8371582 C6.57427734 175.5484082 5.81115234 175.2596582 5.02490234 174.9621582 C2.33740234 173.8371582 2.33740234 173.8371582 -0.66259766 171.8371582 C-0.66259766 171.1771582 -0.66259766 170.5171582 -0.66259766 169.8371582 C-1.49791016 169.6824707 -1.49791016 169.6824707 -2.35009766 169.5246582 C-5.13950776 168.69537412 -7.27650406 167.49416765 -9.66259766 165.8371582 C-9.66259766 165.1771582 -9.66259766 164.5171582 -9.66259766 163.8371582 C-10.32259766 163.7752832 -10.98259766 163.7134082 -11.66259766 163.6496582 C-15.13806685 162.7083853 -17.49677577 161.12313315 -20.48681641 159.16918945 C-24.03833588 156.9949199 -27.82822672 155.44062241 -31.66259766 153.8371582 C-32.79697266 153.3421582 -33.93134766 152.8471582 -35.10009766 152.3371582 C-42.87217845 149.06470313 -50.54977226 146.15012705 -58.66259766 143.8371582 C-59.66548828 143.52907227 -60.66837891 143.22098633 -61.70166016 142.90356445 C-77.70877451 138.08643519 -94.02300731 135.25633777 -110.66259766 133.8371582 C-111.94005859 133.72500977 -113.21751953 133.61286133 -114.53369141 133.49731445 C-137.02508698 131.81679053 -159.49043469 132.56194061 -181.66259766 136.8371582 C-182.92072266 137.07563477 -184.17884766 137.31411133 -185.47509766 137.55981445 C-191.62250365 138.74898479 -197.65512265 140.05262481 -203.66259766 141.8371582 C-204.71060547 142.14395508 -205.75861328 142.45075195 -206.83837891 142.7668457 C-212.81582495 144.5682678 -218.64344238 146.51458803 -224.40869141 148.91137695 C-226.43542012 149.74384611 -228.47096791 150.48650382 -230.53759766 151.2121582 C-235.23614957 152.93207803 -239.60459423 155.30343297 -244.02587891 157.63012695 C-246.66259766 158.8371582 -246.66259766 158.8371582 -249.66259766 158.8371582 C-249.99259766 159.4971582 -250.32259766 160.1571582 -250.66259766 160.8371582 C-252.1306295 161.80419505 -253.63803731 162.71194764 -255.16259766 163.5871582 C-263.91153017 168.53604051 -263.91153017 168.53604051 -271.66259766 174.8371582 C-272.65259766 174.8371582 -273.64259766 174.8371582 -274.66259766 174.8371582 C-274.99259766 175.8271582 -275.32259766 176.8171582 -275.66259766 177.8371582 C-276.62166016 178.0537207 -276.62166016 178.0537207 -277.60009766 178.2746582 C-279.84393215 178.62727913 -279.84393215 178.62727913 -280.78759766 180.7746582 C-281.07634766 181.4552832 -281.36509766 182.1359082 -281.66259766 182.8371582 C-282.32259766 183.4971582 -282.98259766 184.1571582 -283.66259766 184.8371582 C-284.65259766 184.8371582 -285.64259766 184.8371582 -286.66259766 184.8371582 C-286.91267578 185.44172852 -287.16275391 186.04629883 -287.42041016 186.66918945 C-288.85045536 189.16502307 -290.08779459 190.05939863 -292.53759766 191.5246582 C-293.21564453 191.94102539 -293.89369141 192.35739258 -294.59228516 192.78637695 C-300.20108563 195.63310776 -306.51792479 195.44065286 -312.66259766 194.8371582 C-315.66286759 193.78980788 -317.93585626 192.51515291 -320.66259766 190.8371582 C-320.66259766 189.8471582 -320.66259766 188.8571582 -320.66259766 187.8371582 C-321.32259766 187.8371582 -321.98259766 187.8371582 -322.66259766 187.8371582 C-326.97201197 174.90891527 -323.28073748 162.37985471 -317.52929688 150.49536133 C-313.57290538 142.59808753 -309.49680501 134.84185833 -304.48291016 127.55932617 C-303.3354133 125.66294517 -303.3354133 125.66294517 -304.66259766 122.8371582 C-305.79697266 122.7340332 -306.93134766 122.6309082 -308.10009766 122.5246582 C-316.09533809 121.49346995 -322.44436137 118.99697129 -328.66259766 113.8371582 C-328.66259766 113.1771582 -328.66259766 112.5171582 -328.66259766 111.8371582 C-329.65259766 111.5071582 -330.64259766 111.1771582 -331.66259766 110.8371582 C-331.99259766 109.8471582 -332.32259766 108.8571582 -332.66259766 107.8371582 C-333.32259766 107.5071582 -333.98259766 107.1771582 -334.66259766 106.8371582 C-341.18941687 95.61918767 -342.29200805 82.91114118 -339.41259766 70.3137207 C-336.71625415 61.41016974 -332.21505216 53.90855904 -323.94384766 49.33325195 C-312.75934551 44.05669247 -299.18852346 42.7207822 -287.10009766 45.9621582 C-277.54515521 49.50832241 -270.0257577 55.78935958 -265.60009766 65.0637207 C-264.13805982 69.04215057 -263.47630573 72.90856144 -263.09228516 77.12231445 C-263.00962402 78.00927002 -262.92696289 78.89622559 -262.84179688 79.81005859 C-262.78266113 80.47900146 -262.72352539 81.14794434 -262.66259766 81.8371582 C-261.62103516 81.07532227 -260.57947266 80.31348633 -259.50634766 79.52856445 C-222.35004148 52.63901724 -180.88395699 38.35220472 -134.85009766 38.4621582 C-133.9504126 38.46303436 -133.05072754 38.46391052 -132.1237793 38.46481323 C-103.14659873 38.55754072 -75.30392131 43.7455364 -48.69775391 55.55200195 C-45.90498474 56.96712841 -45.90498474 56.96712841 -43.66259766 56.8371582 C-43.69740234 55.60481445 -43.73220703 54.3724707 -43.76806641 53.1027832 C-44.07926042 37.49411303 -42.66815105 23.0758815 -31.60009766 11.0871582 C-22.07380998 2.41946298 -12.58918973 -0.18255301 0 0 Z " fill="#FEFEFE" transform="translate(396.66259765625,-0.837158203125)"/>
<path d="M0 0 C4.85287309 2.8045825 8.72982549 6.54930207 12.78515625 10.3828125 C56.81137716 51.15485798 120.98185218 61.06505143 178.56414795 59.21612549 C187.42113546 58.85715265 196.10629294 57.75259322 204.8125 56.125 C205.7720459 55.94807617 206.7315918 55.77115234 207.72021484 55.58886719 C245.64128053 48.39126121 280.5558639 34.00139296 309.81640625 8.5078125 C318.8047109 0.69698422 324.60249536 -2.60740152 336.6796875 -2.28515625 C341.33643169 -1.67548276 344.50393096 -0.20901957 347.8125 3.125 C352.17308116 9.93840807 351.5819404 17.95341146 350.0625 25.6875 C347.28987185 36.47416293 341.85172232 46.26671556 336.8125 56.125 C336.1525 56.125 335.4925 56.125 334.8125 56.125 C334.68875 56.888125 334.565 57.65125 334.4375 58.4375 C333.8125 61.125 333.8125 61.125 331.8125 64.125 C331.1525 64.125 330.4925 64.125 329.8125 64.125 C329.668125 64.74375 329.52375 65.3625 329.375 66 C328.8125 68.125 328.8125 68.125 327.8125 70.125 C327.1525 70.125 326.4925 70.125 325.8125 70.125 C325.4825 71.445 325.1525 72.765 324.8125 74.125 C324.1525 74.125 323.4925 74.125 322.8125 74.125 C322.4825 75.445 322.1525 76.765 321.8125 78.125 C321.1525 78.125 320.4925 78.125 319.8125 78.125 C319.544375 78.888125 319.27625 79.65125 319 80.4375 C317.86115495 83.01488618 316.99833329 84.39454864 314.8125 86.125 C314.1525 86.125 313.4925 86.125 312.8125 86.125 C312.8125 86.785 312.8125 87.445 312.8125 88.125 C312.1525 88.125 311.4925 88.125 310.8125 88.125 C310.626875 88.805625 310.44125 89.48625 310.25 90.1875 C308.26477668 94.24426069 305.38765906 97.36201516 301.8125 100.125 C300.8225 100.125 299.8325 100.125 298.8125 100.125 C298.8125 100.785 298.8125 101.445 298.8125 102.125 C298.1525 102.125 297.4925 102.125 296.8125 102.125 C296.8125 102.785 296.8125 103.445 296.8125 104.125 C296.1525 104.125 295.4925 104.125 294.8125 104.125 C294.4825 105.115 294.1525 106.105 293.8125 107.125 C293.173125 107.269375 292.53375 107.41375 291.875 107.5625 C291.194375 107.748125 290.51375 107.93375 289.8125 108.125 C289.52246094 108.73859375 289.23242188 109.3521875 288.93359375 109.984375 C287.57703461 112.57459942 286.28312761 113.40659325 283.8125 114.9375 C280.46811443 117.06041141 277.21408399 119.24669797 274 121.5625 C263.84087584 128.69751278 252.7199206 135.42046915 240.8125 139.125 C239.74 139.599375 238.6675 140.07375 237.5625 140.5625 C233.11069353 142.51262761 228.47890729 143.79390165 223.8125 145.125 C222.636875 145.475625 221.46125 145.82625 220.25 146.1875 C216.92212019 147.09510359 213.59400866 147.85722207 210.21875 148.5625 C208.31740427 149.00697043 206.43497234 149.53229784 204.5625 150.0859375 C189.95581557 154.13320631 175.11113307 154.42286958 160.0625 154.4375 C159.23886963 154.44090393 158.41523926 154.44430786 157.56665039 154.44781494 C138.93024159 154.49182555 120.69992588 152.65384073 102.8125 147.125 C101.83796875 146.83753906 100.8634375 146.55007813 99.859375 146.25390625 C93.76797299 144.43356867 87.84841717 142.43454953 81.97265625 140.0078125 C77.04117598 137.8925468 77.04117598 137.8925468 71.8125 137.125 C72.0290625 137.91519531 72.245625 138.70539063 72.46875 139.51953125 C76.72870573 156.77629638 76.60051062 174.30658088 67.8125 190.125 C67.4825 190.785 67.1525 191.445 66.8125 192.125 C66.1525 192.125 65.4925 192.125 64.8125 192.125 C64.4825 193.445 64.1525 194.765 63.8125 196.125 C63.1525 196.125 62.4925 196.125 61.8125 196.125 C61.4825 197.115 61.1525 198.105 60.8125 199.125 C59.8225 199.455 58.8325 199.785 57.8125 200.125 C56.60367904 202.12516466 56.60367904 202.12516466 55.8125 204.125 C54.8225 204.125 53.8325 204.125 52.8125 204.125 C52.4825 204.785 52.1525 205.445 51.8125 206.125 C50.2109375 207.125 50.2109375 207.125 48.1875 208.125 C47.53523438 208.455 46.88296875 208.785 46.2109375 209.125 C38.46093718 212.35627049 31.03641504 212.49742396 22.78955078 212.49560547 C20.58156195 212.49996239 18.37560298 212.53630043 16.16796875 212.57421875 C4.56957235 212.66678715 -5.1277071 210.77549179 -14.1875 203.125 C-14.1875 202.465 -14.1875 201.805 -14.1875 201.125 C-14.8475 201.125 -15.5075 201.125 -16.1875 201.125 C-16.1875 200.465 -16.1875 199.805 -16.1875 199.125 C-16.8475 199.125 -17.5075 199.125 -18.1875 199.125 C-18.1875 198.465 -18.1875 197.805 -18.1875 197.125 C-18.8475 197.125 -19.5075 197.125 -20.1875 197.125 C-20.1875 196.465 -20.1875 195.805 -20.1875 195.125 C-20.8475 194.795 -21.5075 194.465 -22.1875 194.125 C-22.8475 193.465 -23.5075 192.805 -24.1875 192.125 C-24.1875 191.135 -24.1875 190.145 -24.1875 189.125 C-24.8475 188.795 -25.5075 188.465 -26.1875 188.125 C-33.62032858 175.37886036 -34.38874802 157.49105237 -30.87109375 143.34765625 C-26.61515315 129.50976939 -18.37175613 118.33515122 -5.4375 111.3125 C3.42919448 107.22335674 13.1365054 105.75841725 22.8125 105.125 C22.8125 103.805 22.8125 102.485 22.8125 101.125 C22.1525 101.125 21.4925 101.125 20.8125 101.125 C20.8125 100.465 20.8125 99.805 20.8125 99.125 C20.1525 99.125 19.4925 99.125 18.8125 99.125 C18.8125 98.465 18.8125 97.805 18.8125 97.125 C18.1525 97.125 17.4925 97.125 16.8125 97.125 C16.8125 96.465 16.8125 95.805 16.8125 95.125 C16.1525 95.125 15.4925 95.125 14.8125 95.125 C14.8125 94.465 14.8125 93.805 14.8125 93.125 C14.1525 93.125 13.4925 93.125 12.8125 93.125 C12.8125 92.465 12.8125 91.805 12.8125 91.125 C12.1525 91.125 11.4925 91.125 10.8125 91.125 C10.8125 90.465 10.8125 89.805 10.8125 89.125 C10.1525 89.125 9.4925 89.125 8.8125 89.125 C8.8125 88.465 8.8125 87.805 8.8125 87.125 C7.8534375 86.75375 7.8534375 86.75375 6.875 86.375 C4.8125 85.125 4.8125 85.125 4.0625 83 C3.98 82.38125 3.8975 81.7625 3.8125 81.125 C3.1525 81.125 2.4925 81.125 1.8125 81.125 C1.8125 80.465 1.8125 79.805 1.8125 79.125 C0.8225 78.63 0.8225 78.63 -0.1875 78.125 C-0.5175 77.135 -0.8475 76.145 -1.1875 75.125 C-1.8475 74.795 -2.5075 74.465 -3.1875 74.125 C-3.5175 73.135 -3.8475 72.145 -4.1875 71.125 C-4.8475 70.795 -5.5075 70.465 -6.1875 70.125 C-6.8475 69.465 -7.5075 68.805 -8.1875 68.125 C-8.1875 67.135 -8.1875 66.145 -8.1875 65.125 C-8.8475 64.795 -9.5075 64.465 -10.1875 64.125 C-10.8475 63.465 -11.5075 62.805 -12.1875 62.125 C-12.1875 61.135 -12.1875 60.145 -12.1875 59.125 C-12.8475 58.795 -13.5075 58.465 -14.1875 58.125 C-19.0253977 51.03402422 -23.23447907 43.19659055 -26.1875 35.125 C-26.42919922 34.50512207 -26.67089844 33.88524414 -26.91992188 33.24658203 C-29.01560344 27.53725884 -29.67844894 22.49666649 -29.625 16.4375 C-29.64498047 15.62216797 -29.66496094 14.80683594 -29.68554688 13.96679688 C-29.68118486 8.57098937 -28.93377568 5.28268033 -25.1875 1.125 C-17.84298069 -3.66313966 -7.91333079 -3.57049485 0 0 Z " fill="#FEFEFE" transform="translate(102.1875,299.875)"/>
<path d="M0 0 C0.7914743 0.00182281 1.58294861 0.00364563 2.39840698 0.00552368 C14.60460733 0.05278501 26.43252672 0.5871596 38.375 3.3125 C39.56101807 3.57788574 39.56101807 3.57788574 40.77099609 3.84863281 C88.01266195 14.70943271 131.35790691 43.98439192 157.24243164 85.2175293 C158.29122935 86.91301091 159.33324153 88.61268417 160.375 90.3125 C160.96796875 91.23933594 161.5609375 92.16617188 162.171875 93.12109375 C166.18770293 99.61457699 169.32267815 106.38482805 172.375 113.375 C172.78556641 114.30449463 173.19613281 115.23398926 173.61914062 116.19165039 C173.99232422 117.06813232 174.36550781 117.94461426 174.75 118.84765625 C175.08773438 119.635354 175.42546875 120.42305176 175.7734375 121.23461914 C176.375 123.3125 176.375 123.3125 175.375 126.3125 C174.69695312 125.55066406 174.01890625 124.78882813 173.3203125 124.00390625 C135.87681034 82.28308653 80.79730415 64.89742211 26.375 59.3125 C25.54282959 59.21678711 24.71065918 59.12107422 23.85327148 59.02246094 C17.74101422 58.34298777 11.71006351 58.15562532 5.5625 58.1875 C4.06154785 58.19475098 4.06154785 58.19475098 2.53027344 58.20214844 C-0.52179923 58.22621082 -3.57320159 58.26537185 -6.625 58.3125 C-7.50655762 58.32506836 -8.38811523 58.33763672 -9.29638672 58.35058594 C-59.06356875 59.28688539 -116.46674938 73.69848938 -154.625 107.3125 C-155.47449219 108.05371094 -156.32398438 108.79492188 -157.19921875 109.55859375 C-162.18350762 113.97665548 -166.97211442 118.54853758 -171.625 123.3125 C-172.62384593 124.31365274 -173.62350635 125.31399588 -174.625 126.3125 C-173.95657298 121.80712828 -172.2864868 117.87451131 -170.4375 113.75 C-170.12216309 113.04182129 -169.80682617 112.33364258 -169.48193359 111.60400391 C-160.17586971 90.86089523 -148.22907684 72.86141085 -132.625 56.3125 C-132.01527344 55.64992187 -131.40554687 54.98734375 -130.77734375 54.3046875 C-125.15407363 48.40682033 -118.77194214 43.50703675 -112.29882812 38.58935547 C-110.86008065 37.49182786 -109.43631011 36.37471621 -108.015625 35.25390625 C-77.01810794 11.51217742 -38.78853655 -0.18576154 0 0 Z " fill="#F37727" transform="translate(261.625,55.6875)"/>
<path d="M0 0 C2.46672793 2.4492334 4.91280429 4.90746577 7.296875 7.4375 C20.29622083 21.01643449 35.47346941 31.18465538 52 40 C52.64743164 40.35368652 53.29486328 40.70737305 53.96191406 41.07177734 C91.63202619 61.39146736 139.53712527 70.0085196 182 68 C183.12325684 67.95069336 184.24651367 67.90138672 185.40380859 67.85058594 C242.42952504 65.14940841 304.27694987 49.22654064 344.58984375 6.23828125 C346.42547516 4.18327737 348.23295925 2.11404271 350 0 C351.36742128 4.10226383 349.78072042 6.45913499 348.0625 10.1875 C347.7425708 10.89511475 347.4226416 11.60272949 347.09301758 12.33178711 C346.07583434 14.56120618 345.0403486 16.78130735 344 19 C343.52481934 20.02625488 343.52481934 20.02625488 343.04003906 21.07324219 C323.16776536 63.6921351 285.06747622 98.49500697 241 115 C219.52489284 122.48494383 198.84555778 126.23342713 176.125 126.25 C175.29575012 126.25067474 174.46650024 126.25134949 173.61212158 126.25204468 C161.49197249 126.23636285 149.83255402 125.84730297 138 123 C137.22640137 122.82307617 136.45280273 122.64615234 135.65576172 122.46386719 C96.52284631 113.39887098 58.28701435 91.66572067 33 60 C32.22140625 59.03578125 31.4428125 58.0715625 30.640625 57.078125 C22.23823121 46.51718521 15.55138111 35.2226648 9.25 23.3125 C8.78988525 22.44560547 8.32977051 21.57871094 7.85571289 20.68554688 C0 5.60669991 0 5.60669991 0 0 Z " fill="#F37727" transform="translate(87,310)"/>
<path d="M0 0 C6.34289517 4.93336291 10.8694998 11.83713494 12.91796875 19.58203125 C13.9965194 32.27381337 12.8362062 42.56341681 4.60546875 52.76953125 C-1.70692182 59.5495063 -9.43999428 63.98556995 -18.703125 64.96484375 C-30.13306746 65.31015923 -38.22717795 62.84411869 -47.04296875 55.5703125 C-53.59874882 49.17779898 -58.39759335 40.6871263 -58.55029297 31.42944336 C-58.5401416 30.71667236 -58.52999023 30.00390137 -58.51953125 29.26953125 C-58.51195801 28.5226001 -58.50438477 27.77566895 -58.49658203 27.00610352 C-58.20974766 17.3489973 -54.6724208 9.64107072 -48.08203125 2.58203125 C-33.69076432 -10.940329 -15.88243058 -10.81673978 0 0 Z " fill="#999799" transform="translate(146.08203125,431.41796875)"/>
<path d="M0 0 C7.34490893 4.16211506 12.56387715 10.37701148 15.125 18.4765625 C17.00943608 27.46128453 15.09614793 35.85925669 10.27734375 43.63671875 C5.99717757 49.13297672 0.10260152 52.38246616 -6.4375 54.5625 C-17.09536358 55.46295662 -24.40914295 54.01278407 -32.75 47.3125 C-37.74623442 42.69446659 -41.09729613 36.5891753 -41.67578125 29.7421875 C-41.91252417 19.20089752 -39.77609142 12.08796662 -32.46484375 4.359375 C-23.12866507 -3.91546545 -11.31952895 -5.07182899 0 0 Z " fill="#79797A" transform="translate(412.4375,18.4375)"/>
<path d="M0 0 C6.0262672 3.23134204 8.89258349 8.09766698 11.875 14.0625 C12.60668766 21.18745849 12.25216989 27.21347474 7.875 33.0625 C2.91571912 38.33908085 -1.63950787 41.08150038 -8.9375 41.4375 C-15.01257162 41.28404351 -19.47451141 39.60107907 -23.8828125 35.37890625 C-29.34854449 29.23985945 -30.71117618 24.67393627 -30.5625 16.39453125 C-29.75995816 10.28231529 -26.85081893 6.1979815 -22.05078125 2.4375 C-14.75917114 -2.30676388 -8.09596914 -3.55343442 0 0 Z " fill="#707272" transform="translate(104.125,62.9375)"/>
</svg>
