<?xml version="1.0" encoding="UTF-8"?>
<svg version="1.1" xmlns="http://www.w3.org/2000/svg" width="512" height="512">
<path d="M0 0 C2.125 2.5625 2.125 2.5625 2.125 6.5625 C2.785 6.5625 3.445 6.5625 4.125 6.5625 C4.94153123 10.13837214 5.25165026 13.43846227 5.25642776 17.10330582 C5.26026891 18.21194717 5.26411005 19.32058852 5.2680676 20.46282506 C5.26720112 21.67555238 5.26633463 22.88827971 5.26544189 24.13775635 C5.26989858 26.07636854 5.26989858 26.07636854 5.2744453 28.05414462 C5.2825038 31.63977524 5.28430422 35.22538583 5.28504276 38.81102443 C5.28689531 42.6789076 5.29444363 46.54678042 5.30117798 50.41465759 C5.31475337 58.87130625 5.3207847 67.32795015 5.32518864 75.78460789 C5.32795224 81.06578484 5.3321898 86.34695996 5.33669281 91.62813568 C5.34888414 106.25270599 5.35918392 120.87727484 5.3625679 135.50185013 C5.36278747 136.43764323 5.36300703 137.37343634 5.36323325 138.33758681 C5.36345153 139.27560568 5.36366981 140.21362456 5.3638947 141.18006825 C5.36433817 143.08082024 5.36478473 144.98157223 5.36523438 146.88232422 C5.3654558 147.8251608 5.36567723 148.76799738 5.36590537 149.73940477 C5.36985338 165.01666412 5.38730811 180.29387578 5.4105939 195.57111672 C5.43431287 211.25928253 5.44676999 226.9474244 5.44793582 242.63560843 C5.44885224 251.44264814 5.45459633 260.24962568 5.47275543 269.05664825 C5.48816373 276.55591416 5.49327256 284.05509868 5.48501733 291.55437741 C5.48111349 295.37929175 5.48202737 299.20404225 5.49607468 303.02893639 C5.51117725 307.17917866 5.50293933 311.32905255 5.49249268 315.47930908 C5.50457728 317.28501574 5.50457728 317.28501574 5.51690602 319.12720132 C5.47021273 327.05654956 4.5372012 333.59959803 0.375 340.4375 C-4.29195832 344.84518285 -9.65906149 345.91947188 -15.875 346.5625 C-17.16019531 346.73136719 -18.44539063 346.90023438 -19.76953125 347.07421875 C-25.9020294 347.75338793 -32.0235705 347.74656988 -38.1875 347.75 C-39.33412109 347.76224609 -40.48074219 347.77449219 -41.66210938 347.78710938 C-59.3656673 347.81716635 -59.3656673 347.81716635 -65.875 344.5625 C-66.205 365.0225 -66.535 385.4825 -66.875 406.5625 C-67.535 406.5625 -68.195 406.5625 -68.875 406.5625 C-68.813125 407.26375 -68.75125 407.965 -68.6875 408.6875 C-69.01401789 413.69410759 -71.06451622 416.69271253 -74.4375 420.3125 C-86.55583869 429.46727402 -114.04996104 426.30652543 -128.15234375 424.96875 C-134.4399692 424.03056772 -139.92568376 421.59101322 -144.875 417.5625 C-148.37000315 411.89818455 -149.00165809 406.76488798 -148.98852539 400.21166992 C-148.98844986 398.9507402 -148.98837433 397.68981049 -148.98829651 396.39067078 C-148.98319069 395.02476969 -148.9779747 393.65886902 -148.97265625 392.29296875 C-148.9707897 390.88763988 -148.96936692 389.48231035 -148.96836853 388.07698059 C-148.964562 384.38955875 -148.95474774 380.7021767 -148.94366455 377.01477051 C-148.93341025 373.24748269 -148.92886232 369.4801884 -148.92382812 365.71289062 C-148.9131237 358.329409 -148.8960698 350.94596009 -148.875 343.5625 C-149.54217545 343.69975998 -150.20935089 343.83701996 -150.89674377 343.97843933 C-152.22511513 344.24857597 -152.22511513 344.24857597 -153.58032227 344.52416992 C-154.45374771 344.7026799 -155.32717316 344.88118988 -156.22706604 345.06510925 C-165.23635113 346.757423 -174.29780042 346.74532017 -183.4375 346.75 C-184.70013672 346.76224609 -185.96277344 346.77449219 -187.26367188 346.78710938 C-196.30003392 346.80126556 -203.4962392 345.91400432 -211.875 342.5625 C-212.205 371.9325 -212.535 401.3025 -212.875 431.5625 C-213.535 431.5625 -214.195 431.5625 -214.875 431.5625 C-214.771875 432.3875 -214.66875 433.2125 -214.5625 434.0625 C-214.99040558 438.8550425 -216.82580476 441.89533453 -219.875 445.5625 C-228.9638632 452.21288771 -243.16161654 450.85239116 -253.94140625 450.76831055 C-256.39854114 450.74982287 -258.85530212 450.74780311 -261.3125 450.74804688 C-262.88541992 450.74313825 -264.45833731 450.73731281 -266.03125 450.73046875 C-267.12499939 450.72879951 -267.12499939 450.72879951 -268.24084473 450.72709656 C-271.59794315 450.69567893 -274.66361835 450.58066154 -277.875 449.5625 C-278.58398438 449.39492188 -279.29296875 449.22734375 -280.0234375 449.0546875 C-285.15689939 447.63172789 -288.2268708 445.81714701 -291.68359375 441.76953125 C-295.57775108 434.55576439 -295.16069105 426.5890847 -295.13569641 418.6264801 C-295.13952196 417.3315087 -295.14334751 416.03653729 -295.14728898 414.70232433 C-295.15754518 411.12344502 -295.15539326 407.54466616 -295.15110838 403.96577871 C-295.14863685 400.0999878 -295.15766058 396.23422081 -295.16514587 392.36843872 C-295.17788267 384.80121933 -295.17968787 377.23403543 -295.17734561 369.66680712 C-295.17556129 363.51527826 -295.17731455 357.36376016 -295.18157005 351.21223259 C-295.18216524 350.3361255 -295.18276043 349.46001841 -295.18337366 348.55736263 C-295.18458543 346.77745748 -295.18579956 344.99755233 -295.18701603 343.21764719 C-295.19788748 326.53323103 -295.19573085 309.84883509 -295.18963119 293.1644178 C-295.18446141 277.9067453 -295.19571979 262.64913663 -295.21472941 247.39147676 C-295.23410862 231.71677198 -295.24236372 216.0420974 -295.23860615 200.36738056 C-295.23669436 191.57045099 -295.23917962 182.77357575 -295.25332069 173.97665596 C-295.26523646 166.48843611 -295.26663712 159.00030406 -295.25453053 151.512083 C-295.24864344 147.69322786 -295.24753765 143.87453329 -295.25953293 140.05568886 C-295.27239661 135.9121666 -295.26192342 131.76902623 -295.2492218 127.62550354 C-295.25659609 126.42374546 -295.26397037 125.22198738 -295.27156812 123.98381239 C-295.22317696 116.48178487 -294.75879757 109.39264356 -290.11328125 103.22265625 C-289.47777344 102.69542969 -288.84226562 102.16820312 -288.1875 101.625 C-287.56488281 101.07972656 -286.94226563 100.53445312 -286.30078125 99.97265625 C-279.98761802 96.30268536 -272.95892754 96.24439346 -265.85546875 96.2265625 C-264.91625076 96.2199057 -263.97703278 96.2132489 -263.00935364 96.20639038 C-261.03189029 96.19631536 -259.05439329 96.19157175 -257.0769043 96.19189453 C-254.08128748 96.18752739 -251.0871532 96.15116912 -248.09179688 96.11328125 C-246.15885914 96.10741047 -244.22591449 96.10344283 -242.29296875 96.1015625 C-241.41239304 96.08719147 -240.53181732 96.07282043 -239.6245575 96.05801392 C-232.76464273 96.10742604 -227.17177466 97.91168753 -220.875 100.5625 C-220.88499275 99.38978294 -220.88499275 99.38978294 -220.89518738 98.19337463 C-220.95551704 90.7939764 -221.00108475 83.39469891 -221.03043652 75.99511814 C-221.04603429 72.19170628 -221.06716348 68.38849915 -221.10131836 64.58520508 C-221.13412385 60.90879771 -221.1518972 57.23258617 -221.15963173 53.55604362 C-221.16513751 52.15953429 -221.17588814 50.76303461 -221.19219017 49.36660957 C-221.29430946 40.2492642 -221.00798982 32.53207005 -216.0625 24.6875 C-211.53719069 20.29148525 -206.43344669 19.00612277 -200.3125 18.375 C-199.58579102 18.29531982 -198.85908203 18.21563965 -198.11035156 18.13354492 C-188.71352456 17.21187974 -179.30309305 17.31464908 -169.875 17.5625 C-167.95880859 17.60697266 -167.95880859 17.60697266 -166.00390625 17.65234375 C-157.99602925 18.03906101 -150.82159731 19.50388709 -144.375 24.5 C-141.50652287 28.44415606 -140.59739649 31.70443856 -140.875 36.5625 C-140.215 36.5625 -139.555 36.5625 -138.875 36.5625 C-138.875 57.3525 -138.875 78.1425 -138.875 99.5625 C-136.4 98.5725 -136.4 98.5725 -133.875 97.5625 C-128.86595243 96.44270493 -123.96105101 96.40149614 -118.85546875 96.39453125 C-117.56845818 96.38953865 -117.56845818 96.38953865 -116.25544739 96.38444519 C-114.44593844 96.37939997 -112.63642027 96.37703612 -110.8269043 96.37719727 C-108.0817097 96.37501527 -105.33692029 96.35684628 -102.59179688 96.33789062 C-100.82552219 96.33495517 -99.05924562 96.33297139 -97.29296875 96.33203125 C-96.48329147 96.32484573 -95.6736142 96.31766022 -94.83940125 96.31025696 C-88.75158562 96.3342456 -82.4000988 96.7999506 -76.875 99.5625 C-76.875 70.5225 -76.875 41.4825 -76.875 11.5625 C-76.215 11.5625 -75.555 11.5625 -74.875 11.5625 C-74.9059375 10.70978516 -74.9059375 10.70978516 -74.9375 9.83984375 C-74.83792025 6.11182674 -74.58888284 3.49228887 -72.2734375 0.4765625 C-58.35421832 -12.26032918 -14.62334477 -12.39805318 0 0 Z " fill="#FCFCFD" transform="translate(401.875,36.4375)"/>
<path d="M0 0 C15.51 0 31.02 0 47 0 C47 104.94 47 209.88 47 318 C31.49 318 15.98 318 0 318 C0 213.06 0 108.12 0 0 Z " fill="#150956" transform="translate(124,151)"/>
<path d="M0 0 C15.18 0 30.36 0 46 0 C46 104.61 46 209.22 46 317 C30.82 317 15.64 317 0 317 C0 212.39 0 107.78 0 0 Z " fill="#130754" transform="translate(343,48)"/>
<path d="M0 0 C15.84 0 31.68 0 48 0 C48 31.68 48 63.36 48 96 C32.16 96 16.32 96 0 96 C0 64.32 0 32.64 0 0 Z " fill="#180D58" transform="translate(270,347)"/>
<path d="M0 0 C15.84 0 31.68 0 48 0 C48 31.68 48 63.36 48 96 C32.16 96 16.32 96 0 96 C0 64.32 0 32.64 0 0 Z " fill="#180D58" transform="translate(270,151)"/>
<path d="M0 0 C15.51 0 31.02 0 47 0 C47 32.01 47 64.02 47 97 C31.49 97 15.98 97 0 97 C0 64.99 0 32.98 0 0 Z " fill="#160B57" transform="translate(198,268)"/>
<path d="M0 0 C15.51 0 31.02 0 47 0 C47 31.68 47 63.36 47 96 C31.49 96 15.98 96 0 96 C0 64.32 0 32.64 0 0 Z " fill="#150956" transform="translate(198,73)"/>
<path d="M0 0 C15.51 0 31.02 0 47 0 C47 15.18 47 30.36 47 46 C31.49 46 15.98 46 0 46 C0 30.82 0 15.64 0 0 Z " fill="#E70A8B" transform="translate(270,274)"/>
<path d="M0 0 C15.51 0 31.02 0 47 0 C47.020625 7.404375 47.04125 14.80875 47.0625 22.4375 C47.071604 24.7777124 47.08070801 27.1179248 47.09008789 29.52905273 C47.09300694 31.37223249 47.09555552 33.21541288 47.09765625 35.05859375 C47.10277222 36.02510864 47.10788818 36.99162354 47.11315918 37.98742676 C47.11334045 39.35768005 47.11334045 39.35768005 47.11352539 40.75561523 C47.115746 41.55281479 47.11796661 42.35001434 47.12025452 43.17137146 C47 45 47 45 46 46 C44.5932478 46.09804851 43.18164864 46.12798186 41.77148438 46.12939453 C40.42503845 46.13412277 40.42503845 46.13412277 39.0513916 46.13894653 C37.58735901 46.13591019 37.58735901 46.13591019 36.09375 46.1328125 C34.6011969 46.13424759 34.6011969 46.13424759 33.07849121 46.13571167 C30.97013282 46.1363936 28.86177235 46.13453844 26.75341797 46.13037109 C23.51394973 46.12502303 20.27462015 46.13031567 17.03515625 46.13671875 C14.99218719 46.13605797 12.94921822 46.13477681 10.90625 46.1328125 C9.93022827 46.13483673 8.95420654 46.13686096 7.9486084 46.13894653 C7.05097778 46.13579437 6.15334717 46.13264221 5.22851562 46.12939453 C4.43433228 46.12859894 3.64014893 46.12780334 2.82189941 46.12698364 C1 46 1 46 0 45 C-0.0928726 43.58774954 -0.11746772 42.17091066 -0.11352539 40.75561523 C-0.11340454 39.84211304 -0.11328369 38.92861084 -0.11315918 37.98742676 C-0.10804321 37.02091187 -0.10292725 36.05439697 -0.09765625 35.05859375 C-0.09664917 34.17498169 -0.09564209 33.29136963 -0.09460449 32.38098145 C-0.08935531 29.06647451 -0.07539417 25.75198601 -0.0625 22.4375 C-0.041875 15.033125 -0.02125 7.62875 0 0 Z " fill="#FFCC05" transform="translate(198,196)"/>
</svg>
