<?xml version="1.0" encoding="UTF-8"?>
<svg version="1.1" xmlns="http://www.w3.org/2000/svg" width="512" height="512">
<path d="M0 0 C6.79102383 6.3059507 11.01446935 15.40387621 15.5625 23.375 C16.55492138 25.1048456 17.54734765 26.83468843 18.54006958 28.56436157 C19.56264091 30.34689872 20.58390134 32.13018197 21.60498047 33.91357422 C24.76469911 39.42939788 27.94611722 44.93270746 31.125 50.4375 C32.37509875 52.60410969 33.62509851 54.7707765 34.875 56.9375 C35.49375 58.01 36.1125 59.0825 36.75 60.1875 C57.375 95.9375 57.375 95.9375 59.25024414 99.18798828 C60.49935518 101.35307071 61.74854129 103.51810982 62.99780273 105.68310547 C66.13702309 111.12365706 69.27490563 116.56497216 72.41015625 122.0078125 C78.43247329 132.45956199 84.47169337 142.90049548 90.5625 153.3125 C95.98421178 162.58249777 101.32704915 171.89581752 106.64422607 181.22595215 C111.84545129 190.3503284 117.10527878 199.43882774 122.40844727 208.50439453 C128.56266742 219.02834625 134.64869996 229.59130137 140.73388672 240.15527344 C143.86180148 245.58409942 146.99358448 251.01069281 150.125 256.4375 C151.37501879 258.60415583 152.62501878 260.7708225 153.875 262.9375 C154.49375 264.01 155.1125 265.0825 155.75 266.1875 C172.625 295.4375 189.5 324.6875 206.375 353.9375 C206.9944751 355.0112085 207.6139502 356.08491699 208.25219727 357.19116211 C209.49504233 359.3455241 210.73771967 361.49998285 211.98022461 363.65454102 C214.87295937 368.67020964 217.76720746 373.68498231 220.66775513 378.69613647 C221.68517706 380.45408069 222.70204461 382.21234442 223.71875 383.97070312 C224.9871881 386.16404401 226.25664102 388.35679847 227.52734375 390.54882812 C230.37783273 395.48017407 233.20363389 400.42473589 235.97265625 405.40234375 C236.450979 406.26077881 236.92930176 407.11921387 237.42211914 408.00366211 C241.72403077 416.70789532 241.55978991 426.13824149 238.96484375 435.296875 C236.62636035 439.03299425 232.99618039 441.87953377 228.65910439 442.90009803 C226.47222005 443.07417609 224.33430597 443.09633728 222.14073753 443.06111908 C221.30854387 443.06778709 220.47635021 443.0744551 219.61893857 443.08132517 C216.82965754 443.09757097 214.04177839 443.07818362 211.25253296 443.05895996 C209.23302199 443.06328882 207.21351471 443.06980468 205.19401705 443.07832003 C199.64395805 443.09533362 194.0943493 443.08111467 188.54431391 443.06180525 C182.55926411 443.04639658 176.57427014 443.05977533 170.58921814 443.06954956 C159.54260107 443.0832472 148.49611427 443.07436255 137.44951774 443.05413339 C127.24585054 443.03557969 117.04223466 443.02715441 106.83855057 443.02870178 C106.16183379 443.02879346 105.48511702 443.02888513 104.78789368 443.02897959 C102.04093184 443.02937274 99.29397002 443.02982236 96.54700821 443.03035098 C70.77834531 443.03522219 45.0097735 443.01255832 19.24113892 442.97639475 C-3.65892102 442.94439415 -26.55890319 442.93235236 -49.45898438 442.93847656 C-50.92966595 442.93886341 -52.40034752 442.93924986 -53.87102909 442.93963593 C-54.59810248 442.93982728 -55.32517588 442.94001862 -56.07428179 442.94021577 C-59.73418114 442.94117009 -63.3940805 442.94208446 -67.05397987 442.94295502 C-67.77600392 442.94312881 -68.49802797 442.9433026 -69.24193154 442.94348167 C-88.37200408 442.94783522 -107.50206821 442.93782617 -126.6321348 442.92311716 C-127.3124933 442.92259702 -127.99285181 442.92207688 -128.69382725 442.92154097 C-129.71251319 442.92076196 -129.71251319 442.92076196 -130.75177865 442.9199672 C-131.42966779 442.91944946 -132.10755692 442.91893172 -132.80598815 442.91839829 C-134.17120227 442.91735021 -135.53641638 442.91628999 -136.90163048 442.91521757 C-146.42479144 442.90783275 -155.94794051 442.90574953 -165.47110398 442.90721158 C-177.74113434 442.90905596 -190.01110399 442.90068503 -202.2811134 442.87557012 C-208.199639 442.8636874 -214.11806694 442.8566001 -220.03660393 442.86240768 C-225.44977075 442.86756255 -230.86273087 442.85895142 -236.27586226 442.83913308 C-238.23871119 442.8343759 -240.20158013 442.83471533 -242.16442616 442.84054345 C-244.82400611 442.8476799 -247.4828926 442.83651524 -250.14241982 442.82061005 C-250.91180874 442.82706185 -251.68119766 442.83351365 -252.47390139 442.84016097 C-256.91373703 442.7900179 -259.87732047 442.25798943 -263.375 439.4375 C-263.375 438.7775 -263.375 438.1175 -263.375 437.4375 C-264.035 437.4375 -264.695 437.4375 -265.375 437.4375 C-269.01044754 431.07546681 -269.84004865 423.62628864 -268.375 416.4375 C-265.63061034 408.3961317 -261.68727358 401.01602457 -257.4375 393.6875 C-256.87393799 392.70289795 -256.31037598 391.7182959 -255.72973633 390.70385742 C-251.13778181 382.70073669 -246.48171566 374.7342859 -241.81860352 366.77246094 C-237.28420889 359.02415124 -232.81904957 351.23778561 -228.375 343.4375 C-222.83531101 333.71615901 -217.24124937 324.02854908 -211.59155273 314.37060547 C-205.43733258 303.84665375 -199.35130004 293.28369863 -193.26611328 282.71972656 C-190.13819852 277.29090058 -187.00641552 271.86430719 -183.875 266.4375 C-182.62498121 264.27084417 -181.37498122 262.1041775 -180.125 259.9375 C-157.625 220.9375 -135.125 181.9375 -112.625 142.9375 C-112.00616943 141.86483887 -111.38733887 140.79217773 -110.74975586 139.68701172 C-109.50064482 137.52192929 -108.25145871 135.35689018 -107.00219727 133.19189453 C-103.86297691 127.75134294 -100.72509437 122.31002784 -97.58984375 116.8671875 C-91.56752671 106.41543801 -85.52830663 95.97450452 -79.4375 85.5625 C-74.36224761 76.88487561 -69.35254371 68.17137074 -64.375 59.4375 C-58.17241753 48.55512477 -51.91205607 37.70829212 -45.5703125 26.90625 C-43.51410095 23.40170752 -41.48790826 19.88306853 -39.4921875 16.34375 C-38.82388916 15.17138794 -38.82388916 15.17138794 -38.14208984 13.9753418 C-37.33341743 12.55510113 -36.53333501 11.12991125 -35.74462891 9.69848633 C-32.36003016 3.79707627 -28.07673 -0.551981 -21.375 -2.5625 C-13.96764359 -4.13344216 -6.87271187 -3.18181105 0 0 Z " fill="#000000" transform="translate(270.375,69.5625)"/>
<path d="M0 0 C6.79102383 6.3059507 11.01446935 15.40387621 15.5625 23.375 C16.55492138 25.1048456 17.54734765 26.83468843 18.54006958 28.56436157 C19.56264091 30.34689872 20.58390134 32.13018197 21.60498047 33.91357422 C24.76469911 39.42939788 27.94611722 44.93270746 31.125 50.4375 C32.37509875 52.60410969 33.62509851 54.7707765 34.875 56.9375 C35.49375 58.01 36.1125 59.0825 36.75 60.1875 C57.375 95.9375 57.375 95.9375 59.25024414 99.18798828 C60.49935518 101.35307071 61.74854129 103.51810982 62.99780273 105.68310547 C66.13702309 111.12365706 69.27490563 116.56497216 72.41015625 122.0078125 C78.43247329 132.45956199 84.47169337 142.90049548 90.5625 153.3125 C95.98421178 162.58249777 101.32704915 171.89581752 106.64422607 181.22595215 C111.84545129 190.3503284 117.10527878 199.43882774 122.40844727 208.50439453 C128.56266742 219.02834625 134.64869996 229.59130137 140.73388672 240.15527344 C143.86180148 245.58409942 146.99358448 251.01069281 150.125 256.4375 C151.37501879 258.60415583 152.62501878 260.7708225 153.875 262.9375 C154.49375 264.01 155.1125 265.0825 155.75 266.1875 C172.625 295.4375 189.5 324.6875 206.375 353.9375 C206.9944751 355.0112085 207.6139502 356.08491699 208.25219727 357.19116211 C209.49504233 359.3455241 210.73771967 361.49998285 211.98022461 363.65454102 C214.87295937 368.67020964 217.76720746 373.68498231 220.66775513 378.69613647 C221.68517706 380.45408069 222.70204461 382.21234442 223.71875 383.97070312 C224.9871881 386.16404401 226.25664102 388.35679847 227.52734375 390.54882812 C230.37783273 395.48017407 233.20363389 400.42473589 235.97265625 405.40234375 C236.450979 406.26077881 236.92930176 407.11921387 237.42211914 408.00366211 C241.72403077 416.70789532 241.55978991 426.13824149 238.96484375 435.296875 C236.62636035 439.03299425 232.99618039 441.87953377 228.65910439 442.90009803 C226.47222005 443.07417609 224.33430597 443.09633728 222.14073753 443.06111908 C221.30854387 443.06778709 220.47635021 443.0744551 219.61893857 443.08132517 C216.82965754 443.09757097 214.04177839 443.07818362 211.25253296 443.05895996 C209.23302199 443.06328882 207.21351471 443.06980468 205.19401705 443.07832003 C199.64395805 443.09533362 194.0943493 443.08111467 188.54431391 443.06180525 C182.55926411 443.04639658 176.57427014 443.05977533 170.58921814 443.06954956 C159.54260107 443.0832472 148.49611427 443.07436255 137.44951774 443.05413339 C127.24585054 443.03557969 117.04223466 443.02715441 106.83855057 443.02870178 C106.16183379 443.02879346 105.48511702 443.02888513 104.78789368 443.02897959 C102.04093184 443.02937274 99.29397002 443.02982236 96.54700821 443.03035098 C70.77834531 443.03522219 45.0097735 443.01255832 19.24113892 442.97639475 C-3.65892102 442.94439415 -26.55890319 442.93235236 -49.45898438 442.93847656 C-50.92966595 442.93886341 -52.40034752 442.93924986 -53.87102909 442.93963593 C-54.59810248 442.93982728 -55.32517588 442.94001862 -56.07428179 442.94021577 C-59.73418114 442.94117009 -63.3940805 442.94208446 -67.05397987 442.94295502 C-67.77600392 442.94312881 -68.49802797 442.9433026 -69.24193154 442.94348167 C-88.37200408 442.94783522 -107.50206821 442.93782617 -126.6321348 442.92311716 C-127.3124933 442.92259702 -127.99285181 442.92207688 -128.69382725 442.92154097 C-129.71251319 442.92076196 -129.71251319 442.92076196 -130.75177865 442.9199672 C-131.42966779 442.91944946 -132.10755692 442.91893172 -132.80598815 442.91839829 C-134.17120227 442.91735021 -135.53641638 442.91628999 -136.90163048 442.91521757 C-146.42479144 442.90783275 -155.94794051 442.90574953 -165.47110398 442.90721158 C-177.74113434 442.90905596 -190.01110399 442.90068503 -202.2811134 442.87557012 C-208.199639 442.8636874 -214.11806694 442.8566001 -220.03660393 442.86240768 C-225.44977075 442.86756255 -230.86273087 442.85895142 -236.27586226 442.83913308 C-238.23871119 442.8343759 -240.20158013 442.83471533 -242.16442616 442.84054345 C-244.82400611 442.8476799 -247.4828926 442.83651524 -250.14241982 442.82061005 C-250.91180874 442.82706185 -251.68119766 442.83351365 -252.47390139 442.84016097 C-256.91373703 442.7900179 -259.87732047 442.25798943 -263.375 439.4375 C-263.375 438.7775 -263.375 438.1175 -263.375 437.4375 C-264.035 437.4375 -264.695 437.4375 -265.375 437.4375 C-269.01044754 431.07546681 -269.84004865 423.62628864 -268.375 416.4375 C-265.63061034 408.3961317 -261.68727358 401.01602457 -257.4375 393.6875 C-256.87393799 392.70289795 -256.31037598 391.7182959 -255.72973633 390.70385742 C-251.13778181 382.70073669 -246.48171566 374.7342859 -241.81860352 366.77246094 C-237.28420889 359.02415124 -232.81904957 351.23778561 -228.375 343.4375 C-222.83531101 333.71615901 -217.24124937 324.02854908 -211.59155273 314.37060547 C-205.43733258 303.84665375 -199.35130004 293.28369863 -193.26611328 282.71972656 C-190.13819852 277.29090058 -187.00641552 271.86430719 -183.875 266.4375 C-182.62498121 264.27084417 -181.37498122 262.1041775 -180.125 259.9375 C-157.625 220.9375 -135.125 181.9375 -112.625 142.9375 C-112.00616943 141.86483887 -111.38733887 140.79217773 -110.74975586 139.68701172 C-109.50064482 137.52192929 -108.25145871 135.35689018 -107.00219727 133.19189453 C-103.86297691 127.75134294 -100.72509437 122.31002784 -97.58984375 116.8671875 C-91.56752671 106.41543801 -85.52830663 95.97450452 -79.4375 85.5625 C-74.36224761 76.88487561 -69.35254371 68.17137074 -64.375 59.4375 C-58.17241753 48.55512477 -51.91205607 37.70829212 -45.5703125 26.90625 C-43.51410095 23.40170752 -41.48790826 19.88306853 -39.4921875 16.34375 C-38.82388916 15.17138794 -38.82388916 15.17138794 -38.14208984 13.9753418 C-37.33341743 12.55510113 -36.53333501 11.12991125 -35.74462891 9.69848633 C-32.36003016 3.79707627 -28.07673 -0.551981 -21.375 -2.5625 C-13.96764359 -4.13344216 -6.87271187 -3.18181105 0 0 Z M-15.375 10.4375 C-15.77702637 11.16638428 -16.17905273 11.89526855 -16.59326172 12.64624023 C-30.21291278 37.31510036 -30.21291278 37.31510036 -36.53588867 47.953125 C-40.26548475 54.22944831 -43.91808814 60.54887742 -47.5625 66.875 C-48.20058594 67.98238525 -48.83867187 69.08977051 -49.49609375 70.23071289 C-50.80406691 72.50119079 -52.11184513 74.771781 -53.41943359 77.04248047 C-56.56832054 82.5091998 -59.72183264 87.97324887 -62.875 93.4375 C-64.1250235 95.60415311 -65.37502347 97.77081979 -66.625 99.9375 C-69.125 104.27083333 -71.625 108.60416667 -74.125 112.9375 C-74.74383057 114.01016113 -75.36266113 115.08282227 -76.00024414 116.18798828 C-77.24935518 118.35307071 -78.49854129 120.51810982 -79.74780273 122.68310547 C-82.88702309 128.12365706 -86.02490563 133.56497216 -89.16015625 139.0078125 C-95.18247329 149.45956199 -101.22169337 159.90049548 -107.3125 170.3125 C-112.38775123 178.99012241 -117.39758767 187.70355568 -122.375 196.4375 C-127.9150173 206.15865617 -133.50874809 215.84644658 -139.15844727 225.50439453 C-145.31266742 236.02834625 -151.39869996 246.59130137 -157.48388672 257.15527344 C-160.61180148 262.58409942 -163.74358448 268.01069281 -166.875 273.4375 C-168.12501879 275.60415583 -169.37501878 277.7708225 -170.625 279.9375 C-188.125 310.27083333 -205.625 340.60416667 -223.125 370.9375 C-223.74455566 372.0114502 -224.36411133 373.08540039 -225.00244141 374.19189453 C-226.24411527 376.3440213 -227.48597522 378.49604073 -228.72802734 380.64794922 C-231.63666823 385.68780977 -234.54351898 390.72867492 -237.44354248 395.77349854 C-238.46775665 397.55499578 -239.49257651 399.33614322 -240.51757812 401.1171875 C-241.80133375 403.34826625 -243.08395939 405.57999573 -244.36523438 407.8125 C-246.93696371 412.27963648 -249.524475 416.71365395 -252.3046875 421.0546875 C-254.54900255 424.06080397 -254.54900255 424.06080397 -254.375 426.4375 C-96.305 426.4375 61.765 426.4375 224.625 426.4375 C223.74064249 422.01571246 222.94055674 419.85920397 220.73828125 416.10546875 C220.13701416 415.07244629 219.53574707 414.03942383 218.91625977 412.97509766 C218.26326904 411.86956543 217.61027832 410.7640332 216.9375 409.625 C216.25445297 408.4566112 215.57209039 407.28782203 214.89038086 406.11865234 C213.14302201 403.1251978 211.3878931 400.13638235 209.63061523 397.14874268 C206.97277682 392.62593279 204.33193953 388.09315106 201.6875 383.5625 C201.1200708 382.59207764 200.5526416 381.62165527 199.96801758 380.62182617 C195.125504 372.32879306 190.36062849 363.99246653 185.60577393 355.64904785 C180.40454871 346.5246716 175.14472122 337.43617226 169.84155273 328.37060547 C163.68733258 317.84665375 157.60130004 307.28369863 151.51611328 296.71972656 C149.0118587 292.3733286 146.50506648 288.02839727 143.99804688 283.68359375 C142.12209485 280.43246521 140.24659471 277.18107626 138.37109375 273.9296875 C135.88569098 269.62148349 133.39858023 265.31427211 130.91015625 261.0078125 C124.77301669 250.38363997 118.6548093 239.74929363 112.57684326 229.09118652 C106.71887165 218.81902763 100.81210152 208.57720887 94.84130859 198.37011719 C88.68707011 187.84638681 82.60120913 177.2835408 76.51611328 166.71972656 C73.38819852 161.29090058 70.25641552 155.86430719 67.125 150.4375 C65.87498121 148.27084417 64.62498122 146.1041775 63.375 143.9375 C62.75625 142.865 62.1375 141.7925 61.5 140.6875 C49.625 120.10416667 37.75 99.52083333 25.875 78.9375 C25.25608887 77.8647583 24.63717773 76.7920166 23.99951172 75.68676758 C22.75100778 73.5226182 21.50263513 71.35839307 20.25439453 69.1940918 C17.10758342 63.73827827 13.95841829 58.28384816 10.8046875 52.83203125 C2.66092925 38.74727487 -5.39997025 24.61850102 -13.375 10.4375 C-14.035 10.4375 -14.695 10.4375 -15.375 10.4375 Z " fill="#FCFCFC" transform="translate(270.375,69.5625)"/>
</svg>
