<?xml version="1.0" encoding="UTF-8"?>
<svg version="1.1" xmlns="http://www.w3.org/2000/svg" width="320" height="320">
<path d="M0 0 C19.72487894 -1.8363976 39.45501898 -3.05715523 59.25 -3.75 C60.33518653 -3.7890873 60.33518653 -3.7890873 61.44229603 -3.82896423 C126.63710089 -6.11465486 126.63710089 -6.11465486 152.16760254 17.34283447 C156.31601483 21.35575547 160.14193682 25.60116759 163.875 30 C164.48461075 30.71746902 165.0942215 31.43493805 165.7223053 32.17414856 C173.14359948 41.01859753 179.86185817 50.22235939 186 60 C190.01291728 56.61833266 193.92096585 53.20369863 197.62109375 49.4765625 C198.41064453 48.68378906 199.20019531 47.89101562 200.01367188 47.07421875 C200.81353516 46.26597656 201.61339844 45.45773438 202.4375 44.625 C203.26443359 43.79355469 204.09136719 42.96210937 204.94335938 42.10546875 C206.96455531 40.0725896 208.98336335 38.03740037 211 36 C227.60994277 44.08976651 246.59897188 58.00926336 253 76 C259.79523643 103.20310807 255.07240992 135.54965811 253 163 C240.79 163 228.58 163 216 163 C216.37898438 155.79929688 216.37898438 155.79929688 216.765625 148.453125 C217.0077725 142.05289604 217.15677123 135.6540572 217.25 129.25 C217.26209126 128.43068371 217.27418251 127.61136742 217.28664017 126.76722336 C218.06509057 101.10561212 218.06509057 101.10561212 206.8366394 78.93399048 C200.96349351 73.00208235 194.25305568 68.09895042 187 64 C185.91160226 64.88967344 184.82955392 65.78711574 183.75 66.6875 C183.14671875 67.18636719 182.5434375 67.68523437 181.921875 68.19921875 C179.6890576 70.2913505 177.86460342 72.57849069 176 75 C176.69673828 75.42442383 177.39347656 75.84884766 178.11132812 76.28613281 C187.2662504 82.2965383 197.16065667 89.73224806 199.65838623 100.95941162 C201.80911675 117.09583006 200.37468974 133.84024625 199 150 C195.38307227 148.47102424 193.0796478 146.32184367 190.32324219 143.55029297 C189.40258972 142.62948944 188.48193726 141.70868591 187.53338623 140.75997925 C186.5377747 139.75415535 185.54227352 138.7482222 184.546875 137.7421875 C183.52169807 136.71327851 182.49607725 135.68481163 181.47003174 134.6567688 C178.77606836 131.95518419 176.08816632 129.24764659 173.40148926 126.53881836 C170.65671696 123.77355511 167.90624528 121.01397367 165.15625 118.25390625 C159.76524427 112.84147726 154.38063036 107.42274562 149 102 C147.91160226 102.88967344 146.82955392 103.78711574 145.75 104.6875 C145.14671875 105.18636719 144.5434375 105.68523437 143.921875 106.19921875 C141.6890576 108.2913505 139.86460342 110.57849069 138 113 C138.90202148 113.89202873 138.90202148 113.89202873 139.82226562 114.80207825 C145.48073601 120.40050357 151.13201129 126.00607043 156.77526855 131.61983204 C159.67696605 134.5058559 162.58139539 137.38901589 165.4921875 140.26586914 C168.29976699 143.04091589 171.10001107 145.82317085 173.89526367 148.61063194 C174.96440202 149.67421584 176.03618262 150.73515033 177.1105957 151.79340553 C178.61200669 153.27312328 180.10384976 154.76187945 181.59375 156.25317383 C182.87282227 157.52225334 182.87282227 157.52225334 184.17773438 158.81697083 C186 161 186 161 186 164 C138.14117194 168.35529162 138.14117194 168.35529162 126.26953125 158.65625 C120.25223565 153.26555598 115.30743744 146.80860316 111 140 C109.91160226 140.88967344 108.82955392 141.78711574 107.75 142.6875 C107.14671875 143.18636719 106.5434375 143.68523437 105.921875 144.19921875 C103.68979907 146.29065575 101.89023163 148.59940583 100 151 C107.24620837 162.80498365 117.05611652 176.19120139 131.12013245 179.80079651 C139.74700122 181.15664433 148.39689676 181.03288429 157.1015625 180.7578125 C157.7679861 180.739579 158.43440969 180.7213455 159.12102795 180.70255947 C171.06027591 180.3719604 182.97402949 179.65092471 194.88867188 178.83392334 C204.62292685 178.17027672 214.34625781 177.65821216 224.1015625 177.4453125 C225.10303424 177.42024045 225.10303424 177.42024045 226.12473774 177.3946619 C242.79154052 177.03183116 255.29273206 178.48022356 268.06844902 189.80383873 C275.61863258 197.07136376 282.38424067 205.14847704 288 214 C288 214.66 288 215.32 288 216 C265.59961321 216.91900991 243.20240681 217.60249439 220.78687191 218.02067471 C210.37297348 218.22020083 199.97101469 218.49200489 189.56469727 218.94213867 C113.89752072 222.15279697 113.89752072 222.15279697 93.58759785 204.71805286 C85.6252804 197.16060496 76.01972645 187.44779745 72 177 C72.49123352 172.71559665 74.8928703 170.76243605 77.91015625 167.796875 C78.39705429 167.3142218 78.88395233 166.8315686 79.38560486 166.33428955 C80.9376545 164.7989915 82.49982136 163.27447075 84.0625 161.75 C85.11852357 160.7090278 86.17387038 159.6673686 87.22851562 158.625 C89.81121415 156.07532367 92.40308882 153.53520804 95 151 C90.53135031 145.37618916 85.4356901 140.67892123 80.08706665 135.92282104 C75.78544432 132.09439537 71.58357656 128.16074679 67.38503456 124.21995354 C64.21437316 121.25211283 61.01980207 118.32709045 57.74169922 115.47802734 C34.53924797 95.23587382 34.53924797 95.23587382 33.33886719 79.94238281 C32.75500768 70.87221983 34.0955758 62.0739649 35 53 C47.21 53 59.42 53 72 53 C71.67 55.97 71.34 58.94 71 62 C70.77934307 69.95324331 73.15490505 75.02340812 78.41015625 80.73828125 C84.25765247 86.85172004 90.57314947 92.5057207 97 98 C101.90473901 93.88670129 106.5219528 89.61457539 111.02734375 85.0703125 C111.66112442 84.43511688 112.29490509 83.79992126 112.94789124 83.14547729 C114.94681406 81.14101284 116.94220784 79.13307786 118.9375 77.125 C120.30250133 75.75497611 121.6677336 74.38518226 123.03320312 73.015625 C126.35814211 69.67973457 129.67992353 66.34072964 133 63 C128.45850689 53.19872137 119.82829286 42.91994873 110 38 C98.95876953 34.41906719 86.12714698 35.91613491 74.72076416 36.50250244 C68.01880209 36.82657997 61.31074457 36.96491451 54.60277748 37.09861374 C52.28178124 37.16264686 49.96850416 37.28015379 47.65019226 37.40689087 C36.06131486 37.89609771 36.06131486 37.89609771 31.41723633 33.91088867 C30.24775291 32.63446436 29.10721176 31.33080149 28 30 C26.85119148 28.87785966 25.69176874 27.76647276 24.52148438 26.66674805 C23.37617856 25.53449078 22.23366014 24.399408 21.09375 23.26171875 C20.48358032 22.65487747 19.87341064 22.04803619 19.24475098 21.42280579 C17.9730692 20.15613585 16.70269097 18.88815591 15.43359375 17.61889648 C13.48195168 15.66947219 11.5224033 13.72822376 9.5625 11.78710938 C8.32242929 10.54996751 7.08282823 9.31235465 5.84375 8.07421875 C5.25638062 7.49403488 4.66901123 6.91385101 4.06384277 6.31608582 C0 2.22886255 0 2.22886255 0 0 Z " fill="#221E1F" transform="translate(16,52)"/>
</svg>
